<svg width="230" height="39" viewBox="0 0 230 39" fill="none" xmlns="http://www.w3.org/2000/svg">
<path d="M3.88308 0H0V38.831H3.88308V0Z" fill="black"/>
<path d="M12.9486 0H7.76611V38.831H12.9486V0Z" fill="black"/>
<path d="M18.116 0H15.5322V38.831H18.116V0Z" fill="black"/>
<path d="M27.1819 0H23.2988V38.831H27.1819V0Z" fill="black"/>
<path d="M34.9476 0H31.0645V38.831H34.9476V0Z" fill="black"/>
<path d="M42.7141 0H38.8311V38.831H42.7141V0Z" fill="black"/>
<path d="M50.4807 0H46.5977V38.831H50.4807V0Z" fill="black"/>
<path d="M58.2464 0H54.3633V38.831H58.2464V0Z" fill="black"/>
<path d="M66.0129 0H63.4292V38.831H66.0129V0Z" fill="black"/>
<path d="M73.7791 0H71.1953V38.831H73.7791V0Z" fill="black"/>
<path d="M81.5452 0H77.6621V38.831H81.5452V0Z" fill="black"/>
<path d="M89.3108 0H86.7271V38.831H89.3108V0Z" fill="black"/>
<path d="M97.077 0H91.8945V38.831H97.077V0Z" fill="black"/>
<path d="M104.844 0H100.96V38.831H104.844V0Z" fill="black"/>
<path d="M112.609 0H108.726V38.831H112.609V0Z" fill="black"/>
<path d="M120.376 0H116.493V38.831H120.376V0Z" fill="black"/>
<path d="M129.442 0H124.259V38.831H129.442V0Z" fill="black"/>
<path d="M134.609 0H132.025V38.831H134.609V0Z" fill="black"/>
<path d="M143.675 0H139.792V38.831H143.675V0Z" fill="black"/>
<path d="M151.441 0H147.558V38.831H151.441V0Z" fill="black"/>
<path d="M161.791 0H155.324V38.831H161.791V0Z" fill="black"/>
<path d="M166.973 0H164.389V38.831H166.973V0Z" fill="black"/>
<path d="M174.74 0H170.856V38.831H174.74V0Z" fill="black"/>
<path d="M182.506 0H179.922V38.831H182.506V0Z" fill="black"/>
<path d="M190.272 0H187.688V38.831H190.272V0Z" fill="black"/>
<path d="M198.038 0H194.155V38.831H198.038V0Z" fill="black"/>
<path d="M205.804 0H203.22V38.831H205.804V0Z" fill="black"/>
<path d="M213.57 0H208.387V38.831H213.57V0Z" fill="black"/>
<path d="M221.337 0H217.454V38.831H221.337V0Z" fill="black"/>
<path d="M229.102 0H225.219V38.831H229.102V0Z" fill="black"/>
</svg>
