<svg width="644" height="338" viewBox="0 0 644 338" fill="none" xmlns="http://www.w3.org/2000/svg">
<path d="M643.982 173.403C643.982 136.045 619.466 104.513 585.887 94.5066C577.079 58.7942 545.298 32.3546 507.438 32.3546C493.656 32.3546 480.677 35.868 469.323 42.0498C451.917 16.9555 418.712 0 380.597 0C342.482 0 311.102 16.0439 293.34 40.0041C293.076 40.0041 292.811 40.0263 292.556 40.0374C281.475 30.2755 267.857 24.5162 253.144 24.5162C234.388 24.5162 217.429 33.8667 205.208 48.9433C203.191 49.288 201.174 49.6326 199.175 49.9995C184.443 34.3003 163.67 24.5162 140.642 24.5162C101.011 24.5162 68.0527 53.4796 61.116 91.727C26.0035 100.688 0 132.987 0 171.457C0 209.927 28.2214 244.905 65.561 252.188C80.3562 271.579 103.494 284.065 129.516 284.065C135.786 284.065 141.892 283.342 147.761 281.963C148.847 282.274 149.933 282.575 151.028 282.875C167.795 310.282 203.163 329.172 244.081 329.172C271.207 329.172 295.887 320.867 314.333 307.291C329.156 326.014 351.883 338 377.375 338C408.983 338 436.355 319.566 449.663 292.692C449.663 292.692 449.672 292.692 449.681 292.692C462.706 298.463 477.464 301.721 493.099 301.721C531.47 301.721 564.529 282.13 579.616 253.911C616.372 246.173 644 213.073 644 173.425L643.982 173.403Z" fill="#8599CC"/>
</svg>
