<svg width="622" height="333" viewBox="0 0 622 333" fill="none" xmlns="http://www.w3.org/2000/svg">
<g clip-path="url(#clip0_4003_7766)">
<path d="M342.352 157.987C344.599 139.528 333.577 122.368 316.485 115.266C313.994 97.0551 298.835 81.9415 278.885 79.4981C271.618 78.6126 264.571 79.509 258.213 81.8328C250.551 68.3151 234.069 57.7918 213.986 55.3392C194.449 52.9503 176.391 58.7884 165.588 69.484C165.45 69.4747 165.312 69.4601 165.168 69.4507C159.913 63.9147 153.089 60.1892 145.328 59.2416C135.446 58.0359 125.939 61.5598 118.594 68.2222C117.507 68.2604 116.425 68.304 115.354 68.3533C108.534 59.6479 98.1766 53.4751 86.0398 51.9915C65.1558 49.4413 46.0377 61.6261 40.08 80.0748C21.0358 82.2429 5.38701 96.5213 3.07013 115.533C0.656061 135.336 13.5196 153.642 32.7611 159.643C39.3901 170.177 50.8336 177.842 64.5459 179.515C67.8506 179.919 71.1127 179.953 74.2886 179.65C74.8411 179.874 75.3991 180.092 75.9571 180.311C83.1451 194.935 100.645 206.548 122.213 209.182C136.509 210.93 150.016 208.417 160.555 202.896C167.241 213.102 178.495 220.489 191.926 222.132C208.588 224.167 224.123 216.822 232.751 204.401C232.751 204.401 232.756 204.401 232.762 204.401C239.278 208.091 246.859 210.649 255.103 211.658C275.323 214.131 293.931 206.581 303.575 193.607C323.413 192.15 339.965 177.577 342.357 157.981L342.352 157.987Z" fill="#5E84B5"/>
<path d="M358.184 165.641C357.588 144.439 369.939 125.577 387.374 118.578C391.421 97.9628 407.655 81.7038 427.498 80.2135C434.722 79.6698 441.58 81.1526 447.632 84.2165C456.352 69.2905 473.489 58.3553 493.461 56.8585C512.889 55.4028 530.139 63.2309 539.829 76.1333C539.965 76.1289 540.102 76.1245 540.243 76.1212C545.898 70.1432 552.94 66.3428 560.652 65.7613C570.483 65.0258 579.521 69.6617 586.164 77.7407C587.226 77.8573 588.288 77.9739 589.342 78.1022C596.813 68.6123 607.548 62.2466 619.615 61.339C640.383 59.7815 658.122 74.9236 662.364 96.356C680.907 100.063 695.049 117.37 695.661 139.204C696.297 161.95 682.041 182.001 662.585 187.602C655.141 199.192 643.212 207.19 629.576 208.211C626.289 208.458 623.077 208.285 619.982 207.74C619.42 207.955 618.852 208.174 618.282 208.387C609.93 224.601 591.695 236.718 570.248 238.326C556.031 239.393 542.964 235.648 533.083 228.669C525.61 239.88 513.89 247.576 500.535 248.577C483.965 249.822 469.328 240.431 461.93 225.706L461.922 225.703C455.189 229.491 447.509 231.917 439.308 232.532C419.201 234.043 401.56 224.223 393.207 208.799C373.819 205.851 358.815 188.156 358.183 165.645L358.184 165.641Z" fill="#5E84B5"/>
<path d="M84.5009 171.609C103.543 94.4613 420.495 99.3221 560.628 98.9867C562.387 98.9845 581.514 93.1328 585.169 98.3172C589.764 104.83 563.743 119.364 554.469 147.314C549.264 162.998 552.022 174.781 553.959 189.245C555.957 204.176 568.794 300.203 529.074 323.877C514.382 332.637 496.477 329.12 482.578 326.782C389.9 311.175 229.103 306.271 102.877 302.418C95.956 302.208 77.1202 301.729 70.9147 291.747C62.6683 278.487 85.2293 262.097 92.1637 229.402C98.2952 200.493 80.6273 187.295 84.5009 171.609Z" fill="#628E84"/>
<path d="M384.079 84.1385L381.797 82.7368C381.568 82.5982 381.275 82.6621 381.126 82.886L379.652 85.1245C379.333 85.6042 378.588 85.3697 378.604 84.7941L378.678 82.1131C378.684 81.8466 378.482 81.6228 378.216 81.6068L375.539 81.4469C374.964 81.4149 374.794 80.6474 375.3 80.3703L377.657 79.0912C377.891 78.9632 377.981 78.6754 377.864 78.4355L376.662 76.0371C376.406 75.5201 376.981 74.9925 377.471 75.291L379.753 76.6927C379.982 76.8313 380.275 76.7673 380.424 76.5435L381.898 74.3049C382.217 73.8252 382.962 74.0597 382.946 74.6354L382.871 77.3163C382.866 77.5828 383.068 77.8067 383.334 77.8227L386.011 77.9825C386.585 78.0145 386.756 78.782 386.25 79.0591L383.893 80.3383C383.659 80.4662 383.568 80.754 383.685 80.9939L384.888 83.3923C385.143 83.9093 384.569 84.437 384.079 84.1385Z" fill="#A7C9CD"/>
<path d="M175.079 50.117L172.797 48.7153C172.568 48.5767 172.275 48.6407 172.126 48.8645L170.652 51.103C170.333 51.5827 169.588 51.3482 169.604 50.7726L169.678 48.0917C169.684 47.8252 169.482 47.6013 169.216 47.5853L166.539 47.4254C165.964 47.3934 165.794 46.6259 166.3 46.3488L168.657 45.0697C168.891 44.9418 168.981 44.6539 168.864 44.4141L167.662 42.0156C167.406 41.4986 167.981 40.971 168.471 41.2695L170.753 42.6712C170.982 42.8098 171.275 42.7459 171.424 42.522L172.898 40.2834C173.217 39.8037 173.962 40.0383 173.946 40.6139L173.871 43.2948C173.866 43.5613 174.068 43.7852 174.334 43.8012L177.011 43.961C177.585 43.993 177.756 44.7605 177.25 45.0377L174.893 46.3168C174.659 46.4448 174.568 46.7326 174.685 46.9724L175.888 49.3708C176.143 49.8878 175.569 50.4155 175.079 50.117Z" fill="#B575B7"/>
<path d="M467.079 29.1033L464.797 27.7016C464.568 27.563 464.275 27.627 464.126 27.8508L462.652 30.0894C462.333 30.569 461.588 30.3345 461.604 29.7589L461.678 27.078C461.684 26.8115 461.482 26.5877 461.216 26.5717L458.539 26.4118C457.964 26.3798 457.794 25.6123 458.3 25.3351L460.657 24.056C460.891 23.9281 460.981 23.6402 460.864 23.4004L459.662 21.002C459.406 20.485 459.981 19.9574 460.471 20.2558L462.753 21.6576C462.982 21.7962 463.275 21.7322 463.424 21.5083L464.898 19.2698C465.217 18.7901 465.962 19.0246 465.946 19.6002L465.871 22.2811C465.866 22.5476 466.068 22.7715 466.334 22.7875L469.011 22.9474C469.585 22.9793 469.756 23.7468 469.25 24.024L466.893 25.3032C466.659 25.4311 466.568 25.7189 466.685 25.9587L467.888 28.3572C468.143 28.8741 467.569 29.4018 467.079 29.1033Z" fill="#A7C9CD"/>
<path d="M157.503 36.2553L156.119 35.3891C155.98 35.3035 155.803 35.343 155.713 35.4813L154.82 36.8645C154.626 37.1609 154.175 37.016 154.184 36.6603L154.229 35.0038C154.233 34.8391 154.11 34.7008 153.949 34.6909L152.327 34.5921C151.978 34.5723 151.875 34.0981 152.182 33.9268L153.61 33.1365C153.752 33.0574 153.807 32.8795 153.736 32.7313L153.007 31.2493C152.852 30.9299 153.201 30.6039 153.497 30.7883L154.881 31.6544C155.019 31.7401 155.197 31.7005 155.287 31.5622L156.18 30.179C156.374 29.8826 156.825 30.0275 156.816 30.3832L156.771 32.0397C156.767 32.2044 156.89 32.3428 157.051 32.3526L158.673 32.4514C159.022 32.4712 159.125 32.9454 158.818 33.1167L157.39 33.9071C157.248 33.9861 157.193 34.164 157.264 34.3122L157.993 35.7942C158.148 36.1136 157.799 36.4397 157.503 36.2553Z" fill="#A7C9CD"/>
<path d="M164.503 24.2475L163.119 23.3813C162.98 23.2957 162.803 23.3352 162.713 23.4735L161.82 24.8567C161.626 25.1531 161.175 25.0082 161.184 24.6525L161.229 22.996C161.233 22.8313 161.11 22.693 160.949 22.6831L159.327 22.5843C158.978 22.5645 158.875 22.0903 159.182 21.919L160.61 21.1286C160.752 21.0496 160.807 20.8717 160.736 20.7235L160.007 19.2415C159.852 18.9221 160.201 18.596 160.497 18.7805L161.881 19.6466C162.019 19.7323 162.197 19.6927 162.287 19.5544L163.18 18.1712C163.374 17.8748 163.825 18.0197 163.816 18.3753L163.771 20.0319C163.767 20.1966 163.89 20.3349 164.051 20.3448L165.673 20.4436C166.022 20.4634 166.125 20.9376 165.818 21.1089L164.39 21.8993C164.248 21.9783 164.193 22.1562 164.264 22.3044L164.993 23.7864C165.148 24.1058 164.799 24.4319 164.503 24.2475Z" fill="#B575B7"/>
<path d="M214.503 43.2592L213.119 42.393C212.98 42.3074 212.803 42.3469 212.713 42.4852L211.82 43.8684C211.626 44.1648 211.175 44.0199 211.184 43.6643L211.229 42.0077C211.233 41.843 211.11 41.7047 210.949 41.6948L209.327 41.596C208.978 41.5762 208.875 41.102 209.182 40.9307L210.61 40.1404C210.752 40.0613 210.807 39.8834 210.736 39.7352L210.007 38.2532C209.852 37.9338 210.201 37.6078 210.497 37.7922L211.881 38.6583C212.019 38.744 212.197 38.7044 212.287 38.5661L213.18 37.1829C213.374 36.8865 213.825 37.0314 213.816 37.3871L213.771 39.0436C213.767 39.2083 213.89 39.3467 214.051 39.3565L215.673 39.4553C216.022 39.4751 216.125 39.9493 215.818 40.1206L214.39 40.911C214.248 40.99 214.193 41.1679 214.264 41.3161L214.993 42.7981C215.148 43.1176 214.799 43.4436 214.503 43.2592Z" fill="#A7C9CD"/>
<path d="M232.503 50.2641L231.119 49.3979C230.98 49.3123 230.803 49.3518 230.713 49.4901L229.82 50.8733C229.626 51.1697 229.175 51.0248 229.184 50.6691L229.229 49.0126C229.233 48.8479 229.11 48.7096 228.949 48.6997L227.327 48.6009C226.978 48.5811 226.875 48.1069 227.182 47.9356L228.61 47.1452C228.752 47.0662 228.807 46.8883 228.736 46.7401L228.007 45.2581C227.852 44.9387 228.201 44.6126 228.497 44.7971L229.881 45.6632C230.019 45.7489 230.197 45.7093 230.287 45.571L231.18 44.1878C231.374 43.8914 231.825 44.0363 231.816 44.392L231.771 46.0485C231.767 46.2132 231.89 46.3515 232.051 46.3614L233.673 46.4602C234.022 46.48 234.125 46.9542 233.818 47.1255L232.39 47.9159C232.248 47.9949 232.193 48.1728 232.264 48.321L232.993 49.803C233.148 50.1224 232.799 50.4485 232.503 50.2641Z" fill="#A7C9CD"/>
<path d="M427.503 54.266L426.119 53.3999C425.98 53.3142 425.803 53.3538 425.713 53.4921L424.82 54.8753C424.626 55.1717 424.175 55.0268 424.184 54.6711L424.229 53.0145C424.233 52.8498 424.11 52.7115 423.949 52.7017L422.327 52.6028C421.978 52.5831 421.875 52.1088 422.182 51.9376L423.61 51.1472C423.752 51.0682 423.807 50.8903 423.736 50.7421L423.007 49.2601C422.852 48.9406 423.201 48.6146 423.497 48.799L424.881 49.6652C425.019 49.7508 425.197 49.7113 425.287 49.573L426.18 48.1897C426.374 47.8933 426.825 48.0382 426.816 48.3939L426.771 50.0505C426.767 50.2151 426.89 50.3535 427.051 50.3634L428.673 50.4622C429.022 50.4819 429.125 50.9562 428.818 51.1274L427.39 51.9178C427.248 51.9969 427.193 52.1747 427.264 52.3229L427.993 53.8049C428.148 54.1244 427.799 54.4504 427.503 54.266Z" fill="#B575B7"/>
<path d="M455.079 61.1239L452.797 59.7221C452.568 59.5835 452.275 59.6475 452.126 59.8714L450.652 62.1099C450.333 62.5895 449.588 62.355 449.604 61.7794L449.678 59.0985C449.684 58.832 449.482 58.6082 449.216 58.5922L446.539 58.4323C445.964 58.4003 445.794 57.6328 446.3 57.3556L448.657 56.0765C448.891 55.9486 448.981 55.6607 448.864 55.4209L447.662 53.0225C447.406 52.5055 447.981 51.9779 448.471 52.2763L450.753 53.6781C450.982 53.8167 451.275 53.7527 451.424 53.5288L452.898 51.2903C453.217 50.8106 453.962 51.0451 453.946 51.6207L453.871 54.3016C453.866 54.5681 454.068 54.792 454.334 54.808L457.011 54.9679C457.585 54.9998 457.756 55.7673 457.25 56.0445L454.893 57.3237C454.659 57.4516 454.568 57.7394 454.685 57.9792L455.888 60.3777C456.143 60.8947 455.569 61.4223 455.079 61.1239Z" fill="#B575B7"/>
</g>
<defs>
<clipPath id="clip0_4003_7766">
<rect width="622" height="333" fill="white"/>
</clipPath>
</defs>
</svg>
