<svg width="641" height="338" viewBox="0 0 641 338" fill="none" xmlns="http://www.w3.org/2000/svg">
<path d="M342.352 162.886C344.599 144.439 333.577 127.29 316.485 120.193C313.994 101.993 298.835 86.8894 278.885 84.4475C271.618 83.5626 264.571 84.4584 258.213 86.7807C250.551 73.2716 234.069 62.755 213.986 60.304C194.449 57.9166 176.391 63.7509 165.588 74.4398C165.45 74.4305 165.312 74.4159 165.168 74.4065C159.913 68.874 153.089 65.1509 145.328 64.2039C135.446 62.9989 125.939 66.5206 118.594 73.1788C117.507 73.2169 116.425 73.2605 115.354 73.3098C108.534 64.6099 98.1766 58.441 86.0398 56.9583C65.1558 54.4098 46.0377 66.5869 40.08 85.0238C21.0358 87.1905 5.38701 101.46 3.07013 120.459C0.656061 140.25 13.5196 158.544 32.7611 164.541C39.3901 175.069 50.8336 182.729 64.5459 184.4C67.8506 184.804 71.1127 184.839 74.2886 184.536C74.8411 184.759 75.3991 184.978 75.9571 185.196C83.1451 199.811 100.645 211.417 122.213 214.049C136.509 215.796 150.016 213.284 160.555 207.767C167.241 217.966 178.495 225.349 191.926 226.991C208.588 229.025 224.123 221.684 232.751 209.271C232.751 209.271 232.756 209.271 232.762 209.271C239.278 212.959 246.859 215.515 255.103 216.524C275.323 218.995 293.931 211.45 303.575 198.484C323.413 197.028 339.965 182.465 342.357 162.881L342.352 162.886Z" fill="#778AD3"/>
<path d="M286.21 165.543C285.612 144.353 297.959 125.504 315.392 118.51C319.436 97.9072 335.665 81.6595 355.507 80.1727C362.73 79.6303 369.588 81.1132 375.639 84.1762C384.358 69.2598 401.491 58.333 421.462 56.8397C440.887 55.3875 458.137 63.2137 467.828 76.1103C467.965 76.1059 468.102 76.1016 468.242 76.0982C473.896 70.1243 480.937 66.3271 488.649 65.7469C498.478 65.0132 507.516 69.6478 514.16 77.7232C515.222 77.8399 516.284 77.9565 517.338 78.085C524.807 68.6013 535.54 62.2406 547.606 61.3352C568.372 59.7814 586.112 74.9176 590.356 96.3387C608.898 100.046 623.042 117.345 623.656 139.168C624.296 161.901 610.044 181.939 590.59 187.534C583.148 199.116 571.221 207.109 557.586 208.128C554.299 208.374 551.088 208.2 547.993 207.655C547.431 207.87 546.864 208.088 546.293 208.301C537.944 224.505 519.713 236.613 498.267 238.217C484.052 239.282 470.985 235.537 461.104 228.561C453.633 239.764 441.915 247.455 428.561 248.453C411.993 249.695 397.355 240.307 389.956 225.589L389.948 225.587C383.216 229.371 375.537 231.794 367.337 232.408C347.232 233.915 329.591 224.099 321.236 208.682C301.849 205.733 286.844 188.046 286.209 165.548L286.21 165.543Z" fill="#778AD3"/>
<path d="M84.5009 176.5C103.543 99.4015 420.495 104.259 560.628 103.924C562.387 103.922 581.514 98.0738 585.169 103.255C589.764 109.763 563.743 124.288 554.469 152.221C549.264 167.895 552.022 179.67 553.959 194.125C555.957 209.046 568.794 305.012 529.074 328.672C514.382 337.426 496.477 333.911 482.578 331.575C389.9 315.978 229.103 311.076 102.877 307.226C95.956 307.017 77.1202 306.538 70.9147 296.562C62.6683 283.31 85.2293 266.931 92.1637 234.257C98.2952 205.366 80.6273 192.177 84.5009 176.5Z" fill="#6B857F"/>
</svg>
