<svg width="126" height="172" viewBox="0 0 126 172" fill="none" xmlns="http://www.w3.org/2000/svg">
<path d="M28.1377 106.023C24.0435 100.357 16.1377 99.0865 10.4777 103.185C7.13054 105.606 5.32049 109.359 5.24388 113.199L0.488899 142.827C0.057934 145.526 1.90629 148.086 4.59743 148.517C7.29335 148.948 9.85041 147.098 10.2814 144.404L10.9566 140.195C11.694 141.039 12.7092 141.638 13.8919 141.825C16.5878 142.257 19.1449 140.406 19.5759 137.712L20.3277 133.024C20.9693 133.528 21.7355 133.882 22.5926 134.017C25.2886 134.448 27.8456 132.598 28.2766 129.904L30.2015 117.915C30.2877 117.378 30.2782 116.842 30.1968 116.329C31.0012 112.882 30.3691 109.119 28.1329 106.027L28.1377 106.023Z" fill="#FFF6D6"/>
<path d="M97.3325 106.023C101.427 100.357 109.333 99.0865 114.993 103.185C118.34 105.606 120.15 109.359 120.226 113.199L124.981 142.827C125.412 145.526 123.564 148.086 120.873 148.517C118.177 148.948 115.62 147.098 115.189 144.404L114.514 140.195C113.776 141.039 112.761 141.638 111.578 141.825C108.882 142.257 106.325 140.406 105.894 137.712L105.143 133.024C104.501 133.528 103.735 133.882 102.878 134.017C100.182 134.448 97.6246 132.598 97.1937 129.904L95.2687 117.915C95.1825 117.378 95.1921 116.842 95.2735 116.329C94.469 112.882 95.1011 109.119 97.3373 106.027L97.3325 106.023Z" fill="#FFF6D6"/>
<path d="M60.8883 145.338C60.7504 142.565 58.3924 140.428 55.6217 140.566C52.8509 140.704 50.7166 143.065 50.8545 145.838L51.9057 166.975C52.0436 169.749 54.4016 171.886 57.1723 171.748C59.9431 171.609 62.0774 169.249 61.9395 166.475L60.8883 145.338Z" fill="#FFF6D6"/>
<path d="M63.4517 166.478C63.3138 169.251 65.4481 171.612 68.2189 171.75C70.9897 171.888 73.3477 169.752 73.4856 166.978L74.5368 145.841C74.6747 143.067 72.5404 140.707 69.7696 140.569C66.9988 140.43 64.6409 142.567 64.5029 145.341L63.4517 166.478Z" fill="#FFF6D6"/>
<path d="M62.7349 158.19C83.9711 158.19 101.187 143.8 101.187 126.049C101.187 108.299 83.9711 93.9089 62.7349 93.9089C41.4986 93.9089 24.2832 108.299 24.2832 126.049C24.2832 143.8 41.4986 158.19 62.7349 158.19Z" fill="#552F0F"/>
<path d="M62.7351 116.16C63.5761 116.16 64.2579 115.443 64.2579 114.559C64.2579 113.675 63.5761 112.958 62.7351 112.958C61.8942 112.958 61.2124 113.675 61.2124 114.559C61.2124 115.443 61.8942 116.16 62.7351 116.16Z" fill="#FAED2E"/>
<path d="M62.7351 126.278C63.5761 126.278 64.2579 125.562 64.2579 124.677C64.2579 123.793 63.5761 123.076 62.7351 123.076C61.8942 123.076 61.2124 123.793 61.2124 124.677C61.2124 125.562 61.8942 126.278 62.7351 126.278Z" fill="#FAED2E"/>
<path d="M62.7351 105.998C63.5761 105.998 64.2579 105.281 64.2579 104.397C64.2579 103.513 63.5761 102.796 62.7351 102.796C61.8942 102.796 61.2124 103.513 61.2124 104.397C61.2124 105.281 61.8942 105.998 62.7351 105.998Z" fill="#FAED2E"/>
<path d="M53.1528 122.42C53.1528 122.42 53.1576 122.392 53.1576 122.377V117.938C53.1576 117.613 52.8032 117.349 52.3627 117.349C51.9221 117.349 51.5726 117.613 51.5726 117.938V122.018L42.8144 124.827L34.0802 122.027V117.967C34.0802 117.641 33.7258 117.378 33.2853 117.378C32.8447 117.378 32.4952 117.641 32.4952 117.967V122.363C32.4521 122.598 32.6053 122.837 32.9166 122.933L42.5079 126.011C42.6085 126.044 42.7138 126.054 42.8144 126.054C42.915 126.054 43.0203 126.044 43.1209 126.011L52.7122 122.933C52.9517 122.857 53.0953 122.694 53.1288 122.516C53.1336 122.502 53.1384 122.483 53.1432 122.468C53.1432 122.454 53.148 122.44 53.148 122.425L53.1528 122.42Z" fill="#FAED2E"/>
<path d="M92.9738 122.42C92.9738 122.42 92.9786 122.392 92.9786 122.377V117.938C92.9786 117.613 92.6243 117.349 92.1837 117.349C91.7432 117.349 91.3936 117.613 91.3936 117.938V122.018L82.6354 124.827L73.9012 122.027V117.967C73.9012 117.641 73.5469 117.378 73.1063 117.378C72.6658 117.378 72.3162 117.641 72.3162 117.967V122.363C72.2731 122.598 72.4264 122.837 72.7376 122.933L82.329 126.011C82.4295 126.044 82.5349 126.054 82.6354 126.054C82.736 126.054 82.8414 126.044 82.9419 126.011L92.5333 122.933C92.7727 122.857 92.9164 122.694 92.9499 122.516C92.9547 122.502 92.9595 122.483 92.9642 122.468C92.9642 122.454 92.969 122.44 92.969 122.425L92.9738 122.42Z" fill="#FAED2E"/>
<path d="M120.034 34.4746L110.366 36.531L118.339 29.5468C120.834 27.3658 118.339 23.531 114.901 24.2596L94.0468 28.6936C84.9726 23.9864 74.0261 21.2397 62.2463 21.2397C50.4666 21.2397 39.5201 23.9864 30.4411 28.6936L9.58238 24.2548C6.14424 23.5214 3.64943 27.3562 6.14424 29.5421L14.1171 36.5262L4.44911 34.4698C1.01097 33.7364 -1.48384 37.5711 1.01097 39.757L9.9942 47.6279C7.0397 52.9008 5.40203 58.7057 5.40203 64.8078C5.40203 88.8711 30.8481 108.376 62.2415 108.376C93.635 108.376 119.081 88.8711 119.081 64.8078C119.081 58.7057 117.443 52.896 114.489 47.6231L123.472 39.757C125.962 37.5759 123.472 33.7412 120.034 34.4698V34.4746Z" fill="#FFF6D6"/>
<path d="M68.1315 76.8056C68.1459 76.5036 68.0645 76.192 67.8538 75.9523L62.8019 70.1186C62.4859 69.7495 62.0023 69.7495 61.6814 70.1186L56.6295 75.9523C56.4236 76.192 56.3375 76.5084 56.3518 76.8056C56.2991 77.1123 56.3183 77.4431 56.4284 77.7642L61.1403 91.4065C61.5617 92.6289 62.9121 92.6289 63.3382 91.4065L68.0501 77.7642C68.1603 77.4431 68.1794 77.1123 68.1267 76.8056H68.1315Z" fill="#924D22"/>
<path d="M95.2879 28.43L94.0524 28.6936C84.9782 23.9864 74.0317 21.2397 62.252 21.2397C50.4723 21.2397 39.5258 23.9864 30.4468 28.6936L29.2065 28.43L58.3925 48.8503C60.7101 50.4705 63.7939 50.4705 66.1115 48.8503L95.2974 28.43H95.2879Z" fill="#C38E4F"/>
<path d="M95.7989 19.1021V7.99075C95.7989 3.59511 91.8005 0 86.9115 0H37.5851C32.6961 0 28.6977 3.59511 28.6977 7.99075V19.1021C26.4135 20.8229 25.135 22.7451 25.135 24.7775C25.135 32.102 41.7511 38.0364 62.2507 38.0364C82.7503 38.0364 99.3664 32.0972 99.3664 24.7775C99.3664 22.7451 98.0878 20.8229 95.8037 19.1021H95.7989Z" fill="#552F0F"/>
<path d="M90.7045 13.6134C91.4053 13.6134 91.9734 13.0168 91.9734 12.2808C91.9734 11.5449 91.4053 10.9482 90.7045 10.9482C90.0037 10.9482 89.4355 11.5449 89.4355 12.2808C89.4355 13.0168 90.0037 13.6134 90.7045 13.6134Z" fill="#FAED2E"/>
<path d="M90.7045 8.4125C91.4053 8.4125 91.9734 7.81586 91.9734 7.07989C91.9734 6.34392 91.4053 5.74731 90.7045 5.74731C90.0037 5.74731 89.4355 6.34392 89.4355 7.07989C89.4355 7.81586 90.0037 8.4125 90.7045 8.4125Z" fill="#FAED2E"/>
<path d="M95.8003 18.0479H28.6895V19.0209H95.8003V18.0479Z" fill="#FAED2E"/>
<path d="M95.7271 15.6272H28.6162V16.6003H95.7271V15.6272Z" fill="#FAED2E"/>
<path d="M40.0089 73.7002C46.6469 73.7002 52.028 69.3071 52.028 63.8879C52.028 58.4688 46.6469 54.0757 40.0089 54.0757C33.3709 54.0757 27.9897 58.4688 27.9897 63.8879C27.9897 69.3071 33.3709 73.7002 40.0089 73.7002Z" fill="#231F20"/>
<path d="M40.0078 72.3431C45.7308 72.3431 50.3701 68.5573 50.3701 63.8874C50.3701 59.2174 45.7308 55.4316 40.0078 55.4316C34.2849 55.4316 29.6455 59.2174 29.6455 63.8874C29.6455 68.5573 34.2849 72.3431 40.0078 72.3431Z" fill="#FFCA3B"/>
<path d="M40.009 69.7409C43.968 69.7409 47.1774 67.1205 47.1774 63.888C47.1774 60.6556 43.968 58.0352 40.009 58.0352C36.05 58.0352 32.8406 60.6556 32.8406 63.888C32.8406 67.1205 36.05 69.7409 40.009 69.7409Z" fill="#231F20"/>
<path d="M42.8435 63.7868C43.6448 63.7868 44.2944 63.0292 44.2944 62.0947C44.2944 61.1602 43.6448 60.4026 42.8435 60.4026C42.0422 60.4026 41.3926 61.1602 41.3926 62.0947C41.3926 63.0292 42.0422 63.7868 42.8435 63.7868Z" fill="white"/>
<path d="M84.4793 73.7002C91.1173 73.7002 96.4985 69.3071 96.4985 63.8879C96.4985 58.4688 91.1173 54.0757 84.4793 54.0757C77.8414 54.0757 72.4602 58.4688 72.4602 63.8879C72.4602 69.3071 77.8414 73.7002 84.4793 73.7002Z" fill="#231F20"/>
<path d="M84.4783 72.3431C90.2012 72.3431 94.8406 68.5573 94.8406 63.8874C94.8406 59.2174 90.2012 55.4316 84.4783 55.4316C78.7553 55.4316 74.116 59.2174 74.116 63.8874C74.116 68.5573 78.7553 72.3431 84.4783 72.3431Z" fill="#FFCA3B"/>
<path d="M84.4782 69.7409C88.4372 69.7409 91.6466 67.1205 91.6466 63.888C91.6466 60.6556 88.4372 58.0352 84.4782 58.0352C80.5192 58.0352 77.3098 60.6556 77.3098 63.888C77.3098 67.1205 80.5192 69.7409 84.4782 69.7409Z" fill="#231F20"/>
<path d="M87.3191 63.7868C88.1204 63.7868 88.77 63.0292 88.77 62.0947C88.77 61.1602 88.1204 60.4026 87.3191 60.4026C86.5178 60.4026 85.8682 61.1602 85.8682 62.0947C85.8682 63.0292 86.5178 63.7868 87.3191 63.7868Z" fill="white"/>
<path d="M59.1388 11.576C59.8954 11.4993 60.6184 11.6719 61.2457 12.0266C61.7868 11.552 62.462 11.2405 63.2186 11.1638C63.8076 11.1062 64.3774 11.1973 64.8946 11.4082C65.3207 10.2866 66.13 9.371 67.1739 8.8533C66.8674 6.36069 64.5594 4.55835 61.9736 4.82199C59.3495 5.08563 57.4341 7.36254 57.6879 9.91268C57.7214 10.2386 57.7884 10.555 57.8842 10.857C58.1667 11.0871 58.4205 11.3603 58.6312 11.6623C58.794 11.6191 58.9616 11.5904 59.134 11.576H59.1388Z" stroke="#F8ED2F" stroke-miterlimit="10"/>
<path d="M60.4697 13.0191C60.4697 13.0191 62.6341 10.1143 65.6126 11.9741" stroke="#F8ED2F" stroke-miterlimit="10"/>
<path d="M65.0327 11.6197C65.0327 11.6197 66.5459 7.10905 70.9417 8.97372" stroke="#F8ED2F" stroke-miterlimit="10"/>
<path d="M60.9682 12.2813C60.9682 12.2813 59.8334 11.4808 58.3633 11.9266C58.1765 11.9841 57.9898 12.056 57.7935 12.1567" stroke="#F8ED2F" stroke-miterlimit="10"/>
<path d="M54.3406 10.0714C54.3406 10.0714 57.2903 9.38117 58.7795 11.8882" stroke="#F8ED2F" stroke-miterlimit="10"/>
</svg>
