<svg width="131" height="180" viewBox="0 0 131 180" fill="none" xmlns="http://www.w3.org/2000/svg">
<path d="M63.7204 152.098C63.576 149.196 61.1084 146.96 58.2088 147.104C55.3091 147.249 53.0755 149.719 53.2199 152.621L54.3199 174.742C54.4643 177.644 56.9319 179.88 59.8316 179.736C62.7312 179.591 64.9648 177.121 64.8205 174.218L63.7204 152.098Z" fill="#FFF6D6"/>
<path d="M66.4029 174.221C66.2586 177.124 68.4922 179.594 71.3918 179.738C74.2915 179.883 76.7591 177.647 76.9035 174.744L78.0035 152.624C78.1479 149.721 75.9143 147.251 73.0146 147.107C70.115 146.962 67.6473 149.198 67.503 152.101L66.4029 174.221Z" fill="#FFF6D6"/>
<path d="M65.6527 165.547C87.8767 165.547 105.893 150.488 105.893 131.912C105.893 113.336 87.8767 98.2769 65.6527 98.2769C43.4287 98.2769 25.4126 113.336 25.4126 131.912C25.4126 150.488 43.4287 165.547 65.6527 165.547Z" fill="#552F0F"/>
<path d="M65.6531 121.563C66.5332 121.563 67.2467 120.813 67.2467 119.887C67.2467 118.962 66.5332 118.212 65.6531 118.212C64.773 118.212 64.0596 118.962 64.0596 119.887C64.0596 120.813 64.773 121.563 65.6531 121.563Z" fill="#FAED2E"/>
<path d="M65.6531 132.152C66.5332 132.152 67.2467 131.402 67.2467 130.477C67.2467 129.552 66.5332 128.802 65.6531 128.802C64.773 128.802 64.0596 129.552 64.0596 130.477C64.0596 131.402 64.773 132.152 65.6531 132.152Z" fill="#FAED2E"/>
<path d="M65.6531 110.929C66.5332 110.929 67.2467 110.178 67.2467 109.253C67.2467 108.328 66.5332 107.578 65.6531 107.578C64.773 107.578 64.0596 108.328 64.0596 109.253C64.0596 110.178 64.773 110.929 65.6531 110.929Z" fill="#FAED2E"/>
<path d="M55.6249 128.115C55.6249 128.115 55.6299 128.084 55.6299 128.069V123.424C55.6299 123.083 55.2591 122.807 54.7981 122.807C54.337 122.807 53.9712 123.083 53.9712 123.424V127.693L44.8057 130.633L35.6652 127.703V123.454C35.6652 123.113 35.2944 122.837 34.8334 122.837C34.3723 122.837 34.0065 123.113 34.0065 123.454V128.054C33.9614 128.3 34.1218 128.551 34.4475 128.651L44.485 131.872C44.5902 131.907 44.7004 131.917 44.8057 131.917C44.9109 131.917 45.0212 131.907 45.1264 131.872L55.1639 128.651C55.4144 128.571 55.5648 128.4 55.5999 128.215C55.6049 128.2 55.6099 128.18 55.6149 128.165C55.6149 128.15 55.6199 128.135 55.6199 128.12L55.6249 128.115Z" fill="#FAED2E"/>
<path d="M97.2983 128.115C97.2983 128.115 97.3033 128.084 97.3033 128.069V123.424C97.3033 123.083 96.9324 122.807 96.4714 122.807C96.0104 122.807 95.6446 123.083 95.6446 123.424V127.693L86.479 130.633L77.3386 127.703V123.454C77.3386 123.113 76.9677 122.837 76.5067 122.837C76.0457 122.837 75.6798 123.113 75.6798 123.454V128.054C75.6347 128.3 75.7951 128.551 76.1208 128.651L86.1583 131.872C86.2635 131.907 86.3738 131.917 86.479 131.917C86.5843 131.917 86.6945 131.907 86.7997 131.872L96.8372 128.651C97.0878 128.571 97.2381 128.4 97.2732 128.215C97.2782 128.2 97.2832 128.18 97.2882 128.165C97.2882 128.15 97.2932 128.135 97.2932 128.12L97.2983 128.115Z" fill="#FAED2E"/>
<path d="M125.617 36.0782L115.499 38.2302L123.843 30.9213C126.454 28.6388 123.843 24.6256 120.245 25.3881L98.421 30.0284C88.9248 25.1022 77.4691 22.2278 65.1415 22.2278C52.8139 22.2278 41.3582 25.1022 31.857 30.0284L10.0281 25.3831C6.43002 24.6156 3.81917 28.6287 6.43002 30.9162L14.7737 38.2252L4.65604 36.0732C1.05799 35.3056 -1.55286 39.3188 1.05799 41.6063L10.459 49.8433C7.36712 55.3614 5.65329 61.4363 5.65329 67.8222C5.65329 93.0048 32.2829 113.417 65.1365 113.417C97.9901 113.417 124.62 93.0048 124.62 67.8222C124.62 61.4363 122.906 55.3564 119.814 49.8383L129.215 41.6063C131.821 39.3238 129.215 35.3107 125.617 36.0732V36.0782Z" fill="#FFF6D6"/>
<path d="M71.3004 80.3782C71.3154 80.0622 71.2302 79.7361 71.0097 79.4853L65.7229 73.3803C65.3921 72.994 64.886 72.994 64.5502 73.3803L59.2634 79.4853C59.0479 79.7361 58.9577 80.0672 58.9728 80.3782C58.9176 80.6993 58.9377 81.0454 59.0529 81.3815L63.984 95.6583C64.425 96.9375 65.8381 96.9375 66.2841 95.6583L71.2152 81.3815C71.3304 81.0454 71.3505 80.6993 71.2954 80.3782H71.3004Z" fill="#924D22"/>
<path d="M99.7198 29.7525L98.4269 30.0284C88.9306 25.1022 77.475 22.2278 65.1474 22.2278C52.8198 22.2278 41.3641 25.1022 31.8628 30.0284L30.5649 29.7525L61.1083 51.1225C63.5338 52.8181 66.761 52.8181 69.1864 51.1225L99.7298 29.7525H99.7198Z" fill="#C38E4F"/>
<path d="M100.255 19.9905V8.36241C100.255 3.76233 96.0704 0 90.954 0H39.3334C34.2169 0 30.0326 3.76233 30.0326 8.36241V19.9905C27.6422 21.7914 26.3042 23.803 26.3042 25.93C26.3042 33.5951 43.6931 39.8055 65.1462 39.8055C86.5992 39.8055 103.988 33.5901 103.988 25.93C103.988 23.803 102.65 21.7914 100.26 19.9905H100.255Z" fill="#552F0F"/>
<path d="M94.9232 14.2464C95.6566 14.2464 96.2512 13.6221 96.2512 12.8519C96.2512 12.0817 95.6566 11.4573 94.9232 11.4573C94.1898 11.4573 93.5952 12.0817 93.5952 12.8519C93.5952 13.6221 94.1898 14.2464 94.9232 14.2464Z" fill="#FAED2E"/>
<path d="M94.9232 8.80379C95.6566 8.80379 96.2512 8.17941 96.2512 7.4092C96.2512 6.639 95.6566 6.01465 94.9232 6.01465C94.1898 6.01465 93.5952 6.639 93.5952 7.4092C93.5952 8.17941 94.1898 8.80379 94.9232 8.80379Z" fill="#FAED2E"/>
<path d="M100.256 18.8872H30.0239V19.9056H100.256V18.8872Z" fill="#FAED2E"/>
<path d="M100.18 16.3538H29.9473V17.3721H100.18V16.3538Z" fill="#FAED2E"/>
<path d="M61.8897 12.1145C62.6815 12.0342 63.4382 12.2148 64.0946 12.586C64.6609 12.0894 65.3675 11.7633 66.1592 11.6831C66.7756 11.6229 67.372 11.7182 67.9132 11.9389C68.3592 10.7651 69.2061 9.80692 70.2985 9.26514C69.9778 6.65659 67.5624 4.77042 64.8563 5.04632C62.1102 5.32223 60.1057 7.70504 60.3713 10.3738C60.4064 10.7149 60.4765 11.046 60.5767 11.362C60.8724 11.6028 61.138 11.8887 61.3585 12.2048C61.5289 12.1596 61.7043 12.1295 61.8847 12.1145H61.8897Z" stroke="#F8ED2F" stroke-miterlimit="10"/>
<path d="M63.2827 13.6247C63.2827 13.6247 65.5478 10.5848 68.6648 12.5311" stroke="#F8ED2F" stroke-miterlimit="10"/>
<path d="M68.0581 12.1601C68.0581 12.1601 69.6416 7.43957 74.242 9.39097" stroke="#F8ED2F" stroke-miterlimit="10"/>
<path d="M63.8044 12.8524C63.8044 12.8524 62.6167 12.0147 61.0783 12.4812C60.8828 12.5414 60.6874 12.6167 60.4819 12.722" stroke="#F8ED2F" stroke-miterlimit="10"/>
<path d="M56.8687 10.5393C56.8687 10.5393 59.9556 9.81698 61.5141 12.4406" stroke="#F8ED2F" stroke-miterlimit="10"/>
<path d="M16.6191 137.145C15.559 129.907 20.5655 123.188 27.8024 122.135C32.08 121.51 36.1759 123.007 39.0339 125.832L64.2128 144.599C66.5046 146.31 66.9845 149.579 65.2796 151.866C63.5711 154.156 60.3025 154.633 58.0142 152.925L54.4378 150.259C54.4997 151.43 54.1749 152.62 53.4236 153.623C51.7151 155.913 48.4466 156.39 46.1583 154.683L42.1747 151.713C42.0603 152.558 41.744 153.384 41.1987 154.109C39.4901 156.4 36.2216 156.876 33.9333 155.169L23.7445 147.576C23.2882 147.236 22.9038 146.826 22.5908 146.382C19.4733 144.382 17.203 141.097 16.6261 137.146L16.6191 137.145Z" fill="#FFF6D6"/>
<path d="M113.836 137.145C114.896 129.907 109.89 123.188 102.653 122.135C98.3751 121.51 94.2792 123.007 91.4211 125.832L66.2423 144.599C63.9504 146.31 63.4706 149.579 65.1755 151.866C66.884 154.156 70.1525 154.633 72.4409 152.925L76.0173 150.259C75.9554 151.43 76.2802 152.62 77.0314 153.623C78.74 155.913 82.0085 156.39 84.2968 154.683L88.2804 151.713C88.3948 152.558 88.7111 153.384 89.2564 154.109C90.965 156.4 94.2335 156.876 96.5218 155.169L106.711 147.576C107.167 147.236 107.551 146.826 107.864 146.382C110.982 144.382 113.252 141.097 113.829 137.146L113.836 137.145Z" fill="#FFF6D6"/>
<path d="M41.8697 77.1282C48.8164 77.1282 54.4478 72.5307 54.4478 66.8595C54.4478 61.1882 48.8164 56.5908 41.8697 56.5908C34.9229 56.5908 29.2915 61.1882 29.2915 66.8595C29.2915 72.5307 34.9229 77.1282 41.8697 77.1282Z" fill="#231F20"/>
<path d="M41.8687 75.7078C47.8578 75.7078 52.713 71.746 52.713 66.8588C52.713 61.9716 47.8578 58.0098 41.8687 58.0098C35.8796 58.0098 31.0244 61.9716 31.0244 66.8588C31.0244 71.746 35.8796 75.7078 41.8687 75.7078Z" fill="#FFCA3B"/>
<path d="M41.87 72.9843C46.0131 72.9843 49.3718 70.242 49.3718 66.8592C49.3718 63.4764 46.0131 60.7341 41.87 60.7341C37.7268 60.7341 34.3682 63.4764 34.3682 66.8592C34.3682 70.242 37.7268 72.9843 41.87 72.9843Z" fill="#231F20"/>
<path d="M44.8363 66.7535C45.6749 66.7535 46.3547 65.9607 46.3547 64.9827C46.3547 64.0047 45.6749 63.2119 44.8363 63.2119C43.9977 63.2119 43.3179 64.0047 43.3179 64.9827C43.3179 65.9607 43.9977 66.7535 44.8363 66.7535Z" fill="white"/>
<path d="M88.4087 77.1282C95.3555 77.1282 100.987 72.5307 100.987 66.8595C100.987 61.1882 95.3555 56.5908 88.4087 56.5908C81.462 56.5908 75.8306 61.1882 75.8306 66.8595C75.8306 72.5307 81.462 77.1282 88.4087 77.1282Z" fill="#231F20"/>
<path d="M88.4078 75.7078C94.3969 75.7078 99.252 71.746 99.252 66.8588C99.252 61.9716 94.3969 58.0098 88.4078 58.0098C82.4186 58.0098 77.5635 61.9716 77.5635 66.8588C77.5635 71.746 82.4186 75.7078 88.4078 75.7078Z" fill="#FFCA3B"/>
<path d="M88.4076 72.9843C92.5507 72.9843 95.9094 70.242 95.9094 66.8592C95.9094 63.4764 92.5507 60.7341 88.4076 60.7341C84.2644 60.7341 80.9058 63.4764 80.9058 66.8592C80.9058 70.242 84.2644 72.9843 88.4076 72.9843Z" fill="#231F20"/>
<path d="M91.3807 66.7535C92.2193 66.7535 92.8991 65.9607 92.8991 64.9827C92.8991 64.0047 92.2193 63.2119 91.3807 63.2119C90.5421 63.2119 89.8623 64.0047 89.8623 64.9827C89.8623 65.9607 90.5421 66.7535 91.3807 66.7535Z" fill="white"/>
</svg>
