<svg width="95" height="99" viewBox="0 0 95 99" fill="none" xmlns="http://www.w3.org/2000/svg">
<path d="M14.0755 98.114L1.05554 97.5957C0.224246 97.5634 -0.293959 96.6133 0.181065 95.9764L22.41 75.9714L38.7875 64.8083C39.2517 65.1538 31.0144 77.4612 30.6905 77.8931L15.6085 97.423C15.2523 97.8872 14.6909 98.1572 14.0647 98.1248L14.0755 98.114Z" fill="#C0CFF6"/>
<path d="M80.9243 98.114L93.9442 97.5957C94.7755 97.5634 95.2937 96.6133 94.8187 95.9764L72.5898 75.9714L56.2123 64.8083C55.748 65.1538 63.9854 77.4612 64.3092 77.8931L79.3912 97.423C79.7475 97.8872 80.3089 98.1572 80.9351 98.1248L80.9243 98.114Z" fill="#C0CFF6"/>
<path d="M22.3456 4.68555H72.6548C79.6614 4.68555 85.3509 10.375 85.3509 17.3816V69.062C85.3509 73.5855 81.6803 77.267 77.146 77.267H17.8436C13.3201 77.267 9.63867 73.5963 9.63867 69.062V17.3816C9.63867 10.375 15.3282 4.68555 22.3348 4.68555H22.3456Z" fill="#C0CFF6"/>
<path d="M26.4803 15.6111H68.5199C74.123 15.6111 78.6681 20.1562 78.6681 25.7593V42.5579C78.6681 45.7751 76.0555 48.3985 72.8275 48.3985H22.1619C18.9447 48.3985 16.3213 45.7859 16.3213 42.5579V25.7593C16.3213 20.1562 20.8664 15.6111 26.4695 15.6111H26.4803Z" fill="#FFFFF6"/>
<path d="M31.8567 0H63.1543C64.2123 0 65.0651 0.852887 65.0651 1.91089V4.68545H29.9458V1.91089C29.9458 0.852887 30.7987 0 31.8567 0Z" fill="#C0CFF6"/>
<path d="M25.1844 68.1769C28.8453 68.1769 31.8131 65.2091 31.8131 61.5482C31.8131 57.8872 28.8453 54.9194 25.1844 54.9194C21.5234 54.9194 18.5557 57.8872 18.5557 61.5482C18.5557 65.2091 21.5234 68.1769 25.1844 68.1769Z" fill="#809BE1"/>
<path d="M25.1841 66.8487C28.1117 66.8487 30.4849 64.4755 30.4849 61.5479C30.4849 58.6203 28.1117 56.2471 25.1841 56.2471C22.2565 56.2471 19.8833 58.6203 19.8833 61.5479C19.8833 64.4755 22.2565 66.8487 25.1841 66.8487Z" fill="#6FA0FF"/>
<path d="M25.1845 66.0392C27.6648 66.0392 29.6756 64.0284 29.6756 61.548C29.6756 59.0676 27.6648 57.0569 25.1845 57.0569C22.7041 57.0569 20.6934 59.0676 20.6934 61.548C20.6934 64.0284 22.7041 66.0392 25.1845 66.0392Z" fill="#FFFFF6"/>
<path d="M69.8148 68.1769C73.4757 68.1769 76.4435 65.2091 76.4435 61.5482C76.4435 57.8872 73.4757 54.9194 69.8148 54.9194C66.1538 54.9194 63.186 57.8872 63.186 61.5482C63.186 65.2091 66.1538 68.1769 69.8148 68.1769Z" fill="#809BE1"/>
<path d="M69.815 66.8487C72.7426 66.8487 75.1158 64.4755 75.1158 61.5479C75.1158 58.6203 72.7426 56.2471 69.815 56.2471C66.8874 56.2471 64.5142 58.6203 64.5142 61.5479C64.5142 64.4755 66.8874 66.8487 69.815 66.8487Z" fill="#6FA0FF"/>
<path d="M69.8149 66.0392C72.2952 66.0392 74.306 64.0284 74.306 61.548C74.306 59.0676 72.2952 57.0569 69.8149 57.0569C67.3345 57.0569 65.3237 59.0676 65.3237 61.548C65.3237 64.0284 67.3345 66.0392 69.8149 66.0392Z" fill="#FFFFF6"/>
<path d="M78.8194 86.627H14.0435V93.6552H78.8194V86.627Z" fill="#C0CFF6"/>
<path d="M74.134 78.8215H19.5063V82.7189H74.134V78.8215Z" fill="#C0CFF6"/>
</svg>
