<svg width="79" height="104" viewBox="0 0 79 104" fill="none" xmlns="http://www.w3.org/2000/svg">
<path d="M78.9854 0H0.985352V104H78.9854V0Z" fill="#FFD600"/>
<path d="M36.8203 54.7069L36.1482 54.3335C34.595 53.4524 32.8625 53.079 31.1151 53.2582C30.7119 53.303 30.3086 53.3628 29.9054 53.4673L29.1885 53.6465L28.7703 53.0342C28.2625 52.3024 27.6502 51.6452 26.9632 51.0777L26.7093 50.8836L26.6048 50.5849C26.321 49.6888 26.1119 48.7628 26.0223 47.8219C25.6638 44.2076 26.7691 40.683 29.1288 37.8602C31.4885 35.0525 34.8339 33.3051 38.5229 32.9317C42.167 32.5583 45.7514 33.5888 48.604 35.7992C51.4566 38.0245 53.2786 41.1907 53.7118 44.7303L53.8014 45.492L53.1144 45.8355C50.5605 47.105 48.5592 49.3303 47.4988 52.1232L47.1105 53.1537L46.0949 52.7355C44.8105 52.2128 43.4664 52.0186 42.0923 52.153C40.3449 52.3322 38.717 53.0342 37.3729 54.2141L36.7904 54.7218L36.8203 54.7069ZM31.9664 51.0478C33.5495 51.0478 35.1177 51.4063 36.5664 52.1082C38.1345 50.9134 39.9566 50.1965 41.8982 50.0024C43.2722 49.868 44.6164 50.0024 45.9306 50.3758C47.1404 47.7771 49.0819 45.6414 51.4865 44.2524C50.9787 41.5791 49.515 39.1895 47.3046 37.4869C44.8852 35.6051 41.8534 34.7538 38.7618 35.0674C35.6255 35.381 32.7878 36.8596 30.8015 39.2343C28.8151 41.594 27.8742 44.5661 28.1879 47.5829C28.2625 48.2699 28.3969 48.9569 28.5911 49.6141C29.1437 50.092 29.6664 50.6297 30.1294 51.2121C30.3982 51.1673 30.6671 51.1225 30.9359 51.1076C31.2943 51.0777 31.6378 51.0478 31.9963 51.0478H31.9664Z" fill="black"/>
<path d="M34.6849 55.5732L34.6401 55.5434C34.1472 55.17 34.0725 54.4382 34.5056 53.9901C35.2225 53.2434 36.4173 52.1382 38.0153 51.2869C40.3303 50.0324 43.8848 49.0765 48.0517 51.2272C48.5893 51.5109 48.7835 52.1979 48.4549 52.7057L48.425 52.7655C48.1413 53.2284 47.5439 53.3778 47.051 53.1388C41.7043 50.3908 37.5673 53.8856 36.0738 55.4687C35.7154 55.857 35.118 55.9018 34.6998 55.5882L34.6849 55.5732Z" fill="black"/>
<path d="M46.2747 52.3173H46.215C45.6325 52.0932 45.3487 51.4361 45.6026 50.8686C46.424 49.0764 48.4552 45.5218 52.2487 43.8043C54.9967 42.5647 58.1181 42.5498 61.5084 43.7595C62.0759 43.9686 62.3447 44.5959 62.1207 45.1485L62.0908 45.2082C61.8817 45.716 61.2993 45.9699 60.7766 45.7907C57.924 44.7751 55.3701 44.7602 53.1448 45.7608C50.0084 47.1647 48.261 50.2562 47.5591 51.7647C47.3351 52.2426 46.7825 52.4815 46.2747 52.3173Z" fill="black"/>
<path d="M36.343 53.6614C36.0592 54.0647 35.5215 54.1991 35.0735 54.0049C34.0131 53.527 31.9222 52.8848 29.4281 53.6017C29.2339 53.6614 29.0547 53.7212 28.8605 53.7958C28.3677 53.9751 27.8151 53.7958 27.5612 53.3179L27.5313 53.2432C27.2326 52.6906 27.4865 51.9887 28.0839 51.7647C28.308 51.6751 28.5469 51.6004 28.7709 51.5407C31.8923 50.6296 34.5358 51.4062 35.9696 52.0186C36.5819 52.2874 36.791 53.0491 36.3878 53.5867L36.343 53.6465V53.6614Z" fill="black"/>
<path d="M28.4125 52.7653C25.5151 48.7926 20.9748 48.8075 19.0482 49.0166C18.5255 49.0763 18.0326 48.7328 17.9132 48.2101V48.1503C17.7638 47.538 18.182 46.9406 18.8093 46.8809C19.7054 46.7913 21.0346 46.7315 22.5281 46.9556C25.7242 47.4484 28.3527 49.0166 30.1599 51.5107C30.5183 52.0036 30.3689 52.6906 29.8462 53.0042L29.7715 53.049C29.3086 53.3179 28.7261 53.1984 28.4125 52.7653Z" fill="black"/>
<path d="M40.1216 70.9412C25.7093 70.9412 13.9854 59.2172 13.9854 44.8049C13.9854 30.3927 25.7093 18.6687 40.1216 18.6687C54.5338 18.6687 66.2578 30.3927 66.2578 44.8049C66.2578 59.2172 54.5338 70.9412 40.1216 70.9412ZM40.1216 21.1031C27.0535 21.1031 16.4198 31.7368 16.4198 44.8049C16.4198 57.873 27.0535 68.5068 40.1216 68.5068C53.1897 68.5068 63.8234 57.873 63.8234 44.8049C63.8234 31.7368 53.1897 21.1031 40.1216 21.1031Z" fill="black"/>
<path d="M21.4185 85V79.9H22.4085V81.1H22.4585V85H21.4185ZM25.0385 85V81.72C25.0385 81.3667 24.9485 81.1033 24.7685 80.93C24.5951 80.7567 24.3351 80.67 23.9885 80.67C23.6885 80.67 23.4218 80.7367 23.1885 80.87C22.9618 81.0033 22.7818 81.1867 22.6485 81.42C22.5218 81.6533 22.4585 81.93 22.4585 82.25L22.3285 81.03C22.4951 80.65 22.7518 80.35 23.0985 80.13C23.4451 79.91 23.8485 79.8 24.3085 79.8C24.8551 79.8 25.2851 79.9533 25.5985 80.26C25.9118 80.5667 26.0685 80.9733 26.0685 81.48V85H25.0385ZM29.6829 85.1C29.1696 85.1 28.7163 84.9867 28.3229 84.76C27.9363 84.5333 27.6329 84.22 27.4129 83.82C27.1929 83.42 27.0829 82.96 27.0829 82.44C27.0829 81.9133 27.1896 81.4533 27.4029 81.06C27.6229 80.66 27.9296 80.35 28.3229 80.13C28.7163 79.91 29.1663 79.8 29.6729 79.8C30.1663 79.8 30.5929 79.9067 30.9529 80.12C31.3196 80.3267 31.5996 80.6167 31.7929 80.99C31.9929 81.3633 32.0929 81.8067 32.0929 82.32C32.0929 82.4 32.0896 82.4767 32.0829 82.55C32.0829 82.6167 32.0763 82.6867 32.0629 82.76H27.7829V81.98H31.3329L31.0729 82.29C31.0729 81.7433 30.9496 81.3267 30.7029 81.04C30.4563 80.7533 30.1129 80.61 29.6729 80.61C29.1996 80.61 28.8229 80.7733 28.5429 81.1C28.2696 81.42 28.1329 81.8667 28.1329 82.44C28.1329 83.02 28.2696 83.4733 28.5429 83.8C28.8229 84.1267 29.2096 84.29 29.7029 84.29C30.0029 84.29 30.2629 84.23 30.4829 84.11C30.7029 83.9833 30.8663 83.8 30.9729 83.56H31.9529C31.7863 84.04 31.5029 84.4167 31.1029 84.69C30.7096 84.9633 30.2363 85.1 29.6829 85.1ZM35.4061 85.1C34.8861 85.1 34.4294 84.9867 34.0361 84.76C33.6427 84.5267 33.3361 84.21 33.1161 83.81C32.8961 83.4033 32.7861 82.9433 32.7861 82.43C32.7861 81.91 32.8961 81.4533 33.1161 81.06C33.3427 80.6667 33.6494 80.36 34.0361 80.14C34.4294 79.9133 34.8861 79.8 35.4061 79.8C35.9327 79.8 36.3927 79.9133 36.7861 80.14C37.1794 80.36 37.4827 80.6667 37.6961 81.06C37.9161 81.4533 38.0261 81.91 38.0261 82.43C38.0261 82.9433 37.9161 83.4033 37.6961 83.81C37.4827 84.21 37.1794 84.5267 36.7861 84.76C36.3927 84.9867 35.9327 85.1 35.4061 85.1ZM35.4061 84.25C35.7194 84.25 35.9894 84.1733 36.2161 84.02C36.4494 83.8667 36.6327 83.6533 36.7661 83.38C36.8994 83.1067 36.9661 82.7867 36.9661 82.42C36.9661 81.8733 36.8194 81.4433 36.5261 81.13C36.2394 80.81 35.8661 80.65 35.4061 80.65C34.9527 80.65 34.5794 80.81 34.2861 81.13C33.9994 81.45 33.8561 81.88 33.8561 82.42C33.8561 82.7867 33.9194 83.1067 34.0461 83.38C34.1794 83.6533 34.3627 83.8667 34.5961 84.02C34.8361 84.1733 35.1061 84.25 35.4061 84.25ZM39.0943 85V79.9H40.0843V81.1H40.1343V85H39.0943ZM42.5343 85V81.67C42.5343 81.3233 42.4543 81.07 42.2943 80.91C42.1343 80.75 41.9043 80.67 41.6043 80.67C41.3243 80.67 41.0709 80.7367 40.8443 80.87C40.6243 80.9967 40.4509 81.1767 40.3243 81.41C40.1976 81.6367 40.1343 81.9067 40.1343 82.22L40.0043 81.03C40.1709 80.65 40.4209 80.35 40.7543 80.13C41.0943 79.91 41.4743 79.8 41.8943 79.8C42.4009 79.8 42.8043 79.9467 43.1043 80.24C43.4109 80.5333 43.5643 80.92 43.5643 81.4V85H42.5343ZM45.9743 85V81.67C45.9743 81.3233 45.8909 81.07 45.7243 80.91C45.5643 80.75 45.3343 80.67 45.0343 80.67C44.7609 80.67 44.5109 80.7367 44.2843 80.87C44.0643 80.9967 43.8876 81.1767 43.7543 81.41C43.6276 81.6367 43.5643 81.9067 43.5643 82.22L43.3543 81.03C43.5276 80.65 43.7876 80.35 44.1343 80.13C44.4876 79.91 44.8809 79.8 45.3143 79.8C45.8276 79.8 46.2376 79.95 46.5443 80.25C46.8509 80.5433 47.0043 80.9367 47.0043 81.43V85H45.9743ZM50.6009 85.1C50.0876 85.1 49.6342 84.9867 49.2409 84.76C48.8542 84.5333 48.5509 84.22 48.3309 83.82C48.1109 83.42 48.0009 82.96 48.0009 82.44C48.0009 81.9133 48.1076 81.4533 48.3209 81.06C48.5409 80.66 48.8476 80.35 49.2409 80.13C49.6342 79.91 50.0842 79.8 50.5909 79.8C51.0842 79.8 51.5109 79.9067 51.8709 80.12C52.2376 80.3267 52.5176 80.6167 52.7109 80.99C52.9109 81.3633 53.0109 81.8067 53.0109 82.32C53.0109 82.4 53.0076 82.4767 53.0009 82.55C53.0009 82.6167 52.9942 82.6867 52.9809 82.76H48.7009V81.98H52.2509L51.9909 82.29C51.9909 81.7433 51.8676 81.3267 51.6209 81.04C51.3742 80.7533 51.0309 80.61 50.5909 80.61C50.1176 80.61 49.7409 80.7733 49.4609 81.1C49.1876 81.42 49.0509 81.8667 49.0509 82.44C49.0509 83.02 49.1876 83.4733 49.4609 83.8C49.7409 84.1267 50.1276 84.29 50.6209 84.29C50.9209 84.29 51.1809 84.23 51.4009 84.11C51.6209 83.9833 51.7842 83.8 51.8909 83.56H52.8709C52.7042 84.04 52.4209 84.4167 52.0209 84.69C51.6276 84.9633 51.1542 85.1 50.6009 85.1ZM56.324 85.1C55.804 85.1 55.3474 84.9867 54.954 84.76C54.5607 84.5267 54.254 84.21 54.034 83.81C53.814 83.4033 53.704 82.9433 53.704 82.43C53.704 81.91 53.814 81.4533 54.034 81.06C54.2607 80.6667 54.5674 80.36 54.954 80.14C55.3474 79.9133 55.804 79.8 56.324 79.8C56.8507 79.8 57.3107 79.9133 57.704 80.14C58.0974 80.36 58.4007 80.6667 58.614 81.06C58.834 81.4533 58.944 81.91 58.944 82.43C58.944 82.9433 58.834 83.4033 58.614 83.81C58.4007 84.21 58.0974 84.5267 57.704 84.76C57.3107 84.9867 56.8507 85.1 56.324 85.1ZM56.324 84.25C56.6374 84.25 56.9074 84.1733 57.134 84.02C57.3674 83.8667 57.5507 83.6533 57.684 83.38C57.8174 83.1067 57.884 82.7867 57.884 82.42C57.884 81.8733 57.7374 81.4433 57.444 81.13C57.1574 80.81 56.784 80.65 56.324 80.65C55.8707 80.65 55.4974 80.81 55.204 81.13C54.9174 81.45 54.774 81.88 54.774 82.42C54.774 82.7867 54.8374 83.1067 54.964 83.38C55.0974 83.6533 55.2807 83.8667 55.514 84.02C55.754 84.1733 56.024 84.25 56.324 84.25Z" fill="black"/>
</svg>
