<svg width="580" height="5" viewBox="0 0 580 5" fill="none" xmlns="http://www.w3.org/2000/svg">
<path d="M0.240723 2.21022V2.26997C0.240723 3.49073 1.23036 4.48035 2.45112 4.48035L17.9536 4.48035C19.1744 4.48035 20.164 3.49073 20.164 2.26997V2.21022C20.164 0.989464 19.1744 -0.000149727 17.9536 -0.000149727L2.45112 -0.000149727C1.23036 -0.000149727 0.240723 0.989464 0.240723 2.21022Z" fill="#666666"/>
<path d="M29.5278 2.21022V2.26997C29.5278 3.49073 30.5175 4.48035 31.7382 4.48035L47.2407 4.48035C48.4615 4.48035 49.4511 3.49073 49.4511 2.26997V2.21022C49.4511 0.989464 48.4615 -0.000149727 47.2407 -0.000149727L31.7382 -0.000149727C30.5175 -0.000149727 29.5278 0.989464 29.5278 2.21022Z" fill="#666666"/>
<path d="M58.8159 2.21022V2.26997C58.8159 3.49073 59.8056 4.48035 61.0263 4.48035L76.5288 4.48035C77.7496 4.48035 78.7392 3.49073 78.7392 2.26997V2.21022C78.7392 0.989464 77.7496 -0.000149727 76.5288 -0.000149727L61.0263 -0.000149727C59.8056 -0.000149727 58.8159 0.989464 58.8159 2.21022Z" fill="#666666"/>
<path d="M88.1055 2.2112V2.27095C88.1055 3.49171 89.0951 4.48132 90.3159 4.48132L105.818 4.48132C107.039 4.48132 108.029 3.49171 108.029 2.27095V2.2112C108.029 0.99044 107.039 0.000826836 105.818 0.000826836L90.3159 0.000826836C89.0951 0.000826836 88.1055 0.99044 88.1055 2.2112Z" fill="#666666"/>
<path d="M118.028 2.21059V2.27034C118.028 3.4911 119.018 4.48071 120.239 4.48071L135.741 4.48071C136.962 4.48071 137.952 3.4911 137.952 2.27034V2.21059C137.952 0.98983 136.962 0.000216484 135.741 0.000216484L120.239 0.000216484C119.018 0.000216484 118.028 0.98983 118.028 2.21059Z" fill="#666666"/>
<path d="M147.315 2.21059V2.27034C147.315 3.4911 148.305 4.48071 149.526 4.48071L165.028 4.48071C166.249 4.48071 167.239 3.4911 167.239 2.27034V2.21059C167.239 0.98983 166.249 0.000216484 165.028 0.000216484L149.526 0.000216484C148.305 0.000216484 147.315 0.98983 147.315 2.21059Z" fill="#666666"/>
<path d="M176.604 2.21059V2.27034C176.604 3.4911 177.593 4.48071 178.814 4.48071L194.316 4.48071C195.537 4.48071 196.527 3.4911 196.527 2.27034V2.21059C196.527 0.98983 195.537 0.000216484 194.316 0.000216484L178.814 0.000216484C177.593 0.000216484 176.604 0.98983 176.604 2.21059Z" fill="#666666"/>
<path d="M205.891 2.21061V2.27032C205.891 3.49108 206.881 4.48071 208.102 4.48071L223.604 4.48071C224.825 4.48071 225.814 3.49108 225.814 2.27032V2.21061C225.814 0.989853 224.825 0.000216484 223.604 0.000216484L208.102 0.000216484C206.881 0.000216484 205.891 0.989853 205.891 2.21061Z" fill="#666666"/>
<path d="M235.178 2.21057V2.27032C235.178 3.49108 236.168 4.48071 237.389 4.48071L252.891 4.48071C254.112 4.48071 255.102 3.49108 255.102 2.27032V2.21057C255.102 0.989807 254.112 0.000216484 252.891 0.000216484L237.389 0.000216484C236.168 0.000216484 235.178 0.989807 235.178 2.21057Z" fill="#666666"/>
<path d="M264.465 2.21061V2.27032C264.465 3.49108 265.455 4.48071 266.676 4.48071L282.178 4.48071C283.399 4.48071 284.389 3.49108 284.389 2.27032V2.21061C284.389 0.989853 283.399 0.000216484 282.178 0.000216484L266.676 0.000216484C265.455 0.000216484 264.465 0.989853 264.465 2.21061Z" fill="#666666"/>
<path d="M293.754 2.21057V2.27032C293.754 3.49108 294.744 4.48071 295.964 4.48071L311.467 4.48071C312.688 4.48071 313.677 3.49108 313.677 2.27032V2.21057C313.677 0.989807 312.688 0.000216484 311.467 0.000216484L295.964 0.000216484C294.744 0.000216484 293.754 0.989807 293.754 2.21057Z" fill="#666666"/>
<path d="M323.624 2.21057V2.27032C323.624 3.49108 324.613 4.48071 325.834 4.48071L341.336 4.48071C342.557 4.48071 343.547 3.49108 343.547 2.27032V2.21057C343.547 0.989807 342.557 0.000216484 341.336 0.000216484L325.834 0.000216484C324.613 0.000216484 323.624 0.989807 323.624 2.21057Z" fill="#666666"/>
<path d="M353.547 2.21059V2.27034C353.547 3.4911 354.537 4.48071 355.757 4.48071L371.26 4.48071C372.481 4.48071 373.47 3.4911 373.47 2.27034V2.21059C373.47 0.98983 372.481 0.000216484 371.26 0.000216484L355.757 0.000216484C354.537 0.000216484 353.547 0.98983 353.547 2.21059Z" fill="#666666"/>
<path d="M382.834 2.21059V2.27034C382.834 3.4911 383.824 4.48071 385.044 4.48071L400.547 4.48071C401.768 4.48071 402.757 3.4911 402.757 2.27034V2.21059C402.757 0.98983 401.768 0.000216484 400.547 0.000216484L385.044 0.000216484C383.824 0.000216484 382.834 0.98983 382.834 2.21059Z" fill="#666666"/>
<path d="M412.122 2.21059V2.27034C412.122 3.4911 413.112 4.48071 414.332 4.48071L429.835 4.48071C431.056 4.48071 432.045 3.4911 432.045 2.27034V2.21059C432.045 0.98983 431.056 0.000216484 429.835 0.000216484L414.332 0.000216484C413.112 0.000216484 412.122 0.98983 412.122 2.21059Z" fill="#666666"/>
<path d="M441.41 2.21061V2.27032C441.41 3.49108 442.399 4.48071 443.62 4.48071L459.123 4.48071C460.343 4.48071 461.333 3.49108 461.333 2.27032V2.21061C461.333 0.989853 460.343 0.000216484 459.123 0.000216484L443.62 0.000216484C442.399 0.000216484 441.41 0.989853 441.41 2.21061Z" fill="#666666"/>
<path d="M470.697 2.21057V2.27032C470.697 3.49108 471.686 4.48071 472.907 4.48071L488.41 4.48071C489.63 4.48071 490.62 3.49108 490.62 2.27032V2.21057C490.62 0.989807 489.63 0.000216484 488.41 0.000216484L472.907 0.000216484C471.686 0.000216484 470.697 0.989807 470.697 2.21057Z" fill="#666666"/>
<path d="M499.984 2.21061V2.27032C499.984 3.49108 500.974 4.48071 502.194 4.48071L517.697 4.48071C518.918 4.48071 519.907 3.49108 519.907 2.27032V2.21061C519.907 0.989853 518.918 0.000216484 517.697 0.000216484L502.194 0.000216484C500.974 0.000216484 499.984 0.989853 499.984 2.21061Z" fill="#666666"/>
<path d="M529.272 2.21057V2.27032C529.272 3.49108 530.262 4.48071 531.483 4.48071L546.985 4.48071C548.206 4.48071 549.196 3.49108 549.196 2.27032V2.21057C549.196 0.989807 548.206 0.000216484 546.985 0.000216484L531.483 0.000216484C530.262 0.000216484 529.272 0.989807 529.272 2.21057Z" fill="#666666"/>
<path d="M559.142 2.21057V2.27032C559.142 3.49108 560.132 4.48071 561.352 4.48071L576.855 4.48071C578.076 4.48071 579.065 3.49108 579.065 2.27032V2.21057C579.065 0.989807 578.076 0.000216484 576.855 0.000216484L561.352 0.000216484C560.132 0.000216484 559.142 0.989807 559.142 2.21057Z" fill="#666666"/>
</svg>
