<svg width="247" height="128" viewBox="0 0 247 128" fill="none" xmlns="http://www.w3.org/2000/svg">
<path d="M105.9 121.558L102.211 119.452C93.6087 114.538 83.9308 112.462 74.238 113.433C71.9978 113.657 69.7575 114.06 67.5471 114.613L63.5446 115.614L61.1848 112.223C58.3323 108.131 54.957 104.472 51.1336 101.381L49.7596 100.261L49.207 98.5729C47.594 93.5846 46.5037 88.4171 45.981 83.1898C43.9648 63.1321 50.1031 43.4926 63.2757 27.8557C76.4036 12.2785 94.9528 2.57078 115.488 0.494816C135.74 -1.53634 155.634 4.12399 171.495 16.4304C187.385 28.7667 197.467 46.39 199.886 66.0445L200.409 70.2561L196.6 72.138C182.397 79.1574 171.315 91.5833 165.416 107.116L163.236 112.836L157.56 110.521C150.406 107.609 142.909 106.518 135.292 107.28C125.599 108.251 116.549 112.223 109.081 118.735L105.885 121.528L105.9 121.558ZM78.9127 101.261C87.7243 101.261 96.4015 103.262 104.452 107.146C113.129 100.544 123.314 96.4969 134.112 95.4216C141.729 94.6599 149.242 95.3619 156.515 97.5274C163.251 83.0405 173.989 71.212 187.4 63.5354C184.578 48.6751 176.438 35.4277 164.162 25.9142C150.735 15.4895 133.873 10.6954 116.683 12.4279C99.2392 14.1753 83.5276 22.4044 72.416 35.592C61.3491 48.7199 56.1816 65.223 57.8693 82.0249C58.2576 85.8483 58.9894 89.6268 60.0796 93.3008C63.1861 95.9742 66.0387 98.9462 68.5926 102.172C70.0711 101.903 71.5497 101.694 73.0283 101.545C74.9848 101.351 76.9413 101.246 78.8977 101.246L78.9127 101.261Z" fill="#EEEEDE"/>
<path d="M94.011 126.397L93.7571 126.202C90.9792 124.127 90.6208 120.094 93.0104 117.57C96.998 113.388 103.674 107.31 112.501 102.531C125.375 95.5708 145.133 90.254 168.253 102.202C171.255 103.755 172.3 107.564 170.508 110.431L170.314 110.73C168.701 113.314 165.385 114.165 162.682 112.776C132.932 97.4974 109.991 116.898 101.673 125.725C99.6565 127.86 96.3558 128.144 93.9961 126.382L94.011 126.397Z" fill="#EEEEDE"/>
<path d="M158.456 108.311L158.098 108.191C154.827 107.086 153.244 103.397 154.692 100.261C159.263 90.2991 170.583 70.5102 191.642 61.0265C206.95 54.1265 224.23 54.0668 243.078 60.8174C246.214 61.9375 247.752 65.4771 246.453 68.5388L246.319 68.8674C245.124 71.6901 241.943 73.094 239.06 72.0634C223.244 66.418 208.996 66.3433 196.645 71.8842C179.201 79.6952 169.463 96.9003 165.595 105.264C164.355 107.937 161.294 109.237 158.501 108.296L158.456 108.311Z" fill="#EEEEDE"/>
<path d="M103.241 115.793C101.628 118.003 98.7009 118.795 96.2068 117.675C90.3224 115.046 78.688 111.417 64.8134 115.465C63.753 115.778 62.6927 116.122 61.6472 116.51C58.8992 117.526 55.8226 116.435 54.4336 113.852L54.2395 113.478C52.5668 110.387 54.0155 106.504 57.3161 105.294C58.6005 104.831 59.8849 104.413 61.1693 104.024C78.5387 98.9763 93.2347 103.248 101.165 106.713C104.555 108.191 105.691 112.433 103.51 115.435L103.256 115.793H103.241Z" fill="#EEEEDE"/>
<path d="M59.2278 110.82C43.1429 88.7308 17.9326 88.7905 7.1794 89.9853C4.25214 90.3139 1.54891 88.4022 0.876836 85.5347L0.802157 85.221C0.0106024 81.8159 2.38527 78.5003 5.85019 78.1419C10.8086 77.6191 18.1865 77.3204 26.5202 78.5899C44.3078 81.3081 58.8545 90.0152 68.9505 103.905C70.9369 106.638 70.0706 110.491 67.1732 112.224L66.7999 112.448C64.246 113.971 60.9752 113.239 59.2278 110.835V110.82Z" fill="#EEEEDE"/>
</svg>
