<svg width="158" height="160" viewBox="0 0 158 160" fill="none" xmlns="http://www.w3.org/2000/svg">
<path d="M27.5899 11.7891V37.1208C27.5899 47.1886 37.5669 54.2263 47.0573 50.8524L59.6194 46.3881C64.0329 44.8215 65.5663 39.3554 62.6076 35.726L39.6261 7.51151C35.596 2.56599 27.585 5.41445 27.585 11.7891H27.5899Z" fill="currentColor"/>
<path d="M131.1 11.7891V37.1208C131.1 47.1886 121.123 54.2263 111.632 50.8524L99.0702 46.3881C94.6568 44.8215 93.1234 39.3554 96.0821 35.726L119.064 7.51151C123.094 2.56599 131.105 5.41445 131.105 11.7891H131.1Z" fill="currentColor"/>
<path d="M107.622 129.018L101.651 117.688C100.663 105.445 91.2953 95.8433 79.8783 95.8433C69.3165 95.8433 60.5043 104.06 58.4597 114.982L51.063 129.013C49.8392 131.341 50.7386 134.244 53.0682 135.471C55.3978 136.694 58.3025 135.795 59.5312 133.468L60.6763 131.297C62.657 135.28 65.6402 138.575 69.2526 140.785L69.8325 149.522C70.0045 152.145 72.2997 154.148 74.9242 153.976C77.5487 153.805 79.5539 151.516 79.3819 148.889L79.0428 143.791C79.3229 143.801 79.6031 143.815 79.8832 143.815C80.1634 143.815 80.4484 143.806 80.7286 143.791L80.3845 148.957C80.2125 151.58 82.2177 153.868 84.8422 154.045C87.4667 154.217 89.757 152.213 89.9339 149.591L90.5188 140.785C93.8166 138.767 96.5885 135.84 98.5544 132.313L99.1638 133.468C100.388 135.795 103.297 136.694 105.627 135.471C107.956 134.248 108.856 131.341 107.632 129.013L107.622 129.018Z" fill="currentColor"/>
<path d="M28.0049 11.7891V37.1208C28.0049 47.1886 37.9318 54.2263 47.3745 50.8524L59.8736 46.3881C64.2649 44.8215 65.7906 39.3554 62.8468 35.726L39.9807 7.51151C35.9708 2.56599 28 5.41445 28 11.7891H28.0049Z" fill="white" fill-opacity="0.2"/>
<path d="M130.995 11.7891V37.1208C130.995 47.1886 121.068 54.2263 111.625 50.8524L99.1264 46.3881C94.7351 44.8215 93.2094 39.3554 96.1533 35.726L119.019 7.51151C123.029 2.56599 131 5.41445 131 11.7891H130.995Z" fill="white" fill-opacity="0.2"/>
<path d="M79.3868 109.673C109.424 109.673 133.774 88.9801 133.774 63.4541C133.774 37.9282 109.424 17.2354 79.3868 17.2354C49.3498 17.2354 25 37.9282 25 63.4541C25 88.9801 49.3498 109.673 79.3868 109.673Z" fill="currentColor"/>
<path d="M63.5279 62.8025C64.6506 57.1824 61.8682 51.8883 57.3132 50.9779C52.7582 50.0675 48.1556 53.8855 47.0328 59.5056C45.9101 65.1257 48.6925 70.4197 53.2475 71.3301C57.8025 72.2405 62.4052 68.4226 63.5279 62.8025Z" fill="black"/>
<path d="M59.9167 57.9406C60.2121 56.4617 59.4945 55.0716 58.3139 54.8356C57.1332 54.5996 55.9367 55.6072 55.6412 57.086C55.3458 58.5648 56.0634 59.955 57.244 60.1909C58.4247 60.4269 59.6212 59.4194 59.9167 57.9406Z" fill="white"/>
<path d="M52.7282 59.5778C52.9301 58.5671 52.4406 57.6172 51.6349 57.4562C50.8292 57.2951 50.0124 57.9839 49.8105 58.9947C49.6086 60.0054 50.0981 60.9553 50.9038 61.1163C51.7095 61.2773 52.5263 60.5885 52.7282 59.5778Z" fill="white"/>
<path d="M104.313 71.0006C108.868 70.0902 111.651 64.7961 110.528 59.1761C109.405 53.556 104.803 49.738 100.248 50.6484C95.6925 51.5588 92.9101 56.8529 94.0328 62.473C95.1556 68.0931 99.7582 71.911 104.313 71.0006Z" fill="black"/>
<path d="M100.318 59.8587C101.499 59.6227 102.217 58.2326 101.921 56.7538C101.626 55.275 100.429 54.2674 99.2487 54.5034C98.068 54.7394 97.3504 56.1295 97.6459 57.6083C97.9413 59.0872 99.1379 60.0947 100.318 59.8587Z" fill="white"/>
<path d="M106.655 60.7801C107.461 60.6191 107.95 59.6692 107.748 58.6585C107.546 57.6478 106.729 56.959 105.924 57.12C105.118 57.2811 104.629 58.231 104.83 59.2417C105.032 60.2524 105.849 60.9412 106.655 60.7801Z" fill="white"/>
<path d="M79 100C88.9411 100 97 93.0604 97 84.5C97 75.9396 88.9411 69 79 69C69.0589 69 61 75.9396 61 84.5C61 93.0604 69.0589 100 79 100Z" fill="white" fill-opacity="0.2"/>
<path d="M78.756 79.6845C82.4872 79.6845 85.5119 77.9431 85.5119 75.7949C85.5119 73.6467 82.4872 71.9053 78.756 71.9053C75.0247 71.9053 72 73.6467 72 75.7949C72 77.9431 75.0247 79.6845 78.756 79.6845Z" fill="black"/>
<path d="M78.9328 74.9258H78.5792C77.622 74.9258 76.8461 75.7019 76.8461 76.6594V85.4995C76.8461 86.4569 77.622 87.2331 78.5792 87.2331H78.9328C79.89 87.2331 80.6659 86.4569 80.6659 85.4995V76.6594C80.6659 75.7019 79.89 74.9258 78.9328 74.9258Z" fill="black"/>
<path d="M80.8917 75.7951C81.9031 75.7951 82.723 75.2388 82.723 74.5526C82.723 73.8664 81.9031 73.3101 80.8917 73.3101C79.8802 73.3101 79.0603 73.8664 79.0603 74.5526C79.0603 75.2388 79.8802 75.7951 80.8917 75.7951Z" fill="white"/>
</svg>
