<svg width="158" height="160" viewBox="0 0 158 160" fill="none" xmlns="http://www.w3.org/2000/svg">
<path d="M27.5899 11.7891V37.1208C27.5899 47.1886 37.5669 54.2263 47.0573 50.8524L59.6194 46.3881C64.0329 44.8215 65.5663 39.3554 62.6076 35.726L39.6261 7.51151C35.596 2.56599 27.585 5.41445 27.585 11.7891H27.5899Z" fill="currentColor"/>
<path d="M131.1 11.7891V37.1208C131.1 47.1886 121.123 54.2263 111.632 50.8524L99.0702 46.3881C94.6568 44.8215 93.1234 39.3554 96.0821 35.726L119.064 7.51151C123.094 2.56599 131.105 5.41445 131.105 11.7891H131.1Z" fill="currentColor"/>
<path d="M107.622 129.018L101.651 117.688C100.663 105.445 91.2953 95.8433 79.8783 95.8433C69.3165 95.8433 60.5043 104.06 58.4597 114.982L51.063 129.013C49.8392 131.341 50.7386 134.244 53.0682 135.471C55.3978 136.694 58.3025 135.795 59.5312 133.468L60.6763 131.297C62.657 135.28 65.6402 138.575 69.2526 140.785L69.8325 149.522C70.0045 152.145 72.2997 154.148 74.9242 153.976C77.5487 153.805 79.5539 151.516 79.3819 148.889L79.0428 143.791C79.3229 143.801 79.6031 143.815 79.8832 143.815C80.1634 143.815 80.4484 143.806 80.7286 143.791L80.3845 148.957C80.2125 151.58 82.2177 153.868 84.8422 154.045C87.4667 154.217 89.757 152.213 89.9339 149.591L90.5188 140.785C93.8166 138.767 96.5885 135.84 98.5544 132.313L99.1638 133.468C100.388 135.795 103.297 136.694 105.627 135.471C107.956 134.248 108.856 131.341 107.632 129.013L107.622 129.018Z" fill="currentColor"/>
<path d="M79.3868 109.673C109.424 109.673 133.774 88.9801 133.774 63.4541C133.774 37.9282 109.424 17.2354 79.3868 17.2354C49.3498 17.2354 25 37.9282 25 63.4541C25 88.9801 49.3498 109.673 79.3868 109.673Z" fill="currentColor"/>
<path d="M129.001 44.6935C130.314 42.5228 131.085 39.964 131.085 37.1696V11.8379C131.085 5.46326 123.074 2.61482 119.044 7.56034L106.192 23.3399C100.044 20.3637 93.1432 18.3845 85.7957 17.6478C85.7957 17.6478 85.7957 17.6478 85.7957 17.6429C85.6089 17.6233 85.4172 17.6085 85.2305 17.5938C84.9798 17.5692 84.7292 17.5496 84.4785 17.5299C84.1541 17.5054 83.8248 17.4809 83.4955 17.4612C83.2646 17.4465 83.0336 17.4317 82.7976 17.417C82.3602 17.3924 81.9179 17.3777 81.4756 17.363C81.3527 17.363 81.2298 17.3531 81.107 17.3482C80.5369 17.3335 79.9618 17.3237 79.3868 17.3237C79.377 17.3237 79.3671 17.3237 79.3573 17.3237C79.3475 17.3237 79.3377 17.3237 79.3278 17.3237C78.7528 17.3237 78.1778 17.3335 77.6077 17.3482C77.4848 17.3482 77.3619 17.3581 77.239 17.363C76.7967 17.3777 76.3544 17.3924 75.917 17.417C75.686 17.4317 75.455 17.4465 75.2191 17.4612C74.8898 17.4809 74.5654 17.5054 74.2361 17.5299C73.9855 17.5496 73.7348 17.5741 73.4842 17.5938C73.2974 17.6134 73.1057 17.6233 72.919 17.6429C72.919 17.6429 72.919 17.6429 72.919 17.6478C65.5714 18.3894 58.6711 20.3686 52.5227 23.3399L39.6706 7.56034C35.6405 2.61482 27.6294 5.46326 27.6294 11.8379V37.1696C27.6294 39.964 28.401 42.5228 29.7133 44.6935C26.6858 50.4494 25 56.8289 25 63.5425C25 73.1339 28.4354 82.0378 34.3184 89.4242C53.6433 86.7034 70.0733 75.6583 79.3573 60.2864C88.6413 75.6583 105.071 86.7034 124.396 89.4242C130.279 82.0378 133.715 73.1339 133.715 63.5425C133.715 56.8289 132.029 50.4494 129.001 44.6935Z" fill="white" fill-opacity="0.2"/>
<path d="M63.5279 63.8025C64.6506 58.1824 61.8682 52.8883 57.3132 51.9779C52.7582 51.0675 48.1556 54.8855 47.0328 60.5056C45.9101 66.1257 48.6925 71.4197 53.2475 72.3301C57.8025 73.2405 62.4052 69.4226 63.5279 63.8025Z" fill="black"/>
<path d="M59.9167 58.9406C60.2121 57.4617 59.4945 56.0716 58.3139 55.8356C57.1332 55.5996 55.9367 56.6072 55.6412 58.086C55.3458 59.5648 56.0634 60.955 57.244 61.1909C58.4247 61.4269 59.6212 60.4194 59.9167 58.9406Z" fill="white"/>
<path d="M52.7282 60.5778C52.9301 59.5671 52.4406 58.6172 51.6349 58.4562C50.8292 58.2951 50.0124 58.9839 49.8105 59.9947C49.6086 61.0054 50.0981 61.9553 50.9038 62.1163C51.7095 62.2773 52.5263 61.5885 52.7282 60.5778Z" fill="white"/>
<path d="M104.313 72.0006C108.868 71.0902 111.651 65.7961 110.528 60.1761C109.405 54.556 104.803 50.738 100.248 51.6484C95.6925 52.5588 92.9101 57.8529 94.0328 63.473C95.1556 69.0931 99.7582 72.911 104.313 72.0006Z" fill="black"/>
<path d="M100.318 60.8587C101.499 60.6227 102.217 59.2326 101.921 57.7538C101.626 56.275 100.429 55.2674 99.2487 55.5034C98.068 55.7394 97.3504 57.1295 97.6459 58.6083C97.9413 60.0872 99.1379 61.0947 100.318 60.8587Z" fill="white"/>
<path d="M106.655 61.7801C107.461 61.6191 107.95 60.6692 107.748 59.6585C107.546 58.6478 106.729 57.959 105.924 58.12C105.118 58.2811 104.629 59.231 104.83 60.2417C105.032 61.2524 105.849 61.9412 106.655 61.7801Z" fill="white"/>
<path d="M79 101C88.9411 101 97 94.0604 97 85.5C97 76.9396 88.9411 70 79 70C69.0589 70 61 76.9396 61 85.5C61 94.0604 69.0589 101 79 101Z" fill="white" fill-opacity="0.2"/>
<path d="M78.756 80.6845C82.4872 80.6845 85.5119 78.9431 85.5119 76.7949C85.5119 74.6467 82.4872 72.9053 78.756 72.9053C75.0247 72.9053 72 74.6467 72 76.7949C72 78.9431 75.0247 80.6845 78.756 80.6845Z" fill="black"/>
<path d="M78.9328 75.9258H78.5792C77.622 75.9258 76.8461 76.7019 76.8461 77.6594V86.4995C76.8461 87.4569 77.622 88.2331 78.5792 88.2331H78.9328C79.89 88.2331 80.6659 87.4569 80.6659 86.4995V77.6594C80.6659 76.7019 79.89 75.9258 78.9328 75.9258Z" fill="black"/>
<path d="M80.8917 76.7951C81.9031 76.7951 82.723 76.2388 82.723 75.5526C82.723 74.8664 81.9031 74.3101 80.8917 74.3101C79.8802 74.3101 79.0603 74.8664 79.0603 75.5526C79.0603 76.2388 79.8802 76.7951 80.8917 76.7951Z" fill="white"/>
</svg>
