<svg width="158" height="160" viewBox="0 0 158 160" fill="none" xmlns="http://www.w3.org/2000/svg">
<path d="M27.5899 11.7891V37.1208C27.5899 47.1886 37.5669 54.2263 47.0573 50.8524L59.6194 46.3881C64.0329 44.8215 65.5663 39.3554 62.6076 35.726L39.6261 7.51151C35.596 2.56599 27.585 5.41445 27.585 11.7891H27.5899Z" fill="currentColor"/>
<path d="M131.1 11.7891V37.1208C131.1 47.1886 121.123 54.2263 111.632 50.8524L99.0702 46.3881C94.6568 44.8215 93.1234 39.3554 96.0821 35.726L119.064 7.51151C123.094 2.56599 131.105 5.41445 131.105 11.7891H131.1Z" fill="currentColor"/>
<path d="M107.622 129.018L101.651 117.688C100.663 105.445 91.2953 95.8433 79.8783 95.8433C69.3165 95.8433 60.5043 104.06 58.4597 114.982L51.063 129.013C49.8392 131.341 50.7386 134.244 53.0682 135.471C55.3978 136.694 58.3025 135.795 59.5312 133.468L60.6763 131.297C62.657 135.28 65.6402 138.575 69.2526 140.785L69.8325 149.522C70.0045 152.145 72.2997 154.148 74.9242 153.976C77.5487 153.805 79.5539 151.516 79.3819 148.889L79.0428 143.791C79.3229 143.801 79.6031 143.815 79.8832 143.815C80.1634 143.815 80.4484 143.806 80.7286 143.791L80.3845 148.957C80.2125 151.58 82.2177 153.868 84.8422 154.045C87.4667 154.217 89.757 152.213 89.9339 149.591L90.5188 140.785C93.8166 138.767 96.5885 135.84 98.5544 132.313L99.1638 133.468C100.388 135.795 103.297 136.694 105.627 135.471C107.956 134.248 108.856 131.341 107.632 129.013L107.622 129.018Z" fill="currentColor"/>
<path d="M79.3868 109.673C109.424 109.673 133.774 88.9801 133.774 63.4541C133.774 37.9282 109.424 17.2354 79.3868 17.2354C49.3498 17.2354 25 37.9282 25 63.4541C25 88.9801 49.3498 109.673 79.3868 109.673Z" fill="currentColor"/>
<path d="M64.8387 60.6689C68.0634 60.6689 70.6775 58.0567 70.6775 54.8344C70.6775 51.6122 68.0634 49 64.8387 49C61.6141 49 59 51.6122 59 54.8344C59 58.0567 61.6141 60.6689 64.8387 60.6689Z" fill="white" fill-opacity="0.2"/>
<path d="M94.0029 60.6689C97.2276 60.6689 99.8417 58.0567 99.8417 54.8344C99.8417 51.6122 97.2276 49 94.0029 49C90.7783 49 88.1642 51.6122 88.1642 54.8344C88.1642 58.0567 90.7783 60.6689 94.0029 60.6689Z" fill="white" fill-opacity="0.2"/>
<path d="M63.5279 63.8025C64.6506 58.1824 61.8682 52.8883 57.3132 51.9779C52.7582 51.0675 48.1556 54.8855 47.0328 60.5056C45.9101 66.1257 48.6925 71.4197 53.2475 72.3301C57.8025 73.2405 62.4052 69.4226 63.5279 63.8025Z" fill="black"/>
<path d="M59.9167 58.9406C60.2121 57.4617 59.4945 56.0716 58.3139 55.8356C57.1332 55.5996 55.9367 56.6072 55.6412 58.086C55.3458 59.5648 56.0634 60.955 57.244 61.1909C58.4247 61.4269 59.6212 60.4194 59.9167 58.9406Z" fill="white"/>
<path d="M52.7282 60.5778C52.9301 59.5671 52.4406 58.6172 51.6349 58.4562C50.8292 58.2951 50.0124 58.9839 49.8105 59.9947C49.6086 61.0054 50.0981 61.9553 50.9038 62.1163C51.7095 62.2773 52.5263 61.5885 52.7282 60.5778Z" fill="white"/>
<path d="M104.313 72.0006C108.868 71.0902 111.651 65.7961 110.528 60.1761C109.405 54.556 104.803 50.738 100.248 51.6484C95.6925 52.5588 92.9101 57.8529 94.0328 63.473C95.1556 69.0931 99.7582 72.911 104.313 72.0006Z" fill="black"/>
<path d="M100.318 60.8587C101.499 60.6227 102.217 59.2326 101.921 57.7538C101.626 56.275 100.429 55.2674 99.2487 55.5034C98.068 55.7394 97.3504 57.1295 97.6459 58.6083C97.9413 60.0872 99.1379 61.0947 100.318 60.8587Z" fill="white"/>
<path d="M106.655 61.7801C107.461 61.6191 107.95 60.6692 107.748 59.6585C107.546 58.6478 106.729 57.959 105.924 58.12C105.118 58.2811 104.629 59.231 104.83 60.2417C105.032 61.2524 105.849 61.9412 106.655 61.7801Z" fill="white"/>
<path d="M79 101C88.9411 101 97 94.0604 97 85.5C97 76.9396 88.9411 70 79 70C69.0589 70 61 76.9396 61 85.5C61 94.0604 69.0589 101 79 101Z" fill="white" fill-opacity="0.2"/>
<path d="M78.756 80.6845C82.4872 80.6845 85.5119 78.9431 85.5119 76.7949C85.5119 74.6467 82.4872 72.9053 78.756 72.9053C75.0247 72.9053 72 74.6467 72 76.7949C72 78.9431 75.0247 80.6845 78.756 80.6845Z" fill="black"/>
<path d="M78.9328 75.9258H78.5792C77.622 75.9258 76.8461 76.7019 76.8461 77.6594V86.4995C76.8461 87.4569 77.622 88.2331 78.5792 88.2331H78.9328C79.89 88.2331 80.6659 87.4569 80.6659 86.4995V77.6594C80.6659 76.7019 79.89 75.9258 78.9328 75.9258Z" fill="black"/>
<path d="M80.8917 76.7951C81.9031 76.7951 82.723 76.2388 82.723 75.5526C82.723 74.8664 81.9031 74.3101 80.8917 74.3101C79.8802 74.3101 79.0603 74.8664 79.0603 75.5526C79.0603 76.2388 79.8802 76.7951 80.8917 76.7951Z" fill="white"/>
</svg>
