<svg width="158" height="160" viewBox="0 0 158 160" fill="none" xmlns="http://www.w3.org/2000/svg">
<path d="M27.5899 11.7891V37.1208C27.5899 47.1886 37.5669 54.2263 47.0573 50.8524L59.6194 46.3881C64.0329 44.8215 65.5663 39.3554 62.6076 35.726L39.6261 7.51151C35.596 2.56599 27.585 5.41445 27.585 11.7891H27.5899Z" fill="currentColor"/>
<path d="M131.1 11.7891V37.1208C131.1 47.1886 121.123 54.2263 111.632 50.8524L99.0702 46.3881C94.6568 44.8215 93.1234 39.3554 96.0821 35.726L119.064 7.51151C123.094 2.56599 131.105 5.41445 131.105 11.7891H131.1Z" fill="currentColor"/>
<path d="M107.622 129.018L101.651 117.688C100.663 105.445 91.2953 95.8433 79.8783 95.8433C69.3165 95.8433 60.5043 104.06 58.4597 114.982L51.063 129.013C49.8392 131.341 50.7386 134.244 53.0682 135.471C55.3978 136.694 58.3025 135.795 59.5312 133.468L60.6763 131.297C62.657 135.28 65.6402 138.575 69.2526 140.785L69.8325 149.522C70.0045 152.145 72.2997 154.148 74.9242 153.976C77.5487 153.805 79.5539 151.516 79.3819 148.889L79.0428 143.791C79.3229 143.801 79.6031 143.815 79.8832 143.815C80.1634 143.815 80.4484 143.806 80.7286 143.791L80.3845 148.957C80.2125 151.58 82.2177 153.868 84.8422 154.045C87.4667 154.217 89.757 152.213 89.9339 149.591L90.5188 140.785C93.8166 138.767 96.5885 135.84 98.5544 132.313L99.1638 133.468C100.388 135.795 103.297 136.694 105.627 135.471C107.956 134.248 108.856 131.341 107.632 129.013L107.622 129.018Z" fill="currentColor"/>
<path d="M79.3868 109.673C109.424 109.673 133.774 88.9801 133.774 63.4541C133.774 37.9282 109.424 17.2354 79.3868 17.2354C49.3498 17.2354 25 37.9282 25 63.4541C25 88.9801 49.3498 109.673 79.3868 109.673Z" fill="currentColor"/>
<path d="M64.2326 65.3327C65.3565 59.7126 62.5713 54.4186 58.0117 53.5082C53.4522 52.5978 48.8449 56.4157 47.721 62.0358C46.5972 67.6559 49.3824 72.95 53.9419 73.8604C58.5015 74.7708 63.1088 70.9528 64.2326 65.3327Z" fill="black"/>
<path d="M60.6178 60.4708C60.9135 58.992 60.1952 57.6019 59.0134 57.3659C57.8315 57.1299 56.6338 58.1375 56.3381 59.6163C56.0423 61.0951 56.7607 62.4852 57.9425 62.7212C59.1243 62.9572 60.322 61.9497 60.6178 60.4708Z" fill="white"/>
<path d="M53.4222 62.1081C53.6243 61.0974 53.1343 60.1475 52.3278 59.9865C51.5213 59.8254 50.7037 60.5142 50.5016 61.5249C50.2995 62.5356 50.7894 63.4855 51.5959 63.6466C52.4024 63.8076 53.2201 63.1188 53.4222 62.1081Z" fill="white"/>
<path d="M105.1 73.5309C109.66 72.6205 112.445 67.3264 111.321 61.7063C110.197 56.0862 105.59 52.2683 101.03 53.1787C96.4709 54.0891 93.6857 59.3831 94.8095 65.0032C95.9334 70.6233 100.541 74.4413 105.1 73.5309Z" fill="black"/>
<path d="M101.101 62.389C102.283 62.153 103.002 60.7629 102.706 59.2841C102.41 57.8052 101.212 56.7977 100.031 57.0337C98.8488 57.2696 98.1305 58.6598 98.4262 60.1386C98.7219 61.6174 99.9197 62.625 101.101 62.389Z" fill="white"/>
<path d="M107.444 63.3104C108.251 63.1494 108.741 62.1995 108.539 61.1888C108.337 60.1781 107.519 59.4893 106.712 59.6503C105.906 59.8113 105.416 60.7612 105.618 61.7719C105.82 62.7827 106.638 63.4714 107.444 63.3104Z" fill="white"/>
<path d="M79.2124 82.2153C82.9474 82.2153 85.9751 80.4738 85.9751 78.3257C85.9751 76.1775 82.9474 74.436 79.2124 74.436C75.4775 74.436 72.4497 76.1775 72.4497 78.3257C72.4497 80.4738 75.4775 82.2153 79.2124 82.2153Z" fill="black"/>
<path d="M79.3893 77.4565H79.0354C78.0773 77.4565 77.3005 78.2327 77.3005 79.1902V88.0302C77.3005 88.9877 78.0773 89.7639 79.0354 89.7639H79.3893C80.3475 89.7639 81.1242 88.9877 81.1242 88.0302V79.1902C81.1242 78.2327 80.3475 77.4565 79.3893 77.4565Z" fill="black"/>
<path d="M81.3503 78.3259C82.3627 78.3259 83.1835 77.7696 83.1835 77.0834C83.1835 76.3971 82.3627 75.8408 81.3503 75.8408C80.3378 75.8408 79.5171 76.3971 79.5171 77.0834C79.5171 77.7696 80.3378 78.3259 81.3503 78.3259Z" fill="white"/>
<path d="M64.8387 61.6689C68.0634 61.6689 70.6775 59.0567 70.6775 55.8344C70.6775 52.6122 68.0634 50 64.8387 50C61.6141 50 59 52.6122 59 55.8344C59 59.0567 61.6141 61.6689 64.8387 61.6689Z" fill="white" fill-opacity="0.2"/>
<path d="M94.0029 61.6689C97.2276 61.6689 99.8417 59.0567 99.8417 55.8344C99.8417 52.6122 97.2276 50 94.0029 50C90.7783 50 88.1642 52.6122 88.1642 55.8344C88.1642 59.0567 90.7783 61.6689 94.0029 61.6689Z" fill="white" fill-opacity="0.2"/>
</svg>
