<svg width="158" height="160" viewBox="0 0 158 160" fill="none" xmlns="http://www.w3.org/2000/svg">
<path d="M106.985 128.069L101.014 116.739C100.026 104.496 90.6581 94.8945 79.2411 94.8945C68.6792 94.8945 59.8671 103.111 57.8225 114.033L50.4258 128.064C49.202 130.392 50.1014 133.295 52.431 134.523C54.7606 135.745 57.6653 134.847 58.894 132.519L60.0391 130.348C62.0198 134.331 65.003 137.626 68.6153 139.836L69.1953 148.573C69.3673 151.196 71.6625 153.2 74.287 153.028C76.9115 152.856 78.9167 150.567 78.7447 147.94L78.4056 142.842C78.6857 142.852 78.9658 142.867 79.246 142.867C79.5261 142.867 79.8112 142.857 80.0913 142.842L79.7473 148.009C79.5753 150.631 81.5805 152.92 84.205 153.097C86.8295 153.268 89.1198 151.265 89.2967 148.642L89.8816 139.836C93.1794 137.818 95.9513 134.891 97.9172 131.365L98.5266 132.519C99.7504 134.847 102.66 135.745 104.99 134.523C107.319 133.3 108.219 130.392 106.995 128.064L106.985 128.069Z" fill="currentColor"/>
<path d="M133.166 61.4886C128.045 88.8143 108.818 104.8 78.7791 104.8C48.74 104.8 29.597 84.9737 24.3923 61.4886C19.2023 38.0674 48.74 18.1772 78.7791 18.1772C108.818 18.1772 137.584 37.9299 133.166 61.4886Z" fill="currentColor"/>
<path d="M27.4886 100.262C23.8762 102.742 17.9539 100.449 15.5752 96.0631C8.65519 83.2941 -7.67658 51.519 17.7229 33.6326C44.012 15.1225 45.3193 43.17 45.1178 52.0199C45.0834 53.4785 44.9213 54.9764 44.6362 56.5038L39.402 84.4384C38.3699 89.9487 33.9269 95.8519 27.4935 100.267L27.4886 100.262Z" fill="currentColor"/>
<path d="M129.927 99.3485C133.539 101.829 139.462 99.5351 141.84 95.1495C148.76 82.3805 165.092 50.6054 139.693 32.719C113.404 14.2089 112.096 42.2564 112.298 51.1063C112.332 52.5649 112.494 54.0628 112.779 55.5902L118.014 83.5248C119.046 89.0351 123.489 94.9383 129.922 99.3534L129.927 99.3485Z" fill="currentColor"/>
<path d="M63.5279 58.8025C64.6506 53.1824 61.8682 47.8883 57.3132 46.9779C52.7582 46.0675 48.1556 49.8855 47.0328 55.5056C45.9101 61.1257 48.6925 66.4197 53.2475 67.3301C57.8025 68.2405 62.4052 64.4226 63.5279 58.8025Z" fill="black"/>
<path d="M59.9167 53.9406C60.2121 52.4617 59.4945 51.0716 58.3139 50.8356C57.1332 50.5996 55.9367 51.6072 55.6412 53.086C55.3458 54.5648 56.0634 55.955 57.244 56.1909C58.4247 56.4269 59.6212 55.4194 59.9167 53.9406Z" fill="white"/>
<path d="M52.7282 55.5778C52.9301 54.5671 52.4406 53.6172 51.6349 53.4562C50.8292 53.2951 50.0124 53.9839 49.8105 54.9947C49.6086 56.0054 50.0981 56.9553 50.9038 57.1163C51.7095 57.2773 52.5263 56.5885 52.7282 55.5778Z" fill="white"/>
<path d="M104.313 67.0006C108.868 66.0902 111.651 60.7961 110.528 55.1761C109.405 49.556 104.803 45.738 100.248 46.6484C95.6925 47.5588 92.9101 52.8529 94.0328 58.473C95.1556 64.0931 99.7582 67.911 104.313 67.0006Z" fill="black"/>
<path d="M100.318 55.8587C101.499 55.6227 102.217 54.2326 101.921 52.7538C101.626 51.275 100.429 50.2674 99.2487 50.5034C98.068 50.7394 97.3504 52.1295 97.6459 53.6083C97.9413 55.0872 99.1379 56.0947 100.318 55.8587Z" fill="white"/>
<path d="M106.655 56.7801C107.461 56.6191 107.95 55.6692 107.748 54.6585C107.546 53.6478 106.729 52.959 105.924 53.12C105.118 53.2811 104.629 54.231 104.83 55.2417C105.032 56.2524 105.849 56.9412 106.655 56.7801Z" fill="white"/>
<path d="M79 96C88.9411 96 97 89.0604 97 80.5C97 71.9396 88.9411 65 79 65C69.0589 65 61 71.9396 61 80.5C61 89.0604 69.0589 96 79 96Z" fill="white" fill-opacity="0.2"/>
<path d="M78.756 75.6845C82.4872 75.6845 85.5119 73.9431 85.5119 71.7949C85.5119 69.6467 82.4872 67.9053 78.756 67.9053C75.0247 67.9053 72 69.6467 72 71.7949C72 73.9431 75.0247 75.6845 78.756 75.6845Z" fill="black"/>
<path d="M78.9328 70.9258H78.5792C77.622 70.9258 76.8461 71.7019 76.8461 72.6594V81.4995C76.8461 82.4569 77.622 83.2331 78.5792 83.2331H78.9328C79.89 83.2331 80.6659 82.4569 80.6659 81.4995V72.6594C80.6659 71.7019 79.89 70.9258 78.9328 70.9258Z" fill="black"/>
<path d="M80.8917 71.7951C81.9031 71.7951 82.723 71.2388 82.723 70.5526C82.723 69.8664 81.9031 69.3101 80.8917 69.3101C79.8802 69.3101 79.0603 69.8664 79.0603 70.5526C79.0603 71.2388 79.8802 71.7951 80.8917 71.7951Z" fill="white"/>
</svg>
