<svg width="158" height="160" viewBox="0 0 158 160" fill="none" xmlns="http://www.w3.org/2000/svg">
<path d="M106.985 128.069L101.014 116.739C100.026 104.496 90.6581 94.8945 79.2411 94.8945C68.6792 94.8945 59.8671 103.111 57.8225 114.033L50.4258 128.064C49.202 130.392 50.1014 133.295 52.431 134.523C54.7606 135.745 57.6653 134.847 58.894 132.519L60.0391 130.348C62.0198 134.331 65.003 137.626 68.6153 139.836L69.1953 148.573C69.3673 151.196 71.6625 153.2 74.287 153.028C76.9115 152.856 78.9167 150.567 78.7447 147.94L78.4056 142.842C78.6857 142.852 78.9658 142.867 79.246 142.867C79.5261 142.867 79.8112 142.857 80.0913 142.842L79.7473 148.009C79.5753 150.631 81.5805 152.92 84.205 153.097C86.8295 153.268 89.1198 151.265 89.2967 148.642L89.8816 139.836C93.1794 137.818 95.9513 134.891 97.9172 131.365L98.5266 132.519C99.7504 134.847 102.66 135.745 104.99 134.523C107.319 133.3 108.219 130.392 106.995 128.064L106.985 128.069Z" fill="currentColor"/>
<path d="M133.166 61.4886C128.045 88.8143 108.818 104.8 78.7791 104.8C48.74 104.8 29.597 84.9737 24.3923 61.4886C19.2023 38.0674 48.74 18.1772 78.7791 18.1772C108.818 18.1772 137.584 37.9299 133.166 61.4886Z" fill="currentColor"/>
<path d="M27.4886 100.262C23.8762 102.742 17.9539 100.449 15.5752 96.0631C8.65519 83.2941 -7.67658 51.519 17.7229 33.6326C44.012 15.1225 45.3193 43.17 45.1178 52.0199C45.0834 53.4785 44.9213 54.9764 44.6362 56.5038L39.402 84.4384C38.3699 89.9487 33.9269 95.8519 27.4935 100.267L27.4886 100.262Z" fill="currentColor"/>
<path d="M129.927 99.349C133.539 101.829 139.462 99.5356 141.84 95.15C148.76 82.381 165.092 50.6059 139.693 32.7195C113.404 14.2094 112.096 42.2569 112.298 51.1068C112.332 52.5654 112.494 54.0633 112.779 55.5907L118.014 83.5253C119.046 89.0356 123.489 94.9388 129.922 99.3539L129.927 99.349Z" fill="currentColor"/>
<path d="M90.4553 36.2695C90.4553 29.885 88.7991 23.8246 85.8306 18.3733C83.496 18.1375 81.1419 18 78.7778 18C64.294 18 49.9233 22.6263 39.5089 30.047C35.5623 26.1328 28.9028 25.5828 17.7217 33.4554C4.23561 42.9535 2.51543 56.3659 4.90401 68.7665C13.9816 75.4309 25.8655 79.4679 38.8847 79.4679C67.3707 79.4679 90.4603 60.1278 90.4603 36.2695H90.4553Z" fill="white" fill-opacity="0.2"/>
<path d="M63.276 62.4695C64.3998 56.8494 61.6146 51.5553 57.055 50.6449C52.4955 49.7345 47.8882 53.5524 46.7644 59.1725C45.6405 64.7926 48.4257 70.0867 52.9853 70.9971C57.5448 71.9075 62.1521 68.0896 63.276 62.4695Z" fill="black"/>
<path d="M59.6611 57.6075C59.9568 56.1287 59.2385 54.7386 58.0567 54.5026C56.8749 54.2666 55.6771 55.2742 55.3814 56.753C55.0857 58.2318 55.804 59.622 56.9858 59.8579C58.1676 60.0939 59.3654 59.0864 59.6611 57.6075Z" fill="white"/>
<path d="M52.4655 59.2448C52.6676 58.2341 52.1777 57.2842 51.3711 57.1232C50.5646 56.9621 49.747 57.6509 49.5449 58.6616C49.3428 59.6724 49.8327 60.6222 50.6392 60.7833C51.4458 60.9443 52.2634 60.2555 52.4655 59.2448Z" fill="white"/>
<path d="M104.144 70.6676C108.703 69.7572 111.488 64.4631 110.364 58.843C109.241 53.2229 104.633 49.405 100.074 50.3154C95.5142 51.2258 92.729 56.5199 93.8529 62.14C94.9767 67.7601 99.584 71.578 104.144 70.6676Z" fill="black"/>
<path d="M100.145 59.5257C101.327 59.2897 102.045 57.8996 101.749 56.4208C101.454 54.9419 100.256 53.9344 99.0739 54.1704C97.8921 54.4064 97.1738 55.7965 97.4695 57.2753C97.7652 58.7542 98.963 59.7617 100.145 59.5257Z" fill="white"/>
<path d="M106.488 60.4471C107.294 60.2861 107.784 59.3362 107.582 58.3255C107.38 57.3148 106.562 56.626 105.756 56.787C104.949 56.9481 104.459 57.898 104.661 58.9087C104.863 59.9194 105.681 60.6082 106.488 60.4471Z" fill="white"/>
<path d="M78.2558 79.352C81.9907 79.352 85.0185 77.6106 85.0185 75.4624C85.0185 73.3142 81.9907 71.5728 78.2558 71.5728C74.5208 71.5728 71.493 73.3142 71.493 75.4624C71.493 77.6106 74.5208 79.352 78.2558 79.352Z" fill="black"/>
<path d="M78.4326 74.5933H78.0788C77.1206 74.5933 76.3439 75.3694 76.3439 76.3269V85.1669C76.3439 86.1244 77.1206 86.9006 78.0788 86.9006H78.4326C79.3908 86.9006 80.1675 86.1244 80.1675 85.1669V76.3269C80.1675 75.3694 79.3908 74.5933 78.4326 74.5933Z" fill="black"/>
<path d="M80.3936 75.4626C81.4061 75.4626 82.2268 74.9063 82.2268 74.2201C82.2268 73.5338 81.4061 72.9775 80.3936 72.9775C79.3812 72.9775 78.5604 73.5338 78.5604 74.2201C78.5604 74.9063 79.3812 75.4626 80.3936 75.4626Z" fill="white"/>
</svg>
