<svg width="158" height="160" viewBox="0 0 158 160" fill="none" xmlns="http://www.w3.org/2000/svg">
<path d="M106.985 128.069L101.014 116.739C100.026 104.496 90.6581 94.8945 79.2411 94.8945C68.6792 94.8945 59.8671 103.111 57.8225 114.033L50.4258 128.064C49.202 130.392 50.1014 133.295 52.431 134.523C54.7606 135.745 57.6653 134.847 58.894 132.519L60.0391 130.348C62.0198 134.331 65.003 137.626 68.6153 139.836L69.1953 148.573C69.3673 151.196 71.6625 153.2 74.287 153.028C76.9115 152.856 78.9167 150.567 78.7447 147.94L78.4056 142.842C78.6857 142.852 78.9658 142.867 79.246 142.867C79.5261 142.867 79.8112 142.857 80.0913 142.842L79.7473 148.009C79.5753 150.631 81.5805 152.92 84.205 153.097C86.8295 153.268 89.1198 151.265 89.2967 148.642L89.8816 139.836C93.1794 137.818 95.9513 134.891 97.9172 131.365L98.5266 132.519C99.7504 134.847 102.66 135.745 104.99 134.523C107.319 133.3 108.219 130.392 106.995 128.064L106.985 128.069Z" fill="currentColor"/>
<path d="M133.166 61.4886C128.045 88.8143 108.818 104.8 78.7791 104.8C48.74 104.8 29.597 84.9737 24.3923 61.4886C19.2023 38.0674 48.74 18.1772 78.7791 18.1772C108.818 18.1772 137.584 37.9299 133.166 61.4886Z" fill="currentColor"/>
<path d="M27.4886 100.262C23.8762 102.742 17.9539 100.449 15.5752 96.0631C8.65519 83.2941 -7.67658 51.519 17.7229 33.6326C44.012 15.1225 45.3193 43.17 45.1178 52.0199C45.0834 53.4785 44.9213 54.9764 44.6362 56.5038L39.402 84.4384C38.3699 89.9487 33.9269 95.8519 27.4935 100.267L27.4886 100.262Z" fill="currentColor"/>
<path d="M129.927 99.349C133.539 101.829 139.462 99.5356 141.84 95.15C148.76 82.381 165.092 50.6059 139.693 32.7195C113.404 14.2094 112.096 42.2569 112.298 51.1068C112.332 52.5654 112.494 54.0633 112.779 55.5907L118.014 83.5253C119.046 89.0356 123.489 94.9388 129.922 99.3539L129.927 99.349Z" fill="currentColor"/>
<path d="M139.701 33.4504C128.52 25.5779 121.861 26.128 117.914 30.0421C109.235 23.859 97.8029 19.6256 85.8502 18.3831C85.8502 18.3782 85.8453 18.3732 85.8404 18.3683C84.4102 18.221 82.9751 18.1228 81.5301 18.0638C81.4171 18.0638 81.309 18.054 81.1959 18.0491C80.3948 18.0196 79.5888 18 78.7828 18C78.7582 18 78.7336 18 78.709 18C78.6845 18 78.6599 18 78.6353 18C77.8293 18 77.0282 18.0196 76.2222 18.0491C76.1091 18.0491 76.001 18.0589 75.888 18.0638C74.4479 18.1228 73.0079 18.2259 71.5826 18.3683C71.5826 18.3732 71.5777 18.3782 71.5728 18.3831C59.6201 19.6256 48.1933 23.859 39.5089 30.0421C35.5623 26.128 28.9028 25.5779 17.7217 33.4504C4.23561 42.9486 2.51543 56.3609 4.90401 68.7616C13.9816 75.426 25.8655 79.463 38.8847 79.463C54.9216 79.463 69.253 73.3289 78.709 63.7129C88.17 73.3289 102.497 79.463 118.533 79.463C131.548 79.463 143.437 75.4211 152.514 68.7616C154.903 56.356 153.183 42.9486 139.696 33.4504H139.701Z" fill="white" fill-opacity="0.2"/>
<path d="M63.276 63.4695C64.3998 57.8494 61.6146 52.5553 57.055 51.6449C52.4955 50.7345 47.8882 54.5524 46.7644 60.1725C45.6405 65.7926 48.4257 71.0867 52.9853 71.9971C57.5448 72.9075 62.1521 69.0896 63.276 63.4695Z" fill="black"/>
<path d="M59.6611 58.6075C59.9568 57.1287 59.2385 55.7386 58.0567 55.5026C56.8749 55.2666 55.6771 56.2742 55.3814 57.753C55.0857 59.2318 55.804 60.622 56.9858 60.8579C58.1676 61.0939 59.3654 60.0864 59.6611 58.6075Z" fill="white"/>
<path d="M52.4655 60.2448C52.6676 59.2341 52.1777 58.2842 51.3711 58.1232C50.5646 57.9621 49.747 58.6509 49.5449 59.6616C49.3428 60.6724 49.8327 61.6222 50.6392 61.7833C51.4458 61.9443 52.2634 61.2555 52.4655 60.2448Z" fill="white"/>
<path d="M104.144 71.6676C108.703 70.7572 111.488 65.4631 110.364 59.843C109.241 54.2229 104.633 50.405 100.074 51.3154C95.5142 52.2258 92.729 57.5199 93.8529 63.14C94.9767 68.7601 99.584 72.578 104.144 71.6676Z" fill="black"/>
<path d="M100.145 60.5257C101.327 60.2897 102.045 58.8996 101.749 57.4208C101.454 55.9419 100.256 54.9344 99.0739 55.1704C97.8921 55.4064 97.1738 56.7965 97.4695 58.2753C97.7652 59.7542 98.963 60.7617 100.145 60.5257Z" fill="white"/>
<path d="M106.488 61.4471C107.294 61.2861 107.784 60.3362 107.582 59.3255C107.38 58.3148 106.562 57.626 105.756 57.787C104.949 57.9481 104.459 58.898 104.661 59.9087C104.863 60.9194 105.681 61.6082 106.488 61.4471Z" fill="white"/>
<path d="M78.2558 80.352C81.9907 80.352 85.0185 78.6106 85.0185 76.4624C85.0185 74.3142 81.9907 72.5728 78.2558 72.5728C74.5208 72.5728 71.493 74.3142 71.493 76.4624C71.493 78.6106 74.5208 80.352 78.2558 80.352Z" fill="black"/>
<path d="M78.4326 75.5933H78.0788C77.1206 75.5933 76.3439 76.3694 76.3439 77.3269V86.1669C76.3439 87.1244 77.1206 87.9006 78.0788 87.9006H78.4326C79.3908 87.9006 80.1675 87.1244 80.1675 86.1669V77.3269C80.1675 76.3694 79.3908 75.5933 78.4326 75.5933Z" fill="black"/>
<path d="M80.3936 76.4626C81.4061 76.4626 82.2268 75.9063 82.2268 75.2201C82.2268 74.5338 81.4061 73.9775 80.3936 73.9775C79.3812 73.9775 78.5604 74.5338 78.5604 75.2201C78.5604 75.9063 79.3812 76.4626 80.3936 76.4626Z" fill="white"/>
</svg>
