<svg width="158" height="160" viewBox="0 0 158 160" fill="none" xmlns="http://www.w3.org/2000/svg">
<path d="M106.985 128.069L101.014 116.739C100.026 104.496 90.6581 94.8945 79.2411 94.8945C68.6792 94.8945 59.8671 103.111 57.8225 114.033L50.4258 128.064C49.202 130.392 50.1014 133.295 52.431 134.523C54.7606 135.745 57.6653 134.847 58.894 132.519L60.0391 130.348C62.0198 134.331 65.003 137.626 68.6153 139.836L69.1953 148.573C69.3673 151.196 71.6625 153.2 74.287 153.028C76.9115 152.856 78.9167 150.567 78.7447 147.94L78.4056 142.842C78.6857 142.852 78.9658 142.867 79.246 142.867C79.5261 142.867 79.8112 142.857 80.0913 142.842L79.7473 148.009C79.5753 150.631 81.5805 152.92 84.205 153.097C86.8295 153.268 89.1198 151.265 89.2967 148.642L89.8816 139.836C93.1794 137.818 95.9513 134.891 97.9172 131.365L98.5266 132.519C99.7504 134.847 102.66 135.745 104.99 134.523C107.319 133.3 108.219 130.392 106.995 128.064L106.985 128.069Z" fill="currentColor"/>
<path d="M133.166 61.4886C128.045 88.8143 108.818 104.8 78.7791 104.8C48.74 104.8 29.597 84.9737 24.3923 61.4886C19.2023 38.0674 48.74 18.1772 78.7791 18.1772C108.818 18.1772 137.584 37.9299 133.166 61.4886Z" fill="currentColor"/>
<path d="M27.4886 100.262C23.8762 102.742 17.9539 100.449 15.5752 96.0631C8.65519 83.2941 -7.67658 51.519 17.7229 33.6326C44.012 15.1225 45.3193 43.17 45.1178 52.0199C45.0834 53.4785 44.9213 54.9764 44.6362 56.5038L39.402 84.4384C38.3699 89.9487 33.9269 95.8519 27.4935 100.267L27.4886 100.262Z" fill="currentColor"/>
<path d="M129.927 99.3485C133.539 101.829 139.462 99.5351 141.84 95.1495C148.76 82.3805 165.092 50.6054 139.693 32.719C113.404 14.2089 112.096 42.2564 112.298 51.1063C112.332 52.5649 112.494 54.0628 112.779 55.5902L118.014 83.5248C119.046 89.0351 123.489 94.9383 129.922 99.3534L129.927 99.3485Z" fill="currentColor"/>
<path d="M139.701 33.4504C128.52 25.5779 121.861 26.128 117.914 30.0421C109.235 23.859 97.8029 19.6256 85.8502 18.3831C85.8502 18.3782 85.8453 18.3732 85.8404 18.3683C84.4102 18.221 82.9751 18.1228 81.5301 18.0638C81.4171 18.0638 81.309 18.054 81.1959 18.0491C80.3948 18.0196 79.5888 18 78.7828 18C78.7582 18 78.7336 18 78.709 18C78.6845 18 78.6599 18 78.6353 18C77.8293 18 77.0282 18.0196 76.2222 18.0491C76.1091 18.0491 76.001 18.0589 75.888 18.0638C74.4479 18.1228 73.0079 18.2259 71.5826 18.3683C71.5826 18.3732 71.5777 18.3782 71.5728 18.3831C59.6201 19.6256 48.1933 23.859 39.5089 30.0421C35.5623 26.128 28.9028 25.5779 17.7217 33.4504C4.23561 42.9486 2.51543 56.3609 4.90401 68.7616C13.9816 75.426 25.8655 79.463 38.8847 79.463C54.9216 79.463 69.253 73.3289 78.709 63.7129C88.17 73.3289 102.497 79.463 118.533 79.463C131.548 79.463 143.437 75.4211 152.514 68.7616C154.903 56.356 153.183 42.9486 139.696 33.4504H139.701Z" fill="white" fill-opacity="0.2"/>
<path d="M63.5279 62.8025C64.6506 57.1824 61.8682 51.8883 57.3132 50.9779C52.7582 50.0675 48.1556 53.8855 47.0328 59.5056C45.9101 65.1257 48.6925 70.4197 53.2475 71.3301C57.8025 72.2405 62.4052 68.4226 63.5279 62.8025Z" fill="black"/>
<path d="M59.9167 57.9406C60.2121 56.4617 59.4945 55.0716 58.3139 54.8356C57.1332 54.5996 55.9367 55.6072 55.6412 57.086C55.3458 58.5648 56.0634 59.955 57.244 60.1909C58.4247 60.4269 59.6212 59.4194 59.9167 57.9406Z" fill="white"/>
<path d="M52.7282 59.5778C52.9301 58.5671 52.4406 57.6172 51.6349 57.4562C50.8292 57.2951 50.0124 57.9839 49.8105 58.9947C49.6086 60.0054 50.0981 60.9553 50.9038 61.1163C51.7095 61.2773 52.5263 60.5885 52.7282 59.5778Z" fill="white"/>
<path d="M104.313 71.0006C108.868 70.0902 111.651 64.7961 110.528 59.1761C109.405 53.556 104.803 49.738 100.248 50.6484C95.6925 51.5588 92.9101 56.8529 94.0328 62.473C95.1556 68.0931 99.7582 71.911 104.313 71.0006Z" fill="black"/>
<path d="M100.318 59.8587C101.499 59.6227 102.217 58.2326 101.921 56.7538C101.626 55.275 100.429 54.2674 99.2487 54.5034C98.068 54.7394 97.3504 56.1295 97.6459 57.6083C97.9413 59.0872 99.1379 60.0947 100.318 59.8587Z" fill="white"/>
<path d="M106.655 60.7801C107.461 60.6191 107.95 59.6692 107.748 58.6585C107.546 57.6478 106.729 56.959 105.924 57.12C105.118 57.2811 104.629 58.231 104.83 59.2417C105.032 60.2524 105.849 60.9412 106.655 60.7801Z" fill="white"/>
<path d="M79 100C88.9411 100 97 93.0604 97 84.5C97 75.9396 88.9411 69 79 69C69.0589 69 61 75.9396 61 84.5C61 93.0604 69.0589 100 79 100Z" fill="white" fill-opacity="0.2"/>
<path d="M78.756 79.6845C82.4872 79.6845 85.5119 77.9431 85.5119 75.7949C85.5119 73.6467 82.4872 71.9053 78.756 71.9053C75.0247 71.9053 72 73.6467 72 75.7949C72 77.9431 75.0247 79.6845 78.756 79.6845Z" fill="black"/>
<path d="M78.9328 74.9258H78.5792C77.622 74.9258 76.8461 75.7019 76.8461 76.6594V85.4995C76.8461 86.4569 77.622 87.2331 78.5792 87.2331H78.9328C79.89 87.2331 80.6659 86.4569 80.6659 85.4995V76.6594C80.6659 75.7019 79.89 74.9258 78.9328 74.9258Z" fill="black"/>
<path d="M80.8917 75.7951C81.9031 75.7951 82.723 75.2388 82.723 74.5526C82.723 73.8664 81.9031 73.3101 80.8917 73.3101C79.8802 73.3101 79.0603 73.8664 79.0603 74.5526C79.0603 75.2388 79.8802 75.7951 80.8917 75.7951Z" fill="white"/>
</svg>
