<svg width="158" height="160" viewBox="0 0 158 160" fill="none" xmlns="http://www.w3.org/2000/svg">
<path d="M106.985 128.069L101.014 116.739C100.026 104.496 90.6581 94.8945 79.2411 94.8945C68.6792 94.8945 59.8671 103.111 57.8225 114.033L50.4258 128.064C49.202 130.392 50.1014 133.295 52.431 134.523C54.7606 135.745 57.6653 134.847 58.894 132.519L60.0391 130.348C62.0198 134.331 65.003 137.626 68.6153 139.836L69.1953 148.573C69.3673 151.196 71.6625 153.2 74.287 153.028C76.9115 152.856 78.9167 150.567 78.7447 147.94L78.4056 142.842C78.6857 142.852 78.9658 142.867 79.246 142.867C79.5261 142.867 79.8112 142.857 80.0913 142.842L79.7473 148.009C79.5753 150.631 81.5805 152.92 84.205 153.097C86.8295 153.268 89.1198 151.265 89.2967 148.642L89.8816 139.836C93.1794 137.818 95.9513 134.891 97.9172 131.365L98.5266 132.519C99.7504 134.847 102.66 135.745 104.99 134.523C107.319 133.3 108.219 130.392 106.995 128.064L106.985 128.069Z" fill="currentColor"/>
<path d="M133.166 61.4886C128.045 88.8143 108.818 104.8 78.7791 104.8C48.74 104.8 29.597 84.9737 24.3923 61.4886C19.2023 38.0674 48.74 18.1772 78.7791 18.1772C108.818 18.1772 137.584 37.9299 133.166 61.4886Z" fill="currentColor"/>
<path d="M27.4886 100.262C23.8762 102.742 17.9539 100.449 15.5752 96.0631C8.65519 83.2941 -7.67658 51.519 17.7229 33.6326C44.012 15.1225 45.3193 43.17 45.1178 52.0199C45.0834 53.4785 44.9213 54.9764 44.6362 56.5038L39.402 84.4384C38.3699 89.9487 33.9269 95.8519 27.4935 100.267L27.4886 100.262Z" fill="currentColor"/>
<path d="M129.927 99.3485C133.539 101.829 139.462 99.5351 141.84 95.1495C148.76 82.3805 165.092 50.6054 139.693 32.719C113.404 14.2089 112.096 42.2564 112.298 51.1063C112.332 52.5649 112.494 54.0628 112.779 55.5902L118.014 83.5248C119.046 89.0351 123.489 94.9383 129.922 99.3534L129.927 99.3485Z" fill="currentColor"/>
<path d="M64.8387 57.6689C68.0634 57.6689 70.6775 55.0567 70.6775 51.8344C70.6775 48.6122 68.0634 46 64.8387 46C61.6141 46 59 48.6122 59 51.8344C59 55.0567 61.6141 57.6689 64.8387 57.6689Z" fill="white" fill-opacity="0.2"/>
<path d="M93.998 57.6689C97.2227 57.6689 99.8368 55.0567 99.8368 51.8344C99.8368 48.6122 97.2227 46 93.998 46C90.7734 46 88.1593 48.6122 88.1593 51.8344C88.1593 55.0567 90.7734 57.6689 93.998 57.6689Z" fill="white" fill-opacity="0.2"/>
<path d="M63.276 60.4695C64.3998 54.8494 61.6146 49.5553 57.055 48.6449C52.4955 47.7345 47.8882 51.5524 46.7644 57.1725C45.6405 62.7926 48.4257 68.0867 52.9853 68.9971C57.5448 69.9075 62.1521 66.0896 63.276 60.4695Z" fill="black"/>
<path d="M59.6611 55.6075C59.9568 54.1287 59.2385 52.7386 58.0567 52.5026C56.8749 52.2666 55.6771 53.2742 55.3814 54.753C55.0857 56.2318 55.804 57.622 56.9858 57.8579C58.1676 58.0939 59.3654 57.0864 59.6611 55.6075Z" fill="white"/>
<path d="M52.4655 57.2448C52.6676 56.2341 52.1777 55.2842 51.3711 55.1232C50.5646 54.9621 49.747 55.6509 49.5449 56.6616C49.3428 57.6724 49.8327 58.6222 50.6392 58.7833C51.4458 58.9443 52.2634 58.2555 52.4655 57.2448Z" fill="white"/>
<path d="M104.144 68.6676C108.703 67.7572 111.488 62.4631 110.364 56.843C109.241 51.2229 104.633 47.405 100.074 48.3154C95.5142 49.2258 92.729 54.5199 93.8529 60.14C94.9767 65.7601 99.584 69.578 104.144 68.6676Z" fill="black"/>
<path d="M100.145 57.5257C101.327 57.2897 102.045 55.8996 101.749 54.4208C101.454 52.9419 100.256 51.9344 99.0739 52.1704C97.8921 52.4064 97.1738 53.7965 97.4695 55.2753C97.7652 56.7542 98.963 57.7617 100.145 57.5257Z" fill="white"/>
<path d="M106.488 58.4471C107.294 58.2861 107.784 57.3362 107.582 56.3255C107.38 55.3148 106.562 54.626 105.756 54.787C104.949 54.9481 104.459 55.898 104.661 56.9087C104.863 57.9194 105.681 58.6082 106.488 58.4471Z" fill="white"/>
<path d="M78.2558 77.352C81.9907 77.352 85.0185 75.6106 85.0185 73.4624C85.0185 71.3142 81.9907 69.5728 78.2558 69.5728C74.5208 69.5728 71.493 71.3142 71.493 73.4624C71.493 75.6106 74.5208 77.352 78.2558 77.352Z" fill="black"/>
<path d="M78.4326 72.5933H78.0788C77.1206 72.5933 76.3439 73.3694 76.3439 74.3269V83.1669C76.3439 84.1244 77.1206 84.9006 78.0788 84.9006H78.4326C79.3908 84.9006 80.1675 84.1244 80.1675 83.1669V74.3269C80.1675 73.3694 79.3908 72.5933 78.4326 72.5933Z" fill="black"/>
<path d="M80.3936 73.4626C81.4061 73.4626 82.2268 72.9063 82.2268 72.2201C82.2268 71.5338 81.4061 70.9775 80.3936 70.9775C79.3812 70.9775 78.5604 71.5338 78.5604 72.2201C78.5604 72.9063 79.3812 73.4626 80.3936 73.4626Z" fill="white"/>
</svg>
