<svg width="158" height="160" viewBox="0 0 158 160" fill="none" xmlns="http://www.w3.org/2000/svg">
<path d="M78.7403 110.62C108.777 110.62 133.127 89.9268 133.127 64.4009C133.127 38.875 108.777 18.1821 78.7403 18.1821C48.7033 18.1821 24.3535 38.875 24.3535 64.4009C24.3535 89.9268 48.7033 110.62 78.7403 110.62Z" fill="currentColor"/>
<path d="M107.049 128.526L101.078 117.196C100.09 104.952 90.7225 95.3511 79.3055 95.3511C68.7437 95.3511 59.9315 103.567 57.887 114.49L50.4903 128.521C49.2665 130.849 50.1659 133.751 52.4955 134.979C54.8251 136.202 57.7297 135.303 58.9584 132.975L60.1035 130.805C62.0842 134.788 65.0675 138.083 68.6798 140.293L69.2598 149.03C69.4318 151.652 71.727 153.656 74.3515 153.484C76.9759 153.312 78.9812 151.024 78.8092 148.396L78.47 143.299C78.7502 143.308 79.0303 143.323 79.3105 143.323C79.5906 143.323 79.8756 143.313 80.1558 143.299L79.8118 148.465C79.6398 151.088 81.645 153.376 84.2694 153.553C86.8939 153.725 89.1842 151.721 89.3612 149.099L89.946 140.293C93.2438 138.274 96.0158 135.347 97.9817 131.821L98.5911 132.975C99.8149 135.303 102.724 136.202 105.054 134.979C107.384 133.756 108.283 130.849 107.059 128.521L107.049 128.526Z" fill="currentColor"/>
<path d="M18.6228 73.0295L9.98751 58.6399C2.21235 45.6843 10.4052 29.0257 25.4199 27.2675L32.6495 26.4178C37.6429 25.8334 41.6927 30.4008 40.5082 35.2825L31.8287 71.0209C30.3052 77.2875 21.9451 78.5644 18.6228 73.0295Z" fill="currentColor"/>
<path d="M138.484 73.0295L147.12 58.6399C154.895 45.6843 146.702 29.0257 131.687 27.2675L124.458 26.4178C119.464 25.8334 115.414 30.4008 116.599 35.2825L125.278 71.0209C126.802 77.2875 135.162 78.5644 138.484 73.0295Z" fill="currentColor"/>
<path d="M18.6228 72.6623L9.98751 58.2727C2.21235 45.3171 10.4052 28.6585 25.4199 26.9003L32.6495 26.0506C37.6429 25.4662 41.6927 30.0336 40.5082 34.9153L31.8287 70.6537C30.3052 76.9203 21.9451 78.1972 18.6228 72.6623Z" fill="white" fill-opacity="0.2"/>
<path d="M138.484 72.6623L147.12 58.2727C154.895 45.3171 146.702 28.6585 131.687 26.9003L124.458 26.0506C119.464 25.4662 115.414 30.0336 116.599 34.9153L125.278 70.6537C126.802 76.9203 135.162 78.1972 138.484 72.6623Z" fill="white" fill-opacity="0.2"/>
<path d="M63.5421 65.9597C64.6659 60.3396 61.8807 55.0456 57.3212 54.1351C52.7616 53.2247 48.1543 57.0427 47.0305 62.6628C45.9067 68.2829 48.6919 73.5769 53.2514 74.4873C57.8109 75.3977 62.4182 71.5798 63.5421 65.9597Z" fill="black"/>
<path d="M59.9272 61.0978C60.2229 59.6189 59.5046 58.2288 58.3228 57.9928C57.141 57.7569 55.9432 58.7644 55.6475 60.2432C55.3518 61.7221 56.0701 63.1122 57.2519 63.3482C58.4337 63.5841 59.6315 62.5766 59.9272 61.0978Z" fill="white"/>
<path d="M52.7316 62.735C52.9337 61.7243 52.4438 60.7744 51.6373 60.6134C50.8308 60.4524 50.0131 61.1412 49.811 62.1519C49.6089 63.1626 50.0989 64.1125 50.9054 64.2735C51.7119 64.4346 52.5295 63.7458 52.7316 62.735Z" fill="white"/>
<path d="M104.41 74.1578C108.969 73.2474 111.754 67.9534 110.63 62.3333C109.507 56.7132 104.899 52.8952 100.34 53.8056C95.7802 54.7161 92.995 60.0101 94.1189 65.6302C95.2427 71.2503 99.85 75.0682 104.41 74.1578Z" fill="black"/>
<path d="M100.411 63.0159C101.593 62.78 102.311 61.3898 102.015 59.911C101.72 58.4322 100.522 57.4246 99.3401 57.6606C98.1582 57.8966 97.4399 59.2867 97.7356 60.7656C98.0314 62.2444 99.2291 63.2519 100.411 63.0159Z" fill="white"/>
<path d="M106.753 63.9374C107.56 63.7763 108.05 62.8264 107.848 61.8157C107.646 60.805 106.828 60.1162 106.022 60.2773C105.215 60.4383 104.725 61.3882 104.927 62.3989C105.129 63.4096 105.947 64.0984 106.753 63.9374Z" fill="white"/>
<path d="M78.5218 82.8423C82.2567 82.8423 85.2845 81.1008 85.2845 78.9526C85.2845 76.8044 82.2567 75.063 78.5218 75.063C74.7868 75.063 71.759 76.8044 71.759 78.9526C71.759 81.1008 74.7868 82.8423 78.5218 82.8423Z" fill="black"/>
<path d="M78.6986 78.0835H78.3448C77.3866 78.0835 76.6099 78.8597 76.6099 79.8171V88.6572C76.6099 89.6146 77.3866 90.3908 78.3448 90.3908H78.6986C79.6568 90.3908 80.4335 89.6146 80.4335 88.6572V79.8171C80.4335 78.8597 79.6568 78.0835 78.6986 78.0835Z" fill="black"/>
<path d="M80.6596 78.9528C81.6721 78.9528 82.4928 78.3965 82.4928 77.7103C82.4928 77.0241 81.6721 76.4678 80.6596 76.4678C79.6472 76.4678 78.8264 77.0241 78.8264 77.7103C78.8264 78.3965 79.6472 78.9528 80.6596 78.9528Z" fill="white"/>
</svg>
