<svg width="158" height="160" viewBox="0 0 158 160" fill="none" xmlns="http://www.w3.org/2000/svg">
<path d="M78.7403 110.62C108.777 110.62 133.127 89.9268 133.127 64.4009C133.127 38.875 108.777 18.1821 78.7403 18.1821C48.7033 18.1821 24.3535 38.875 24.3535 64.4009C24.3535 89.9268 48.7033 110.62 78.7403 110.62Z" fill="currentColor"/>
<path d="M107.049 128.526L101.078 117.196C100.09 104.952 90.7225 95.3511 79.3055 95.3511C68.7437 95.3511 59.9315 103.567 57.887 114.49L50.4903 128.521C49.2665 130.849 50.1659 133.751 52.4955 134.979C54.8251 136.202 57.7297 135.303 58.9584 132.975L60.1035 130.805C62.0842 134.788 65.0675 138.083 68.6798 140.293L69.2598 149.03C69.4318 151.652 71.727 153.656 74.3515 153.484C76.9759 153.312 78.9812 151.024 78.8092 148.396L78.47 143.299C78.7502 143.308 79.0303 143.323 79.3105 143.323C79.5906 143.323 79.8756 143.313 80.1558 143.299L79.8118 148.465C79.6398 151.088 81.645 153.376 84.2694 153.553C86.8939 153.725 89.1842 151.721 89.3612 149.099L89.946 140.293C93.2438 138.274 96.0158 135.347 97.9817 131.821L98.5911 132.975C99.8149 135.303 102.724 136.202 105.054 134.979C107.384 133.756 108.283 130.849 107.059 128.521L107.049 128.526Z" fill="currentColor"/>
<path d="M18.6228 73.0295L9.98751 58.6399C2.21235 45.6843 10.4052 29.0257 25.4199 27.2675L32.6495 26.4178C37.6429 25.8334 41.6927 30.4008 40.5082 35.2825L31.8287 71.0209C30.3052 77.2875 21.9451 78.5644 18.6228 73.0295Z" fill="currentColor"/>
<path d="M138.484 73.0295L147.12 58.6399C154.895 45.6843 146.702 29.0257 131.687 27.2675L124.458 26.4178C119.464 25.8334 115.414 30.4008 116.599 35.2825L125.278 71.0209C126.802 77.2875 135.162 78.5644 138.484 73.0295Z" fill="currentColor"/>
<path d="M89.4298 39.8497C89.4298 31.8789 86.3974 24.4238 81.1238 18.0442C80.3424 18.0147 79.556 18 78.7647 18C63.7944 18 50.2394 23.142 40.405 31.4566C39.4368 28.2692 36.2962 25.9462 32.6495 26.3735L25.4199 27.2231C10.4053 28.9862 2.21234 45.6399 9.9875 58.5955L18.6228 72.9852C20.3577 75.8779 23.4785 76.9092 26.2701 76.3346C26.9385 78.4366 27.7888 80.4698 28.7865 82.4441C29.3271 82.4539 29.8726 82.4588 30.4133 82.4588C63.008 82.4588 89.4298 63.379 89.4298 39.8448V39.8497Z" fill="white" fill-opacity="0.2"/>
<path d="M63.5279 62.8025C64.6506 57.1824 61.8682 51.8883 57.3132 50.9779C52.7582 50.0675 48.1556 53.8855 47.0328 59.5056C45.9101 65.1257 48.6925 70.4197 53.2475 71.3301C57.8025 72.2405 62.4052 68.4226 63.5279 62.8025Z" fill="black"/>
<path d="M59.9168 57.9406C60.2122 56.4617 59.4946 55.0716 58.314 54.8356C57.1333 54.5996 55.9368 55.6072 55.6414 57.086C55.3459 58.5648 56.0635 59.955 57.2442 60.1909C58.4248 60.4269 59.6214 59.4194 59.9168 57.9406Z" fill="white"/>
<path d="M52.7283 59.5778C52.9302 58.5671 52.4408 57.6172 51.6351 57.4562C50.8294 57.2951 50.0126 57.9839 49.8107 58.9947C49.6087 60.0054 50.0982 60.9553 50.9039 61.1163C51.7096 61.2773 52.5264 60.5885 52.7283 59.5778Z" fill="white"/>
<path d="M104.313 71.0006C108.868 70.0902 111.651 64.7961 110.528 59.1761C109.405 53.556 104.803 49.738 100.248 50.6484C95.6925 51.5588 92.9101 56.8529 94.0328 62.473C95.1556 68.0931 99.7582 71.911 104.313 71.0006Z" fill="black"/>
<path d="M100.319 59.8587C101.499 59.6227 102.217 58.2326 101.921 56.7538C101.626 55.275 100.429 54.2674 99.2488 54.5034C98.0682 54.7394 97.3506 56.1295 97.646 57.6083C97.9414 59.0872 99.138 60.0947 100.319 59.8587Z" fill="white"/>
<path d="M106.655 60.7801C107.461 60.6191 107.95 59.6692 107.748 58.6585C107.546 57.6478 106.729 56.959 105.924 57.12C105.118 57.2811 104.629 58.231 104.83 59.2417C105.032 60.2524 105.849 60.9412 106.655 60.7801Z" fill="white"/>
<path d="M79 100C88.9411 100 97 93.0604 97 84.5C97 75.9396 88.9411 69 79 69C69.0589 69 61 75.9396 61 84.5C61 93.0604 69.0589 100 79 100Z" fill="white" fill-opacity="0.2"/>
<path d="M78.756 79.6845C82.4872 79.6845 85.5119 77.9431 85.5119 75.7949C85.5119 73.6467 82.4872 71.9053 78.756 71.9053C75.0247 71.9053 72 73.6467 72 75.7949C72 77.9431 75.0247 79.6845 78.756 79.6845Z" fill="black"/>
<path d="M78.9326 74.9258H78.5791C77.6219 74.9258 76.8459 75.7019 76.8459 76.6594V85.4995C76.8459 86.4569 77.6219 87.2331 78.5791 87.2331H78.9326C79.8898 87.2331 80.6658 86.4569 80.6658 85.4995V76.6594C80.6658 75.7019 79.8898 74.9258 78.9326 74.9258Z" fill="black"/>
<path d="M80.8917 75.7951C81.9031 75.7951 82.723 75.2388 82.723 74.5526C82.723 73.8664 81.9031 73.3101 80.8917 73.3101C79.8802 73.3101 79.0603 73.8664 79.0603 74.5526C79.0603 75.2388 79.8802 75.7951 80.8917 75.7951Z" fill="white"/>
</svg>
