<svg width="158" height="160" viewBox="0 0 158 160" fill="none" xmlns="http://www.w3.org/2000/svg">
<path d="M78.7403 110.62C108.777 110.62 133.127 89.9268 133.127 64.4009C133.127 38.875 108.777 18.1821 78.7403 18.1821C48.7033 18.1821 24.3535 38.875 24.3535 64.4009C24.3535 89.9268 48.7033 110.62 78.7403 110.62Z" fill="currentColor"/>
<path d="M107.049 128.526L101.078 117.196C100.09 104.952 90.7225 95.3511 79.3055 95.3511C68.7437 95.3511 59.9315 103.567 57.887 114.49L50.4903 128.521C49.2665 130.849 50.1659 133.751 52.4955 134.979C54.8251 136.202 57.7297 135.303 58.9584 132.975L60.1035 130.805C62.0842 134.788 65.0675 138.083 68.6798 140.293L69.2598 149.03C69.4318 151.652 71.727 153.656 74.3515 153.484C76.9759 153.312 78.9812 151.024 78.8092 148.396L78.47 143.299C78.7502 143.308 79.0303 143.323 79.3105 143.323C79.5906 143.323 79.8756 143.313 80.1558 143.299L79.8118 148.465C79.6398 151.088 81.645 153.376 84.2694 153.553C86.8939 153.725 89.1842 151.721 89.3612 149.099L89.946 140.293C93.2438 138.274 96.0158 135.347 97.9817 131.821L98.5911 132.975C99.8149 135.303 102.724 136.202 105.054 134.979C107.384 133.756 108.283 130.849 107.059 128.521L107.049 128.526Z" fill="currentColor"/>
<path d="M18.6228 73.0295L9.98751 58.6399C2.21235 45.6843 10.4052 29.0257 25.4199 27.2675L32.6495 26.4178C37.6429 25.8334 41.6927 30.4008 40.5082 35.2825L31.8287 71.0209C30.3052 77.2875 21.9451 78.5644 18.6228 73.0295Z" fill="currentColor"/>
<path d="M138.484 73.0295L147.12 58.6399C154.895 45.6843 146.702 29.0257 131.687 27.2675L124.458 26.4178C119.464 25.8334 115.414 30.4008 116.599 35.2825L125.278 71.0209C126.802 77.2875 135.162 78.5644 138.484 73.0295Z" fill="currentColor"/>
<path d="M132.1 27.2231L124.87 26.3735C121.223 25.9462 118.078 28.2692 117.115 31.4566C107.801 23.5791 95.1457 18.5549 81.114 18.0442C81.114 18.0442 81.1091 18.0442 81.1042 18.0442C80.3277 18.0147 79.5462 18 78.7598 18C77.9735 18 77.192 18.0196 76.4155 18.0442C76.4155 18.0442 76.4106 18.0442 76.4057 18.0442C62.374 18.5549 49.7185 23.5791 40.405 31.4566C39.4368 28.2692 36.2962 25.9462 32.6495 26.3735L25.4199 27.2231C10.4053 28.9862 2.21234 45.6399 9.9875 58.5955L18.6228 72.9852C20.3577 75.8778 23.4785 76.9092 26.2701 76.3346C26.9385 78.4366 27.7888 80.4698 28.7865 82.444C29.3271 82.4539 29.8726 82.4588 30.4133 82.4588C50.4164 82.4588 68.0899 75.2738 78.7647 64.2826C89.4396 75.2738 107.113 82.4588 127.116 82.4588C127.662 82.4588 128.202 82.4539 128.743 82.444C129.741 80.4747 130.586 78.4366 131.259 76.3346C134.056 76.9043 137.172 75.8778 138.907 72.9852L147.542 58.5955C155.317 45.6399 147.124 28.9813 132.11 27.2231H132.1Z" fill="white" fill-opacity="0.2"/>
<path d="M63.5421 65.9602C64.6659 60.3401 61.8807 55.0461 57.3212 54.1356C52.7616 53.2252 48.1543 57.0432 47.0305 62.6633C45.9067 68.2834 48.6919 73.5774 53.2514 74.4878C57.8109 75.3982 62.4182 71.5803 63.5421 65.9602Z" fill="black"/>
<path d="M59.9272 61.0983C60.2229 59.6194 59.5046 58.2293 58.3228 57.9933C57.141 57.7574 55.9432 58.7649 55.6475 60.2437C55.3518 61.7226 56.0701 63.1127 57.2519 63.3487C58.4337 63.5846 59.6315 62.5771 59.9272 61.0983Z" fill="white"/>
<path d="M52.7316 62.7355C52.9337 61.7248 52.4438 60.7749 51.6373 60.6139C50.8308 60.4529 50.0131 61.1417 49.811 62.1524C49.6089 63.1631 50.0989 64.113 50.9054 64.274C51.7119 64.435 52.5295 63.7462 52.7316 62.7355Z" fill="white"/>
<path d="M104.41 74.1583C108.969 73.2479 111.754 67.9539 110.63 62.3338C109.507 56.7137 104.899 52.8957 100.34 53.8061C95.7802 54.7166 92.995 60.0106 94.1189 65.6307C95.2427 71.2508 99.85 75.0687 104.41 74.1583Z" fill="black"/>
<path d="M100.411 63.0164C101.593 62.7805 102.311 61.3903 102.015 59.9115C101.72 58.4327 100.522 57.4251 99.3401 57.6611C98.1582 57.8971 97.4399 59.2872 97.7356 60.766C98.0314 62.2449 99.2291 63.2524 100.411 63.0164Z" fill="white"/>
<path d="M106.753 63.9379C107.56 63.7768 108.05 62.8269 107.848 61.8162C107.646 60.8055 106.828 60.1167 106.022 60.2778C105.215 60.4388 104.725 61.3887 104.927 62.3994C105.129 63.4101 105.947 64.0989 106.753 63.9379Z" fill="white"/>
<path d="M78.5218 82.8423C82.2567 82.8423 85.2845 81.1008 85.2845 78.9526C85.2845 76.8044 82.2567 75.063 78.5218 75.063C74.7868 75.063 71.759 76.8044 71.759 78.9526C71.759 81.1008 74.7868 82.8423 78.5218 82.8423Z" fill="black"/>
<path d="M78.6986 78.0835H78.3448C77.3866 78.0835 76.6099 78.8597 76.6099 79.8171V88.6572C76.6099 89.6146 77.3866 90.3908 78.3448 90.3908H78.6986C79.6568 90.3908 80.4335 89.6146 80.4335 88.6572V79.8171C80.4335 78.8597 79.6568 78.0835 78.6986 78.0835Z" fill="black"/>
<path d="M80.6596 78.9528C81.6721 78.9528 82.4928 78.3965 82.4928 77.7103C82.4928 77.0241 81.6721 76.4678 80.6596 76.4678C79.6472 76.4678 78.8264 77.0241 78.8264 77.7103C78.8264 78.3965 79.6472 78.9528 80.6596 78.9528Z" fill="white"/>
</svg>
