<svg width="158" height="160" viewBox="0 0 158 160" fill="none" xmlns="http://www.w3.org/2000/svg">
<path d="M78.7403 110.62C108.777 110.62 133.127 89.9268 133.127 64.4009C133.127 38.875 108.777 18.1821 78.7403 18.1821C48.7033 18.1821 24.3535 38.875 24.3535 64.4009C24.3535 89.9268 48.7033 110.62 78.7403 110.62Z" fill="currentColor"/>
<path d="M107.049 128.526L101.078 117.196C100.09 104.952 90.7225 95.3511 79.3055 95.3511C68.7437 95.3511 59.9315 103.567 57.887 114.49L50.4903 128.521C49.2665 130.849 50.1659 133.751 52.4955 134.979C54.8251 136.202 57.7297 135.303 58.9584 132.975L60.1035 130.805C62.0842 134.788 65.0675 138.083 68.6798 140.293L69.2598 149.03C69.4318 151.652 71.727 153.656 74.3515 153.484C76.9759 153.312 78.9812 151.024 78.8092 148.396L78.47 143.299C78.7502 143.308 79.0303 143.323 79.3105 143.323C79.5906 143.323 79.8756 143.313 80.1558 143.299L79.8118 148.465C79.6398 151.088 81.645 153.376 84.2694 153.553C86.8939 153.725 89.1842 151.721 89.3612 149.099L89.946 140.293C93.2438 138.274 96.0158 135.347 97.9817 131.821L98.5911 132.975C99.8149 135.303 102.724 136.202 105.054 134.979C107.384 133.756 108.283 130.849 107.059 128.521L107.049 128.526Z" fill="currentColor"/>
<path d="M18.6228 73.0295L9.98751 58.6399C2.21235 45.6843 10.4052 29.0257 25.4199 27.2675L32.6495 26.4178C37.6429 25.8334 41.6927 30.4008 40.5082 35.2825L31.8287 71.0209C30.3052 77.2875 21.9451 78.5644 18.6228 73.0295Z" fill="currentColor"/>
<path d="M138.484 73.0295L147.12 58.6399C154.895 45.6843 146.702 29.0257 131.687 27.2675L124.458 26.4178C119.464 25.8334 115.414 30.4008 116.599 35.2825L125.278 71.0209C126.802 77.2875 135.162 78.5644 138.484 73.0295Z" fill="currentColor"/>
<path d="M132.1 27.2231L124.87 26.3735C121.223 25.9462 118.078 28.2692 117.115 31.4566C107.801 23.5791 95.1457 18.5549 81.114 18.0442C81.114 18.0442 81.1091 18.0442 81.1042 18.0442C80.3277 18.0147 79.5462 18 78.7598 18C77.9735 18 77.192 18.0196 76.4155 18.0442C76.4155 18.0442 76.4106 18.0442 76.4057 18.0442C62.374 18.5549 49.7185 23.5791 40.405 31.4566C39.4368 28.2692 36.2962 25.9462 32.6495 26.3735L25.4199 27.2231C10.4053 28.9862 2.21234 45.6399 9.9875 58.5955L18.6228 72.9852C20.3577 75.8778 23.4785 76.9092 26.2701 76.3346C26.9385 78.4366 27.7888 80.4698 28.7865 82.444C29.3271 82.4539 29.8726 82.4588 30.4133 82.4588C50.4164 82.4588 68.0899 75.2738 78.7647 64.2826C89.4396 75.2738 107.113 82.4588 127.116 82.4588C127.662 82.4588 128.202 82.4539 128.743 82.444C129.741 80.4747 130.586 78.4366 131.259 76.3346C134.056 76.9043 137.172 75.8778 138.907 72.9852L147.542 58.5955C155.317 45.6399 147.124 28.9813 132.11 27.2231H132.1Z" fill="white" fill-opacity="0.2"/>
<path d="M63.5279 63.8025C64.6506 58.1824 61.8682 52.8883 57.3132 51.9779C52.7582 51.0675 48.1556 54.8855 47.0328 60.5056C45.9101 66.1257 48.6925 71.4197 53.2475 72.3301C57.8025 73.2405 62.4052 69.4226 63.5279 63.8025Z" fill="black"/>
<path d="M59.9168 58.9406C60.2122 57.4617 59.4946 56.0716 58.314 55.8356C57.1333 55.5996 55.9368 56.6072 55.6414 58.086C55.3459 59.5648 56.0635 60.955 57.2442 61.1909C58.4248 61.4269 59.6214 60.4194 59.9168 58.9406Z" fill="white"/>
<path d="M52.7283 60.5778C52.9302 59.5671 52.4408 58.6172 51.6351 58.4562C50.8294 58.2951 50.0126 58.9839 49.8107 59.9947C49.6087 61.0054 50.0982 61.9553 50.9039 62.1163C51.7096 62.2773 52.5264 61.5885 52.7283 60.5778Z" fill="white"/>
<path d="M104.313 72.0006C108.868 71.0902 111.651 65.7961 110.528 60.1761C109.405 54.556 104.803 50.738 100.248 51.6484C95.6925 52.5588 92.9101 57.8529 94.0328 63.473C95.1556 69.0931 99.7582 72.911 104.313 72.0006Z" fill="black"/>
<path d="M100.319 60.8587C101.499 60.6227 102.217 59.2326 101.921 57.7538C101.626 56.275 100.429 55.2674 99.2488 55.5034C98.0682 55.7394 97.3506 57.1295 97.646 58.6083C97.9414 60.0872 99.138 61.0947 100.319 60.8587Z" fill="white"/>
<path d="M106.655 61.7801C107.461 61.6191 107.95 60.6692 107.748 59.6585C107.546 58.6478 106.729 57.959 105.924 58.12C105.118 58.2811 104.629 59.231 104.83 60.2417C105.032 61.2524 105.849 61.9412 106.655 61.7801Z" fill="white"/>
<path d="M79 101C88.9411 101 97 94.0604 97 85.5C97 76.9396 88.9411 70 79 70C69.0589 70 61 76.9396 61 85.5C61 94.0604 69.0589 101 79 101Z" fill="white" fill-opacity="0.2"/>
<path d="M78.756 80.6845C82.4872 80.6845 85.5119 78.9431 85.5119 76.7949C85.5119 74.6467 82.4872 72.9053 78.756 72.9053C75.0247 72.9053 72 74.6467 72 76.7949C72 78.9431 75.0247 80.6845 78.756 80.6845Z" fill="black"/>
<path d="M78.9326 75.9258H78.5791C77.6219 75.9258 76.8459 76.7019 76.8459 77.6594V86.4995C76.8459 87.4569 77.6219 88.2331 78.5791 88.2331H78.9326C79.8898 88.2331 80.6658 87.4569 80.6658 86.4995V77.6594C80.6658 76.7019 79.8898 75.9258 78.9326 75.9258Z" fill="black"/>
<path d="M80.8917 76.7951C81.9031 76.7951 82.723 76.2388 82.723 75.5526C82.723 74.8664 81.9031 74.3101 80.8917 74.3101C79.8802 74.3101 79.0603 74.8664 79.0603 75.5526C79.0603 76.2388 79.8802 76.7951 80.8917 76.7951Z" fill="white"/>
</svg>
