<svg width="158" height="160" viewBox="0 0 158 160" fill="none" xmlns="http://www.w3.org/2000/svg">
<path d="M78.7403 110.62C108.777 110.62 133.127 89.9268 133.127 64.4009C133.127 38.875 108.777 18.1821 78.7403 18.1821C48.7033 18.1821 24.3535 38.875 24.3535 64.4009C24.3535 89.9268 48.7033 110.62 78.7403 110.62Z" fill="currentColor"/>
<path d="M107.049 128.526L101.078 117.196C100.09 104.952 90.7225 95.3511 79.3055 95.3511C68.7437 95.3511 59.9315 103.567 57.887 114.49L50.4903 128.521C49.2665 130.849 50.1659 133.751 52.4955 134.979C54.8251 136.202 57.7297 135.303 58.9584 132.975L60.1035 130.805C62.0842 134.788 65.0675 138.083 68.6798 140.293L69.2598 149.03C69.4318 151.652 71.727 153.656 74.3515 153.484C76.9759 153.312 78.9812 151.024 78.8092 148.396L78.47 143.299C78.7502 143.308 79.0303 143.323 79.3105 143.323C79.5906 143.323 79.8756 143.313 80.1558 143.299L79.8118 148.465C79.6398 151.088 81.645 153.376 84.2694 153.553C86.8939 153.725 89.1842 151.721 89.3612 149.099L89.946 140.293C93.2438 138.274 96.0158 135.347 97.9817 131.821L98.5911 132.975C99.8149 135.303 102.724 136.202 105.054 134.979C107.384 133.756 108.283 130.849 107.059 128.521L107.049 128.526Z" fill="currentColor"/>
<path d="M18.6228 73.0295L9.98751 58.6399C2.21235 45.6843 10.4052 29.0257 25.4199 27.2675L32.6495 26.4178C37.6429 25.8334 41.6927 30.4008 40.5082 35.2825L31.8287 71.0209C30.3052 77.2875 21.9451 78.5644 18.6228 73.0295Z" fill="currentColor"/>
<path d="M138.484 73.0295L147.12 58.6399C154.895 45.6843 146.702 29.0257 131.687 27.2675L124.458 26.4178C119.464 25.8334 115.414 30.4008 116.599 35.2825L125.278 71.0209C126.802 77.2875 135.162 78.5644 138.484 73.0295Z" fill="currentColor"/>
<path d="M64.8387 60.6689C68.0634 60.6689 70.6775 58.0567 70.6775 54.8344C70.6775 51.6122 68.0634 49 64.8387 49C61.6141 49 59 51.6122 59 54.8344C59 58.0567 61.6141 60.6689 64.8387 60.6689Z" fill="white" fill-opacity="0.2"/>
<path d="M93.9982 60.6689C97.2228 60.6689 99.8369 58.0567 99.8369 54.8344C99.8369 51.6122 97.2228 49 93.9982 49C90.7735 49 88.1594 51.6122 88.1594 54.8344C88.1594 58.0567 90.7735 60.6689 93.9982 60.6689Z" fill="white" fill-opacity="0.2"/>
<path d="M63.5279 62.8025C64.6506 57.1824 61.8682 51.8883 57.3132 50.9779C52.7582 50.0675 48.1556 53.8855 47.0328 59.5056C45.9101 65.1257 48.6925 70.4197 53.2475 71.3301C57.8025 72.2405 62.4052 68.4226 63.5279 62.8025Z" fill="black"/>
<path d="M59.9168 57.9406C60.2122 56.4617 59.4946 55.0716 58.314 54.8356C57.1333 54.5996 55.9368 55.6072 55.6414 57.086C55.3459 58.5648 56.0635 59.955 57.2442 60.1909C58.4248 60.4269 59.6214 59.4194 59.9168 57.9406Z" fill="white"/>
<path d="M52.7283 59.5778C52.9302 58.5671 52.4408 57.6172 51.6351 57.4562C50.8294 57.2951 50.0126 57.9839 49.8107 58.9947C49.6087 60.0054 50.0982 60.9553 50.9039 61.1163C51.7096 61.2773 52.5264 60.5885 52.7283 59.5778Z" fill="white"/>
<path d="M104.354 71.0006C108.909 70.0902 111.692 64.7961 110.569 59.1761C109.446 53.556 104.844 49.738 100.289 50.6484C95.7338 51.5588 92.9514 56.8529 94.0741 62.473C95.1968 68.0931 99.7995 71.911 104.354 71.0006Z" fill="black"/>
<path d="M100.36 59.8587C101.54 59.6227 102.258 58.2326 101.963 56.7538C101.667 55.275 100.471 54.2674 99.2901 54.5034C98.1094 54.7394 97.3918 56.1295 97.6873 57.6083C97.9827 59.0872 99.1792 60.0947 100.36 59.8587Z" fill="white"/>
<path d="M106.696 60.7801C107.502 60.6191 107.991 59.6692 107.789 58.6585C107.587 57.6478 106.771 56.959 105.965 57.12C105.159 57.2811 104.67 58.231 104.872 59.2417C105.074 60.2524 105.89 60.9412 106.696 60.7801Z" fill="white"/>
<path d="M78.4927 101.849C89.4938 101.849 98.412 94.2608 98.412 84.9005C98.412 75.5402 89.4938 67.9521 78.4927 67.9521C67.4916 67.9521 58.5735 75.5402 58.5735 84.9005C58.5735 94.2608 67.4916 101.849 78.4927 101.849Z" fill="white" fill-opacity="0.2"/>
<path d="M78.4928 79.6845C82.224 79.6845 85.2487 77.9431 85.2487 75.7949C85.2487 73.6467 82.224 71.9053 78.4928 71.9053C74.7616 71.9053 71.7368 73.6467 71.7368 75.7949C71.7368 77.9431 74.7616 79.6845 78.4928 79.6845Z" fill="black"/>
<path d="M78.6694 74.9258H78.3159C77.3587 74.9258 76.5828 75.7019 76.5828 76.6594V85.4995C76.5828 86.4569 77.3587 87.2331 78.3159 87.2331H78.6694C79.6267 87.2331 80.4026 86.4569 80.4026 85.4995V76.6594C80.4026 75.7019 79.6267 74.9258 78.6694 74.9258Z" fill="black"/>
<path d="M80.6285 75.7951C81.6399 75.7951 82.4598 75.2388 82.4598 74.5526C82.4598 73.8664 81.6399 73.3101 80.6285 73.3101C79.617 73.3101 78.7971 73.8664 78.7971 74.5526C78.7971 75.2388 79.617 75.7951 80.6285 75.7951Z" fill="white"/>
</svg>
