<svg width="158" height="160" viewBox="0 0 158 160" fill="none" xmlns="http://www.w3.org/2000/svg">
<path d="M143.872 26.1964L136.382 61.9937C133.919 73.7658 120.502 79.5216 110.265 73.201L103.526 69.0412C93.8345 63.0595 93.0285 49.2788 101.959 42.2116L131.683 18.6725C137.266 14.2525 145.331 19.2275 143.872 26.1964Z" fill="currentColor"/>
<path d="M13.1736 26.1964L20.6637 61.9937C23.126 73.7658 36.5433 79.5216 46.7808 73.201L53.5189 69.0412C63.2108 63.0595 64.0169 49.2788 55.0867 42.2116L25.3622 18.6725C19.779 14.2525 11.7139 19.2275 13.1736 26.1964Z" fill="currentColor"/>
<path d="M78.8051 108.35C103.354 108.35 123.254 91.4368 123.254 70.5734C123.254 49.71 103.354 32.7969 78.8051 32.7969C54.2565 32.7969 34.356 49.71 34.356 70.5734C34.356 91.4368 54.2565 108.35 78.8051 108.35Z" fill="currentColor"/>
<path d="M107.19 128.073L101.218 116.743C100.23 104.5 90.8627 94.8984 79.4457 94.8984C68.8838 94.8984 60.0717 103.115 58.0271 114.037L50.6304 128.068C49.4066 130.396 50.3061 133.299 52.6357 134.526C54.9653 135.749 57.8699 134.851 59.0986 132.523L60.2437 130.352C62.2244 134.335 65.2076 137.63 68.82 139.84L69.3999 148.577C69.5719 151.2 71.8671 153.204 74.4916 153.032C77.1161 152.86 79.1214 150.571 78.9493 147.944L78.6102 142.846C78.8903 142.856 79.1705 142.871 79.4506 142.871C79.7307 142.871 80.0158 142.861 80.296 142.846L79.9519 148.012C79.7799 150.635 81.7852 152.924 84.4096 153.1C87.0341 153.272 89.3244 151.269 89.5013 148.646L90.0862 139.84C93.384 137.822 96.1559 134.895 98.1218 131.369L98.7313 132.523C99.955 134.851 102.865 135.749 105.194 134.526C107.524 133.304 108.423 130.396 107.199 128.068L107.19 128.073Z" fill="currentColor"/>
<path d="M63.5279 63.8025C64.6506 58.1824 61.8682 52.8883 57.3132 51.9779C52.7582 51.0675 48.1556 54.8855 47.0328 60.5056C45.9101 66.1257 48.6925 71.4197 53.2475 72.3301C57.8025 73.2405 62.4052 69.4226 63.5279 63.8025Z" fill="black"/>
<path d="M59.9168 58.9406C60.2122 57.4617 59.4946 56.0716 58.314 55.8356C57.1333 55.5996 55.9368 56.6072 55.6414 58.086C55.3459 59.5648 56.0635 60.955 57.2442 61.1909C58.4248 61.4269 59.6214 60.4194 59.9168 58.9406Z" fill="white"/>
<path d="M52.7283 60.5778C52.9302 59.5671 52.4408 58.6172 51.6351 58.4562C50.8294 58.2951 50.0126 58.9839 49.8107 59.9947C49.6087 61.0054 50.0982 61.9553 50.9039 62.1163C51.7096 62.2773 52.5264 61.5885 52.7283 60.5778Z" fill="white"/>
<path d="M104.313 72.0006C108.868 71.0902 111.651 65.7961 110.528 60.1761C109.405 54.556 104.803 50.738 100.248 51.6484C95.6925 52.5588 92.9101 57.8529 94.0328 63.473C95.1556 69.0931 99.7582 72.911 104.313 72.0006Z" fill="black"/>
<path d="M100.319 60.8587C101.499 60.6227 102.217 59.2326 101.921 57.7538C101.626 56.275 100.429 55.2674 99.2488 55.5034C98.0682 55.7394 97.3506 57.1295 97.646 58.6083C97.9414 60.0872 99.138 61.0947 100.319 60.8587Z" fill="white"/>
<path d="M106.655 61.7801C107.461 61.6191 107.95 60.6692 107.748 59.6585C107.546 58.6478 106.729 57.959 105.924 58.12C105.118 58.2811 104.629 59.231 104.83 60.2417C105.032 61.2524 105.849 61.9412 106.655 61.7801Z" fill="white"/>
<path d="M79 100C88.3888 100 96 93.5081 96 85.5C96 77.4919 88.3888 71 79 71C69.6112 71 62 77.4919 62 85.5C62 93.5081 69.6112 100 79 100Z" fill="white" fill-opacity="0.2"/>
<path d="M78.756 80.6845C82.4872 80.6845 85.5119 78.9431 85.5119 76.7949C85.5119 74.6467 82.4872 72.9053 78.756 72.9053C75.0247 72.9053 72 74.6467 72 76.7949C72 78.9431 75.0247 80.6845 78.756 80.6845Z" fill="black"/>
<path d="M78.9326 75.9258H78.5791C77.6219 75.9258 76.8459 76.7019 76.8459 77.6594V86.4995C76.8459 87.4569 77.6219 88.2331 78.5791 88.2331H78.9326C79.8898 88.2331 80.6658 87.4569 80.6658 86.4995V77.6594C80.6658 76.7019 79.8898 75.9258 78.9326 75.9258Z" fill="black"/>
<path d="M80.8917 76.7951C81.9031 76.7951 82.723 76.2388 82.723 75.5526C82.723 74.8664 81.9031 74.3101 80.8917 74.3101C79.8802 74.3101 79.0603 74.8664 79.0603 75.5526C79.0603 76.2388 79.8802 76.7951 80.8917 76.7951Z" fill="white"/>
</svg>
