<svg width="158" height="160" viewBox="0 0 158 160" fill="none" xmlns="http://www.w3.org/2000/svg">
<path d="M143.872 26.1964L136.382 61.9937C133.919 73.7658 120.502 79.5216 110.265 73.201L103.526 69.0412C93.8345 63.0595 93.0285 49.2788 101.959 42.2116L131.683 18.6725C137.266 14.2525 145.331 19.2275 143.872 26.1964Z" fill="currentColor"/>
<path d="M13.1736 26.1964L20.6637 61.9937C23.126 73.7658 36.5433 79.5216 46.7808 73.201L53.5189 69.0412C63.2108 63.0595 64.0169 49.2788 55.0867 42.2116L25.3622 18.6725C19.779 14.2525 11.7139 19.2275 13.1736 26.1964Z" fill="currentColor"/>
<path d="M78.8051 108.35C103.354 108.35 123.254 91.4368 123.254 70.5734C123.254 49.71 103.354 32.7969 78.8051 32.7969C54.2565 32.7969 34.356 49.71 34.356 70.5734C34.356 91.4368 54.2565 108.35 78.8051 108.35Z" fill="currentColor"/>
<path d="M107.19 128.073L101.218 116.743C100.23 104.5 90.8627 94.8984 79.4457 94.8984C68.8838 94.8984 60.0717 103.115 58.0271 114.037L50.6304 128.068C49.4066 130.396 50.3061 133.299 52.6357 134.526C54.9653 135.749 57.8699 134.851 59.0986 132.523L60.2437 130.352C62.2244 134.335 65.2076 137.63 68.82 139.84L69.3999 148.577C69.5719 151.2 71.8671 153.204 74.4916 153.032C77.1161 152.86 79.1214 150.571 78.9493 147.944L78.6102 142.846C78.8903 142.856 79.1705 142.871 79.4506 142.871C79.7307 142.871 80.0158 142.861 80.296 142.846L79.9519 148.012C79.7799 150.635 81.7852 152.924 84.4096 153.1C87.0341 153.272 89.3244 151.269 89.5013 148.646L90.0862 139.84C93.384 137.822 96.1559 134.895 98.1218 131.369L98.7313 132.523C99.955 134.851 102.865 135.749 105.194 134.526C107.524 133.304 108.423 130.396 107.199 128.068L107.19 128.073Z" fill="currentColor"/>
<path d="M82.4964 40.4436C82.4964 37.9242 82.3195 35.4392 81.9754 33.0033C80.9335 32.9394 79.8867 32.905 78.8251 32.905C68.9956 32.905 59.913 35.616 52.5556 40.2079L25.3623 18.6725C19.7791 14.2525 11.7139 19.2275 13.1736 26.1964L20.6637 61.9937C22.2069 69.3801 28.0654 74.3944 34.7445 75.5485C35.7668 82.3062 38.9024 88.4992 43.5518 93.651C66.3809 85.1547 82.4915 64.5328 82.4915 40.4387L82.4964 40.4436Z" fill="white" fill-opacity="0.2"/>
<path d="M63.5465 65.8025C64.6703 60.1824 61.8851 54.8883 57.3256 53.9779C52.766 53.0675 48.1587 56.8855 47.0349 62.5056C45.911 68.1257 48.6962 73.4197 53.2558 74.3301C57.8153 75.2405 62.4226 71.4226 63.5465 65.8025Z" fill="black"/>
<path d="M59.9316 60.9406C60.2273 59.4617 59.509 58.0716 58.3272 57.8356C57.1454 57.5996 55.9476 58.6072 55.6519 60.086C55.3562 61.5648 56.0745 62.955 57.2563 63.1909C58.4381 63.4269 59.6359 62.4194 59.9316 60.9406Z" fill="white"/>
<path d="M52.736 62.5778C52.9381 61.5671 52.4482 60.6172 51.6417 60.4562C50.8351 60.2951 50.0175 60.9839 49.8154 61.9947C49.6133 63.0054 50.1032 63.9553 50.9098 64.1163C51.7163 64.2773 52.5339 63.5885 52.736 62.5778Z" fill="white"/>
<path d="M104.414 74.0006C108.973 73.0902 111.759 67.7962 110.635 62.1761C109.511 56.556 104.904 52.738 100.344 53.6484C95.7846 54.5588 92.9994 59.8529 94.1233 65.473C95.2471 71.0931 99.8544 74.911 104.414 74.0006Z" fill="black"/>
<path d="M100.415 62.8587C101.597 62.6227 102.315 61.2326 102.02 59.7538C101.724 58.275 100.526 57.2674 99.3444 57.5034C98.1626 57.7394 97.4443 59.1295 97.74 60.6083C98.0358 62.0872 99.2335 63.0947 100.415 62.8587Z" fill="white"/>
<path d="M106.758 63.7801C107.564 63.6191 108.054 62.6692 107.852 61.6585C107.65 60.6478 106.832 59.959 106.026 60.12C105.219 60.2811 104.73 61.231 104.932 62.2417C105.134 63.2524 105.951 63.9412 106.758 63.7801Z" fill="white"/>
<path d="M78.5262 82.685C82.2611 82.685 85.2888 80.9436 85.2888 78.7954C85.2888 76.6472 82.2611 74.9058 78.5262 74.9058C74.7912 74.9058 71.7634 76.6472 71.7634 78.7954C71.7634 80.9436 74.7912 82.685 78.5262 82.685Z" fill="black"/>
<path d="M78.703 77.9263H78.3492C77.391 77.9263 76.6143 78.7024 76.6143 79.6599V88.4999C76.6143 89.4574 77.391 90.2336 78.3492 90.2336H78.703C79.6612 90.2336 80.4379 89.4574 80.4379 88.4999V79.6599C80.4379 78.7024 79.6612 77.9263 78.703 77.9263Z" fill="black"/>
<path d="M80.664 78.7956C81.6765 78.7956 82.4972 78.2393 82.4972 77.5531C82.4972 76.8669 81.6765 76.3105 80.664 76.3105C79.6516 76.3105 78.8308 76.8669 78.8308 77.5531C78.8308 78.2393 79.6516 78.7956 80.664 78.7956Z" fill="white"/>
</svg>
