<svg width="158" height="160" viewBox="0 0 158 160" fill="none" xmlns="http://www.w3.org/2000/svg">
<path d="M143.872 26.1964L136.382 61.9937C133.919 73.7658 120.502 79.5216 110.265 73.201L103.526 69.0412C93.8345 63.0595 93.0285 49.2788 101.959 42.2116L131.683 18.6725C137.266 14.2525 145.331 19.2275 143.872 26.1964Z" fill="currentColor"/>
<path d="M13.1736 26.1964L20.6637 61.9937C23.126 73.7658 36.5433 79.5216 46.7808 73.201L53.5189 69.0412C63.2108 63.0595 64.0169 49.2788 55.0867 42.2116L25.3622 18.6725C19.779 14.2525 11.7139 19.2275 13.1736 26.1964Z" fill="currentColor"/>
<path d="M78.8051 108.35C103.354 108.35 123.254 91.4368 123.254 70.5734C123.254 49.71 103.354 32.7969 78.8051 32.7969C54.2565 32.7969 34.356 49.71 34.356 70.5734C34.356 91.4368 54.2565 108.35 78.8051 108.35Z" fill="currentColor"/>
<path d="M107.19 128.073L101.218 116.743C100.23 104.5 90.8627 94.8984 79.4457 94.8984C68.8838 94.8984 60.0717 103.115 58.0271 114.037L50.6304 128.068C49.4066 130.396 50.3061 133.299 52.6357 134.526C54.9653 135.749 57.8699 134.851 59.0986 132.523L60.2437 130.352C62.2244 134.335 65.2076 137.63 68.82 139.84L69.3999 148.577C69.5719 151.2 71.8671 153.204 74.4916 153.032C77.1161 152.86 79.1214 150.571 78.9493 147.944L78.6102 142.846C78.8903 142.856 79.1705 142.871 79.4506 142.871C79.7307 142.871 80.0158 142.861 80.296 142.846L79.9519 148.012C79.7799 150.635 81.7852 152.924 84.4096 153.1C87.0341 153.272 89.3244 151.269 89.5013 148.646L90.0862 139.84C93.384 137.822 96.1559 134.895 98.1218 131.369L98.7313 132.523C99.955 134.851 102.865 135.749 105.194 134.526C107.524 133.304 108.423 130.396 107.199 128.068L107.19 128.073Z" fill="currentColor"/>
<path d="M82.4964 40.4436C82.4964 37.9242 82.3195 35.4392 81.9754 33.0033C80.9335 32.9394 79.8867 32.905 78.8251 32.905C68.9956 32.905 59.913 35.616 52.5556 40.2079L25.3623 18.6725C19.7791 14.2525 11.7139 19.2275 13.1736 26.1964L20.6637 61.9937C22.2069 69.3801 28.0654 74.3944 34.7445 75.5485C35.7668 82.3062 38.9024 88.4992 43.5518 93.651C66.3809 85.1547 82.4915 64.5328 82.4915 40.4387L82.4964 40.4436Z" fill="white" fill-opacity="0.2"/>
<path d="M63.5279 65.8025C64.6506 60.1824 61.8682 54.8883 57.3132 53.9779C52.7582 53.0675 48.1556 56.8855 47.0328 62.5056C45.9101 68.1257 48.6925 73.4197 53.2475 74.3301C57.8025 75.2405 62.4052 71.4226 63.5279 65.8025Z" fill="black"/>
<path d="M59.9168 60.9406C60.2122 59.4617 59.4946 58.0716 58.314 57.8356C57.1333 57.5996 55.9368 58.6072 55.6414 60.086C55.3459 61.5648 56.0635 62.955 57.2442 63.1909C58.4248 63.4269 59.6214 62.4194 59.9168 60.9406Z" fill="white"/>
<path d="M52.7283 62.5778C52.9302 61.5671 52.4408 60.6172 51.6351 60.4562C50.8294 60.2951 50.0126 60.9839 49.8107 61.9947C49.6087 63.0054 50.0982 63.9553 50.9039 64.1163C51.7096 64.2773 52.5264 63.5885 52.7283 62.5778Z" fill="white"/>
<path d="M104.313 74.0006C108.868 73.0902 111.651 67.7961 110.528 62.1761C109.405 56.556 104.803 52.738 100.248 53.6484C95.6925 54.5588 92.9101 59.8529 94.0328 65.473C95.1556 71.0931 99.7582 74.911 104.313 74.0006Z" fill="black"/>
<path d="M100.319 62.8587C101.499 62.6227 102.217 61.2326 101.921 59.7538C101.626 58.275 100.429 57.2674 99.2488 57.5034C98.0682 57.7394 97.3506 59.1295 97.646 60.6083C97.9414 62.0872 99.138 63.0947 100.319 62.8587Z" fill="white"/>
<path d="M106.655 63.7801C107.461 63.6191 107.95 62.6692 107.748 61.6585C107.546 60.6478 106.729 59.959 105.924 60.12C105.118 60.2811 104.629 61.231 104.83 62.2417C105.032 63.2524 105.849 63.9412 106.655 63.7801Z" fill="white"/>
<path d="M79 102C88.3888 102 96 95.5081 96 87.5C96 79.4919 88.3888 73 79 73C69.6112 73 62 79.4919 62 87.5C62 95.5081 69.6112 102 79 102Z" fill="white" fill-opacity="0.2"/>
<path d="M78.756 82.6845C82.4872 82.6845 85.5119 80.9431 85.5119 78.7949C85.5119 76.6467 82.4872 74.9053 78.756 74.9053C75.0247 74.9053 72 76.6467 72 78.7949C72 80.9431 75.0247 82.6845 78.756 82.6845Z" fill="black"/>
<path d="M78.9326 77.9258H78.5791C77.6219 77.9258 76.8459 78.7019 76.8459 79.6594V88.4995C76.8459 89.4569 77.6219 90.2331 78.5791 90.2331H78.9326C79.8898 90.2331 80.6658 89.4569 80.6658 88.4995V79.6594C80.6658 78.7019 79.8898 77.9258 78.9326 77.9258Z" fill="black"/>
<path d="M80.8917 78.7951C81.9031 78.7951 82.723 78.2388 82.723 77.5526C82.723 76.8664 81.9031 76.3101 80.8917 76.3101C79.8802 76.3101 79.0603 76.8664 79.0603 77.5526C79.0603 78.2388 79.8802 78.7951 80.8917 78.7951Z" fill="white"/>
</svg>
