<svg width="158" height="160" viewBox="0 0 158 160" fill="none" xmlns="http://www.w3.org/2000/svg">
<path d="M143.872 26.1964L136.382 61.9937C133.919 73.7658 120.502 79.5216 110.265 73.201L103.526 69.0412C93.8345 63.0595 93.0285 49.2788 101.959 42.2116L131.683 18.6725C137.266 14.2525 145.331 19.2275 143.872 26.1964Z" fill="currentColor"/>
<path d="M13.1736 26.1964L20.6637 61.9937C23.126 73.7658 36.5433 79.5216 46.7808 73.201L53.5189 69.0412C63.2108 63.0595 64.0169 49.2788 55.0867 42.2116L25.3622 18.6725C19.779 14.2525 11.7139 19.2275 13.1736 26.1964Z" fill="currentColor"/>
<path d="M78.8051 108.35C103.354 108.35 123.254 91.4368 123.254 70.5734C123.254 49.71 103.354 32.7969 78.8051 32.7969C54.2565 32.7969 34.356 49.71 34.356 70.5734C34.356 91.4368 54.2565 108.35 78.8051 108.35Z" fill="currentColor"/>
<path d="M107.19 128.073L101.218 116.743C100.23 104.5 90.8627 94.8984 79.4457 94.8984C68.8838 94.8984 60.0717 103.115 58.0271 114.037L50.6304 128.068C49.4066 130.396 50.3061 133.299 52.6357 134.526C54.9653 135.749 57.8699 134.851 59.0986 132.523L60.2437 130.352C62.2244 134.335 65.2076 137.63 68.82 139.84L69.3999 148.577C69.5719 151.2 71.8671 153.204 74.4916 153.032C77.1161 152.86 79.1214 150.571 78.9493 147.944L78.6102 142.846C78.8903 142.856 79.1705 142.871 79.4506 142.871C79.7307 142.871 80.0158 142.861 80.296 142.846L79.9519 148.012C79.7799 150.635 81.7852 152.924 84.4096 153.1C87.0341 153.272 89.3244 151.269 89.5013 148.646L90.0862 139.84C93.384 137.822 96.1559 134.895 98.1218 131.369L98.7313 132.523C99.955 134.851 102.865 135.749 105.194 134.526C107.524 133.304 108.423 130.396 107.199 128.068L107.19 128.073Z" fill="currentColor"/>
<path d="M132.111 18.6725L104.918 40.2079C98.3957 36.1415 90.5222 33.5533 81.9754 33.013C81.9754 33.013 81.9754 33.0082 81.9754 33.0033C80.9335 32.9394 79.8866 32.905 78.825 32.905C78.7956 32.905 78.7661 32.905 78.7366 32.905C78.7071 32.905 78.6776 32.905 78.6481 32.905C77.5865 32.905 76.5397 32.9443 75.4978 33.0033C75.4978 33.0033 75.4978 33.0081 75.4978 33.013C66.951 33.5533 59.0775 36.1415 52.5556 40.2079L25.3623 18.6725C19.7791 14.2525 11.7139 19.2275 13.1736 26.1964L20.6637 61.9937C22.2069 69.3801 28.0654 74.3943 34.7445 75.5485C35.7668 82.3062 38.9024 88.4992 43.5518 93.651C59.8344 87.5907 72.6964 75.357 78.7366 60.1029C84.7769 75.3619 97.6388 87.5907 113.921 93.651C118.571 88.4992 121.706 82.3062 122.729 75.5485C129.408 74.3943 135.261 69.3801 136.81 61.9937L144.3 26.1964C145.759 19.2275 137.694 14.2525 132.111 18.6725Z" fill="white" fill-opacity="0.2"/>
<path d="M63.5279 66.8025C64.6506 61.1824 61.8682 55.8883 57.3132 54.9779C52.7582 54.0675 48.1556 57.8855 47.0328 63.5056C45.9101 69.1257 48.6925 74.4197 53.2475 75.3301C57.8025 76.2405 62.4052 72.4226 63.5279 66.8025Z" fill="black"/>
<path d="M59.9168 61.9406C60.2122 60.4617 59.4946 59.0716 58.314 58.8356C57.1333 58.5996 55.9368 59.6072 55.6414 61.086C55.3459 62.5648 56.0635 63.955 57.2442 64.1909C58.4248 64.4269 59.6214 63.4194 59.9168 61.9406Z" fill="white"/>
<path d="M52.7283 63.5778C52.9302 62.5671 52.4408 61.6172 51.6351 61.4562C50.8294 61.2951 50.0126 61.9839 49.8107 62.9947C49.6087 64.0054 50.0982 64.9553 50.9039 65.1163C51.7096 65.2773 52.5264 64.5885 52.7283 63.5778Z" fill="white"/>
<path d="M104.313 75.0006C108.868 74.0902 111.651 68.7961 110.528 63.1761C109.405 57.556 104.803 53.738 100.248 54.6484C95.6925 55.5588 92.9101 60.8529 94.0328 66.473C95.1556 72.0931 99.7582 75.911 104.313 75.0006Z" fill="black"/>
<path d="M100.319 63.8587C101.499 63.6227 102.217 62.2326 101.921 60.7538C101.626 59.275 100.429 58.2674 99.2488 58.5034C98.0682 58.7394 97.3506 60.1295 97.646 61.6083C97.9414 63.0872 99.138 64.0947 100.319 63.8587Z" fill="white"/>
<path d="M106.655 64.7801C107.461 64.6191 107.95 63.6692 107.748 62.6585C107.546 61.6478 106.729 60.959 105.924 61.12C105.118 61.2811 104.629 62.231 104.83 63.2417C105.032 64.2524 105.849 64.9412 106.655 64.7801Z" fill="white"/>
<path d="M79 103C88.3888 103 96 96.5081 96 88.5C96 80.4919 88.3888 74 79 74C69.6112 74 62 80.4919 62 88.5C62 96.5081 69.6112 103 79 103Z" fill="white" fill-opacity="0.2"/>
<path d="M78.756 83.6845C82.4872 83.6845 85.5119 81.9431 85.5119 79.7949C85.5119 77.6467 82.4872 75.9053 78.756 75.9053C75.0247 75.9053 72 77.6467 72 79.7949C72 81.9431 75.0247 83.6845 78.756 83.6845Z" fill="black"/>
<path d="M78.9326 78.9258H78.5791C77.6219 78.9258 76.8459 79.7019 76.8459 80.6594V89.4995C76.8459 90.4569 77.6219 91.2331 78.5791 91.2331H78.9326C79.8898 91.2331 80.6658 90.4569 80.6658 89.4995V80.6594C80.6658 79.7019 79.8898 78.9258 78.9326 78.9258Z" fill="black"/>
<path d="M80.8917 79.7951C81.9031 79.7951 82.723 79.2388 82.723 78.5526C82.723 77.8664 81.9031 77.3101 80.8917 77.3101C79.8802 77.3101 79.0603 77.8664 79.0603 78.5526C79.0603 79.2388 79.8802 79.7951 80.8917 79.7951Z" fill="white"/>
</svg>
