<svg width="158" height="160" viewBox="0 0 158 160" fill="none" xmlns="http://www.w3.org/2000/svg">
<path d="M143.872 26.1964L136.382 61.9937C133.919 73.7658 120.502 79.5216 110.265 73.201L103.526 69.0412C93.8345 63.0595 93.0285 49.2788 101.959 42.2116L131.683 18.6725C137.266 14.2525 145.331 19.2275 143.872 26.1964Z" fill="currentColor"/>
<path d="M13.1736 26.1964L20.6637 61.9937C23.126 73.7658 36.5433 79.5216 46.7808 73.201L53.5189 69.0412C63.2108 63.0595 64.0169 49.2788 55.0867 42.2116L25.3622 18.6725C19.779 14.2525 11.7139 19.2275 13.1736 26.1964Z" fill="currentColor"/>
<path d="M78.8051 108.35C103.354 108.35 123.254 91.4368 123.254 70.5734C123.254 49.71 103.354 32.7969 78.8051 32.7969C54.2565 32.7969 34.356 49.71 34.356 70.5734C34.356 91.4368 54.2565 108.35 78.8051 108.35Z" fill="currentColor"/>
<path d="M107.19 128.073L101.218 116.743C100.23 104.5 90.8627 94.8984 79.4457 94.8984C68.8838 94.8984 60.0717 103.115 58.0271 114.037L50.6304 128.068C49.4066 130.396 50.3061 133.299 52.6357 134.526C54.9653 135.749 57.8699 134.851 59.0986 132.523L60.2437 130.352C62.2244 134.335 65.2076 137.63 68.82 139.84L69.3999 148.577C69.5719 151.2 71.8671 153.204 74.4916 153.032C77.1161 152.86 79.1214 150.571 78.9493 147.944L78.6102 142.846C78.8903 142.856 79.1705 142.871 79.4506 142.871C79.7307 142.871 80.0158 142.861 80.296 142.846L79.9519 148.012C79.7799 150.635 81.7852 152.924 84.4096 153.1C87.0341 153.272 89.3244 151.269 89.5013 148.646L90.0862 139.84C93.384 137.822 96.1559 134.895 98.1218 131.369L98.7313 132.523C99.955 134.851 102.865 135.749 105.194 134.526C107.524 133.304 108.423 130.396 107.199 128.068L107.19 128.073Z" fill="currentColor"/>
<path d="M64.8387 60.6689C68.0634 60.6689 70.6775 58.0567 70.6775 54.8344C70.6775 51.6122 68.0634 49 64.8387 49C61.6141 49 59 51.6122 59 54.8344C59 58.0567 61.6141 60.6689 64.8387 60.6689Z" fill="white" fill-opacity="0.2"/>
<path d="M93.9979 60.6689C97.2226 60.6689 99.8367 58.0567 99.8367 54.8344C99.8367 51.6122 97.2226 49 93.9979 49C90.7733 49 88.1592 51.6122 88.1592 54.8344C88.1592 58.0567 90.7733 60.6689 93.9979 60.6689Z" fill="white" fill-opacity="0.2"/>
<path d="M63.5279 64.8025C64.6506 59.1824 61.8682 53.8883 57.3132 52.9779C52.7582 52.0675 48.1556 55.8855 47.0328 61.5056C45.9101 67.1257 48.6925 72.4197 53.2475 73.3301C57.8025 74.2405 62.4052 70.4226 63.5279 64.8025Z" fill="black"/>
<path d="M59.9168 59.9406C60.2122 58.4617 59.4946 57.0716 58.314 56.8356C57.1333 56.5996 55.9368 57.6072 55.6414 59.086C55.3459 60.5648 56.0635 61.955 57.2442 62.1909C58.4248 62.4269 59.6214 61.4194 59.9168 59.9406Z" fill="white"/>
<path d="M52.7283 61.5778C52.9302 60.5671 52.4408 59.6172 51.6351 59.4562C50.8294 59.2951 50.0126 59.9839 49.8107 60.9947C49.6087 62.0054 50.0982 62.9553 50.9039 63.1163C51.7096 63.2773 52.5264 62.5885 52.7283 61.5778Z" fill="white"/>
<path d="M104.313 73.0006C108.868 72.0902 111.651 66.7961 110.528 61.1761C109.405 55.556 104.803 51.738 100.248 52.6484C95.6925 53.5588 92.9101 58.8529 94.0328 64.473C95.1556 70.0931 99.7582 73.911 104.313 73.0006Z" fill="black"/>
<path d="M100.319 61.8587C101.499 61.6227 102.217 60.2326 101.921 58.7538C101.626 57.275 100.429 56.2674 99.2488 56.5034C98.0682 56.7394 97.3506 58.1295 97.646 59.6083C97.9414 61.0872 99.138 62.0947 100.319 61.8587Z" fill="white"/>
<path d="M106.655 62.7801C107.461 62.6191 107.95 61.6692 107.748 60.6585C107.546 59.6478 106.729 58.959 105.924 59.12C105.118 59.2811 104.629 60.231 104.83 61.2417C105.032 62.2524 105.849 62.9412 106.655 62.7801Z" fill="white"/>
<path d="M79 102C88.9411 102 97 95.0604 97 86.5C97 77.9396 88.9411 71 79 71C69.0589 71 61 77.9396 61 86.5C61 95.0604 69.0589 102 79 102Z" fill="white" fill-opacity="0.2"/>
<path d="M78.756 81.6845C82.4872 81.6845 85.5119 79.9431 85.5119 77.7949C85.5119 75.6467 82.4872 73.9053 78.756 73.9053C75.0247 73.9053 72 75.6467 72 77.7949C72 79.9431 75.0247 81.6845 78.756 81.6845Z" fill="black"/>
<path d="M78.9326 76.9258H78.5791C77.6219 76.9258 76.8459 77.7019 76.8459 78.6594V87.4995C76.8459 88.4569 77.6219 89.2331 78.5791 89.2331H78.9326C79.8898 89.2331 80.6658 88.4569 80.6658 87.4995V78.6594C80.6658 77.7019 79.8898 76.9258 78.9326 76.9258Z" fill="black"/>
<path d="M80.8917 77.7951C81.9031 77.7951 82.723 77.2388 82.723 76.5526C82.723 75.8664 81.9031 75.3101 80.8917 75.3101C79.8802 75.3101 79.0603 75.8664 79.0603 76.5526C79.0603 77.2388 79.8802 77.7951 80.8917 77.7951Z" fill="white"/>
</svg>
