<svg width="158" height="160" viewBox="0 0 158 160" fill="none" xmlns="http://www.w3.org/2000/svg">
<path d="M49.8974 73.4653L45.2333 74.3001L46.2899 79.8645C47.0173 83.6952 43.1248 86.7499 39.5715 85.144L37.0846 84.0193L36.5096 87.2803C35.6986 91.8673 29.6583 93.046 27.1813 89.1023L26.5277 90.3056C24.2718 94.4506 18.0153 93.2375 17.4795 88.5474C13.9409 91.6709 8.47572 88.3853 9.58155 83.7983L9.90102 82.4674C5.41875 83.7345 1.72285 78.8184 4.19498 74.8699L5.95445 72.0607L3.35451 71.2307C-0.361049 70.0471 -1.20145 65.1703 1.90468 62.813L6.4164 59.385L3.51182 55.6476C1.24611 52.7304 2.89257 48.4479 6.52949 47.7996L11.1936 46.9647L10.1369 41.4004C9.40953 37.5697 13.302 34.515 16.8554 36.1209L19.3423 37.2456L19.9173 33.9846C20.7283 29.3976 26.7685 28.2189 29.2455 32.1625L29.8992 30.9593C32.1551 26.8143 38.4116 28.0273 38.9473 32.7175C42.4859 29.594 47.9511 32.8796 46.8453 37.4666L46.5259 38.7975C51.0081 37.5304 54.704 42.4464 52.2319 46.395L50.4724 49.2042L53.0723 50.0342C56.7879 51.2178 57.6283 56.0945 54.5221 58.4519L50.0104 61.8799L52.9151 65.6172C55.1808 68.5345 53.5343 72.817 49.8974 73.4653Z" fill="currentColor"/>
<path d="M107.798 73.4653L112.462 74.3001L111.405 79.8645C110.678 83.6952 114.571 86.7499 118.124 85.144L120.611 84.0193L121.186 87.2803C121.997 91.8673 128.037 93.046 130.514 89.1023L131.168 90.3056C133.424 94.4506 139.68 93.2375 140.216 88.5474C143.754 91.6709 149.22 88.3853 148.114 83.7983L147.794 82.4674C152.277 83.7345 155.973 78.8184 153.5 74.8699L151.741 72.0607L154.341 71.2307C158.056 70.0471 158.897 65.1703 155.791 62.813L151.279 59.385L154.184 55.6476C156.449 52.7304 154.803 48.4479 151.166 47.7996L146.502 46.9647L147.558 41.4004C148.286 37.5697 144.393 34.515 140.84 36.1209L138.353 37.2456L137.778 33.9846C136.967 29.3976 130.927 28.2189 128.45 32.1625L127.796 30.9593C125.54 26.8143 119.284 28.0273 118.748 32.7175C115.21 29.594 109.744 32.8796 110.85 37.4666L111.17 38.7975C106.687 37.5304 102.991 42.4464 105.464 46.395L107.223 49.2042L104.623 50.0342C100.908 51.2178 100.067 56.0945 103.173 58.4519L107.685 61.8799L104.78 65.6172C102.515 68.5345 104.161 72.817 107.798 73.4653Z" fill="currentColor"/>
<path d="M107.429 129.069L101.458 117.739C100.47 105.496 91.1024 95.8945 79.6854 95.8945C69.1236 95.8945 60.3114 104.111 58.2668 115.033L50.8702 129.064C49.6464 131.392 50.5458 134.295 52.8754 135.523C55.205 136.745 58.1096 135.847 59.3383 133.519L60.4834 131.348C62.4641 135.331 65.4474 138.626 69.0597 140.836L69.6396 149.573C69.8116 152.196 72.1068 154.2 74.7313 154.028C77.3558 153.856 79.3611 151.567 79.189 148.94L78.8499 143.842C79.13 143.852 79.4102 143.867 79.6904 143.867C79.9705 143.867 80.2555 143.857 80.5357 143.842L80.1917 149.009C80.0197 151.631 82.0249 153.92 84.6493 154.097C87.2738 154.268 89.5641 152.265 89.741 149.642L90.3259 140.836C93.6237 138.818 96.3956 135.891 98.3616 132.365L98.971 133.519C100.195 135.847 103.104 136.745 105.434 135.523C107.764 134.3 108.663 131.392 107.439 129.064L107.429 129.069Z" fill="currentColor"/>
<path d="M79.0123 111.62C107.182 111.62 130.018 90.9268 130.018 65.4009C130.018 39.875 107.182 19.1821 79.0123 19.1821C50.8428 19.1821 28.0068 39.875 28.0068 65.4009C28.0068 90.9268 50.8428 111.62 79.0123 111.62Z" fill="currentColor"/>
<path d="M63.755 65.883C64.8788 60.2629 62.0936 54.9689 57.5341 54.0585C52.9745 53.1481 48.3672 56.966 47.2434 62.5861C46.1195 68.2062 48.9047 73.5002 53.4643 74.4107C58.0238 75.3211 62.6311 71.5031 63.755 65.883Z" fill="black"/>
<path d="M60.1401 61.0211C60.4358 59.5423 59.7175 58.1522 58.5357 57.9162C57.3539 57.6802 56.1561 58.6877 55.8604 60.1666C55.5647 61.6454 56.283 63.0355 57.4648 63.2715C58.6466 63.5075 59.8444 62.4999 60.1401 61.0211Z" fill="white"/>
<path d="M52.9445 62.6584C53.1466 61.6477 52.6567 60.6978 51.8501 60.5367C51.0436 60.3757 50.226 61.0645 50.0239 62.0752C49.8218 63.0859 50.3117 64.0358 51.1182 64.1969C51.9248 64.3579 52.7424 63.6691 52.9445 62.6584Z" fill="white"/>
<path d="M104.622 74.0812C109.182 73.1707 111.967 67.8767 110.843 62.2566C109.72 56.6365 105.112 52.8186 100.553 53.729C95.9931 54.6394 93.2079 59.9334 94.3318 65.5535C95.4556 71.1736 100.063 74.9916 104.622 74.0812Z" fill="black"/>
<path d="M100.624 62.9393C101.806 62.7033 102.524 61.3132 102.228 59.8344C101.933 58.3555 100.735 57.348 99.5529 57.584C98.3711 57.8199 97.6528 59.2101 97.9485 60.6889C98.2442 62.1677 99.442 63.1753 100.624 62.9393Z" fill="white"/>
<path d="M106.966 63.8607C107.773 63.6997 108.263 62.7498 108.061 61.7391C107.859 60.7284 107.041 60.0396 106.234 60.2006C105.428 60.3616 104.938 61.3115 105.14 62.3222C105.342 63.333 106.16 64.0217 106.966 63.8607Z" fill="white"/>
<path d="M78.7346 82.7656C82.4696 82.7656 85.4973 81.0241 85.4973 78.8759C85.4973 76.7278 82.4696 74.9863 78.7346 74.9863C74.9997 74.9863 71.9719 76.7278 71.9719 78.8759C71.9719 81.0241 74.9997 82.7656 78.7346 82.7656Z" fill="black"/>
<path d="M78.9115 78.0068H78.5577C77.5995 78.0068 76.8228 78.783 76.8228 79.7405V88.5805C76.8228 89.538 77.5995 90.3142 78.5577 90.3142H78.9115C79.8697 90.3142 80.6464 89.538 80.6464 88.5805V79.7405C80.6464 78.783 79.8697 78.0068 78.9115 78.0068Z" fill="black"/>
<path d="M80.8725 78.8762C81.885 78.8762 82.7057 78.3199 82.7057 77.6336C82.7057 76.9474 81.885 76.3911 80.8725 76.3911C79.8601 76.3911 79.0393 76.9474 79.0393 77.6336C79.0393 78.3199 79.8601 78.8762 80.8725 78.8762Z" fill="white"/>
</svg>
