<svg width="158" height="160" viewBox="0 0 158 160" fill="none" xmlns="http://www.w3.org/2000/svg">
<path d="M49.8974 73.4653L45.2333 74.3001L46.2899 79.8645C47.0173 83.6952 43.1248 86.7499 39.5715 85.144L37.0846 84.0193L36.5096 87.2803C35.6986 91.8673 29.6583 93.046 27.1813 89.1023L26.5277 90.3056C24.2718 94.4506 18.0153 93.2375 17.4795 88.5474C13.9409 91.6709 8.47572 88.3853 9.58155 83.7983L9.90102 82.4674C5.41875 83.7345 1.72285 78.8184 4.19498 74.8699L5.95445 72.0607L3.35451 71.2307C-0.361049 70.0471 -1.20145 65.1703 1.90468 62.813L6.4164 59.385L3.51182 55.6476C1.24611 52.7304 2.89257 48.4479 6.52949 47.7996L11.1936 46.9647L10.1369 41.4004C9.40953 37.5697 13.302 34.515 16.8554 36.1209L19.3423 37.2456L19.9173 33.9846C20.7283 29.3976 26.7685 28.2189 29.2455 32.1625L29.8992 30.9593C32.1551 26.8143 38.4116 28.0273 38.9473 32.7175C42.4859 29.594 47.9511 32.8796 46.8453 37.4666L46.5259 38.7975C51.0081 37.5304 54.704 42.4464 52.2319 46.395L50.4724 49.2042L53.0723 50.0342C56.7879 51.2178 57.6283 56.0945 54.5221 58.4519L50.0104 61.8799L52.9151 65.6172C55.1808 68.5345 53.5343 72.817 49.8974 73.4653Z" fill="currentColor"/>
<path d="M107.798 73.4653L112.462 74.3001L111.405 79.8645C110.678 83.6952 114.571 86.7499 118.124 85.144L120.611 84.0193L121.186 87.2803C121.997 91.8673 128.037 93.046 130.514 89.1023L131.168 90.3056C133.424 94.4506 139.68 93.2375 140.216 88.5474C143.754 91.6709 149.22 88.3853 148.114 83.7983L147.794 82.4674C152.277 83.7345 155.973 78.8184 153.5 74.8699L151.741 72.0607L154.341 71.2307C158.056 70.0471 158.897 65.1703 155.791 62.813L151.279 59.385L154.184 55.6476C156.449 52.7304 154.803 48.4479 151.166 47.7996L146.502 46.9647L147.558 41.4004C148.286 37.5697 144.393 34.515 140.84 36.1209L138.353 37.2456L137.778 33.9846C136.967 29.3976 130.927 28.2189 128.45 32.1625L127.796 30.9593C125.54 26.8143 119.284 28.0273 118.748 32.7175C115.21 29.594 109.744 32.8796 110.85 37.4666L111.17 38.7975C106.687 37.5304 102.991 42.4464 105.464 46.395L107.223 49.2042L104.623 50.0342C100.908 51.2178 100.067 56.0945 103.173 58.4519L107.685 61.8799L104.78 65.6172C102.515 68.5345 104.161 72.817 107.798 73.4653Z" fill="currentColor"/>
<path d="M107.429 129.069L101.458 117.739C100.47 105.496 91.1024 95.8945 79.6854 95.8945C69.1236 95.8945 60.3114 104.111 58.2668 115.033L50.8702 129.064C49.6464 131.392 50.5458 134.295 52.8754 135.523C55.205 136.745 58.1096 135.847 59.3383 133.519L60.4834 131.348C62.4641 135.331 65.4474 138.626 69.0597 140.836L69.6396 149.573C69.8116 152.196 72.1068 154.2 74.7313 154.028C77.3558 153.856 79.3611 151.567 79.189 148.94L78.8499 143.842C79.13 143.852 79.4102 143.867 79.6904 143.867C79.9705 143.867 80.2555 143.857 80.5357 143.842L80.1917 149.009C80.0197 151.631 82.0249 153.92 84.6493 154.097C87.2738 154.268 89.5641 152.265 89.741 149.642L90.3259 140.836C93.6237 138.818 96.3956 135.891 98.3616 132.365L98.971 133.519C100.195 135.847 103.104 136.745 105.434 135.523C107.764 134.3 108.663 131.392 107.439 129.064L107.429 129.069Z" fill="currentColor"/>
<path d="M79.0123 111.62C107.182 111.62 130.018 90.9268 130.018 65.4009C130.018 39.875 107.182 19.1821 79.0123 19.1821C50.8428 19.1821 28.0068 39.875 28.0068 65.4009C28.0068 90.9268 50.8428 111.62 79.0123 111.62Z" fill="currentColor"/>
<path d="M155.825 62.7681L151.314 59.3402L154.218 55.6028C156.484 52.6856 154.837 48.403 151.201 47.7547L146.536 46.9198L147.593 41.3555C148.32 37.5248 144.428 34.4701 140.875 36.0761L138.388 37.2007L137.813 33.9397C137.002 29.3527 130.962 28.174 128.484 32.1177L127.831 30.9144C125.575 26.7694 119.318 27.9825 118.783 32.6726C117.254 31.327 115.372 31.1698 113.809 31.7984C109.13 27.7467 103.596 24.4955 97.4871 22.2806C97.4625 22.202 97.4379 22.1235 97.4134 22.0498C91.9629 20.1541 86.0553 19.0933 79.8873 19.0147C79.8627 19.0147 79.8381 19.0147 79.8086 19.0147C79.5875 19.0147 79.3712 19 79.155 19C79.0567 19 78.9633 19 78.865 19C78.7667 19 78.6733 19 78.575 19C78.3539 19 78.1376 19.0098 77.9214 19.0147C77.8968 19.0147 77.8722 19.0147 77.8427 19.0147C71.6747 19.0933 65.7672 20.1541 60.3167 22.0498C60.2921 22.1284 60.2675 22.2069 60.243 22.2806C54.129 24.4955 48.5999 27.7467 43.9211 31.7984C42.3582 31.1698 40.4758 31.322 38.9473 32.6726C38.4116 27.9825 32.1551 26.7694 29.8992 30.9144L29.2455 32.1177C26.7635 28.174 20.7282 29.3527 19.9173 33.9397L19.3423 37.2007L16.8554 36.0761C13.302 34.4701 9.40951 37.5248 10.1369 41.3555L11.1936 46.9198L6.52947 47.7547C2.89254 48.4079 1.24609 52.6856 3.5118 55.6028L6.41644 59.3402L1.90466 62.7681C-1.20147 65.1255 -0.361011 70.0022 3.35455 71.1858L5.95448 72.0158L4.19496 74.825C1.72283 78.7736 5.41873 83.6896 9.90099 82.4225L9.58158 83.7534C8.47576 88.3404 13.941 91.626 17.4796 88.5025C18.0153 93.1927 24.2718 94.4057 26.5277 90.2607L27.1813 89.0575C29.221 92.3038 33.6737 92.0778 35.6347 89.3374C37.3008 91.7979 39.2127 94.1061 41.3408 96.2327C55.7755 94.612 68.7799 89.0526 78.865 80.8362C88.9452 89.0526 101.95 94.6169 116.389 96.2327C118.517 94.1061 120.429 91.7979 122.095 89.3374C124.061 92.0778 128.509 92.3038 130.549 89.0575L131.202 90.2607C133.458 94.4057 139.715 93.1927 140.25 88.5025C143.789 91.626 149.254 88.3404 148.148 83.7534L147.829 82.4225C152.311 83.6896 156.007 78.7736 153.535 74.825L151.776 72.0158L154.376 71.1858C158.091 70.0022 158.931 65.1255 155.825 62.7681Z" fill="white" fill-opacity="0.2"/>
<path d="M63.5279 62.8025C64.6506 57.1824 61.8682 51.8883 57.3132 50.9779C52.7582 50.0675 48.1556 53.8855 47.0328 59.5056C45.9101 65.1257 48.6925 70.4197 53.2475 71.3301C57.8025 72.2405 62.4052 68.4226 63.5279 62.8025Z" fill="black"/>
<path d="M59.9168 57.9406C60.2122 56.4617 59.4946 55.0716 58.314 54.8356C57.1333 54.5996 55.9368 55.6072 55.6414 57.086C55.3459 58.5648 56.0635 59.955 57.2442 60.1909C58.4248 60.4269 59.6214 59.4194 59.9168 57.9406Z" fill="white"/>
<path d="M52.7283 59.5778C52.9302 58.5671 52.4408 57.6172 51.6351 57.4562C50.8294 57.2951 50.0126 57.9839 49.8107 58.9947C49.6087 60.0054 50.0982 60.9553 50.9039 61.1163C51.7096 61.2773 52.5264 60.5885 52.7283 59.5778Z" fill="white"/>
<path d="M104.313 71.0006C108.868 70.0902 111.651 64.7961 110.528 59.1761C109.405 53.556 104.803 49.738 100.248 50.6484C95.6925 51.5588 92.9101 56.8529 94.0328 62.473C95.1556 68.0931 99.7582 71.911 104.313 71.0006Z" fill="black"/>
<path d="M100.319 59.8587C101.499 59.6227 102.217 58.2326 101.921 56.7538C101.626 55.275 100.429 54.2674 99.2488 54.5034C98.0682 54.7394 97.3506 56.1295 97.646 57.6083C97.9414 59.0872 99.138 60.0947 100.319 59.8587Z" fill="white"/>
<path d="M106.655 60.7801C107.461 60.6191 107.95 59.6692 107.748 58.6585C107.546 57.6478 106.729 56.959 105.924 57.12C105.118 57.2811 104.629 58.231 104.83 59.2417C105.032 60.2524 105.849 60.9412 106.655 60.7801Z" fill="white"/>
<path d="M79 100C88.9411 100 97 93.0604 97 84.5C97 75.9396 88.9411 69 79 69C69.0589 69 61 75.9396 61 84.5C61 93.0604 69.0589 100 79 100Z" fill="white" fill-opacity="0.2"/>
<path d="M78.756 79.6845C82.4872 79.6845 85.5119 77.9431 85.5119 75.7949C85.5119 73.6467 82.4872 71.9053 78.756 71.9053C75.0247 71.9053 72 73.6467 72 75.7949C72 77.9431 75.0247 79.6845 78.756 79.6845Z" fill="black"/>
<path d="M78.9326 74.9258H78.5791C77.6219 74.9258 76.8459 75.7019 76.8459 76.6594V85.4995C76.8459 86.4569 77.6219 87.2331 78.5791 87.2331H78.9326C79.8898 87.2331 80.6658 86.4569 80.6658 85.4995V76.6594C80.6658 75.7019 79.8898 74.9258 78.9326 74.9258Z" fill="black"/>
<path d="M80.8917 75.7951C81.9031 75.7951 82.723 75.2388 82.723 74.5526C82.723 73.8664 81.9031 73.3101 80.8917 73.3101C79.8802 73.3101 79.0603 73.8664 79.0603 74.5526C79.0603 75.2388 79.8802 75.7951 80.8917 75.7951Z" fill="white"/>
</svg>
