<svg width="158" height="160" viewBox="0 0 158 160" fill="none" xmlns="http://www.w3.org/2000/svg">
<path d="M130.987 74.922C130.987 62.3891 124.646 51.0867 114.487 43.1214L96.6821 3.99455C95.4716 1.33515 91.6977 1.33515 90.4871 3.99455L78.4935 30.3511L66.4999 3.99455C65.2894 1.33515 61.5155 1.33515 60.305 3.99455L42.4998 43.1214C32.3414 51.091 26 62.3891 26 74.922C26 94.5351 41.5219 111.126 62.9027 116.656C61.3734 119.009 60.2705 121.721 59.7234 124.652L53.2398 136.986C52.1671 139.033 52.9554 141.584 54.9975 142.663C57.0395 143.738 59.5855 142.948 60.6625 140.902L61.6663 138.994C63.4024 142.495 66.0174 145.392 69.1838 147.335L69.6922 155.015C69.843 157.32 71.8505 159.082 74.1553 158.931C76.4558 158.779 78.2135 156.768 78.0627 154.458L77.7655 149.977C78.011 149.985 78.2566 149.998 78.5022 149.998C78.7477 149.998 78.9976 149.99 79.2431 149.977L78.9416 154.518C78.7908 156.824 80.5485 158.836 82.849 158.991C85.1495 159.142 87.157 157.381 87.3121 155.075L87.8248 147.335C90.7155 145.56 93.1452 142.987 94.8684 139.887L95.4026 140.902C96.4796 142.948 99.0257 143.738 101.068 142.663C103.11 141.588 103.898 139.033 102.825 136.986L97.5911 127.026C97.2809 123.175 96.0273 119.627 94.093 116.652C115.474 111.126 131 94.5307 131 74.9177L130.987 74.922Z" fill="currentColor"/>
<path d="M114.498 43.0711L96.6908 3.99211C95.4801 1.33596 91.7058 1.33596 90.4951 3.99211L78.5259 30.2604L78.5 30.3164L78.4741 30.2604L66.5049 3.99211C65.2942 1.33596 61.5199 1.33596 60.3092 3.99211L42.5018 43.0711C32.3422 51.0309 26 62.3152 26 74.8328C26 80.9126 27.4994 86.7035 30.2009 91.9597C34.3112 94.5641 38.8008 96 43.5014 96C60.9598 96 75.4797 76.2428 78.5 50.1815C81.5203 76.2428 96.0402 96 113.499 96C118.204 96 122.689 94.5641 126.799 91.9597C129.501 86.6992 131 80.9126 131 74.8328C131 62.3152 124.658 51.0266 114.498 43.0711Z" fill="currentColor"/>
<path d="M94.4614 97.1416C92.7555 99.6086 89.9889 102.101 86.8571 102.101C83.7253 102.101 80.9588 99.6086 79.2528 97.1416H77.752C76.046 99.6086 73.2794 102.101 70.1477 102.101C67.0159 102.101 64.2493 99.6086 62.5434 97.1416H61.0975C62.1932 101.305 65.8302 104.367 70.1477 104.367C73.4045 104.367 76.2711 102.621 77.9521 99.9739C78.2072 99.5736 78.7976 99.5736 79.0527 99.9739C80.7337 102.621 83.6003 104.367 86.8571 104.367C91.1746 104.367 94.8066 101.31 95.9073 97.1416H94.4614Z" fill="black"/>
<path d="M55.0192 87.274C59.7522 87.274 63.5891 82.5401 63.5891 76.7005C63.5891 70.8609 59.7522 66.127 55.0192 66.127C50.2862 66.127 46.4493 70.8609 46.4493 76.7005C46.4493 82.5401 50.2862 87.274 55.0192 87.274Z" fill="black"/>
<path d="M55.0191 80.9338C56.268 80.9338 57.2804 78.9735 57.2804 76.5553C57.2804 74.1371 56.268 72.1768 55.0191 72.1768C53.7703 72.1768 52.7579 74.1371 52.7579 76.5553C52.7579 78.9735 53.7703 80.9338 55.0191 80.9338Z" fill="white"/>
<path d="M101.991 87.274C106.724 87.274 110.561 82.5401 110.561 76.7005C110.561 70.8609 106.724 66.127 101.991 66.127C97.2579 66.127 93.4211 70.8609 93.4211 76.7005C93.4211 82.5401 97.2579 87.274 101.991 87.274Z" fill="black"/>
<path d="M101.991 80.9338C103.24 80.9338 104.252 78.9735 104.252 76.5553C104.252 74.1371 103.24 72.1768 101.991 72.1768C100.742 72.1768 99.7296 74.1371 99.7296 76.5553C99.7296 78.9735 100.742 80.9338 101.991 80.9338Z" fill="white"/>
</svg>
