<svg width="158" height="160" viewBox="0 0 158 160" fill="none" xmlns="http://www.w3.org/2000/svg">
<path d="M130.781 75.6652C130.781 63.1764 124.452 51.9138 114.313 43.9766L96.5432 4.98753C95.335 2.33749 91.5685 2.33749 90.3604 4.98753L78.3903 31.2513L66.4203 4.98753C65.2121 2.33749 61.4457 2.33749 60.2375 4.98753L42.4674 43.9766C32.329 51.9181 26 63.1764 26 75.6652C26 95.2092 41.4914 111.742 62.8302 117.253C61.3038 119.597 60.2031 122.299 59.6571 125.22L53.1862 137.511C52.1156 139.55 52.9024 142.092 54.9404 143.168C56.9784 144.239 59.5195 143.452 60.5944 141.413L61.5962 139.511C63.3289 143 65.9388 145.887 69.099 147.823L69.6063 155.476C69.7568 157.773 71.7604 159.529 74.0607 159.378C76.3566 159.227 78.1109 157.223 77.9604 154.921L77.6637 150.456C77.9088 150.464 78.1539 150.477 78.3989 150.477C78.644 150.477 78.8934 150.468 79.1385 150.456L78.8375 154.981C78.687 157.279 80.4412 159.283 82.7372 159.438C85.0332 159.589 87.0368 157.833 87.1916 155.536L87.7032 147.823C90.5882 146.055 93.0132 143.491 94.733 140.402L95.2662 141.413C96.3411 143.452 98.8821 144.239 100.92 143.168C102.958 142.097 103.745 139.55 102.674 137.511L97.4504 127.586C97.1408 123.749 95.8896 120.212 93.9591 117.248C115.298 111.742 130.794 95.2049 130.794 75.6609L130.781 75.6652Z" fill="currentColor"/>
<path d="M63.6284 42.0359L63.5956 42.0465C61.6712 42.6677 60.6135 44.7354 61.2332 46.6646L65.2588 59.1968C65.8785 61.1261 67.941 62.1864 69.8655 61.5651L69.8982 61.5546C71.8227 60.9333 72.8804 58.8656 72.2606 56.9364L68.235 44.4042C67.6153 42.4749 65.5528 41.4146 63.6284 42.0359Z" fill="white" fill-opacity="0.4"/>
<path d="M77.9708 41.252H77.9364C75.9146 41.252 74.2756 42.895 74.2756 44.9218V58.0878C74.2756 60.1146 75.9146 61.7577 77.9364 61.7577H77.9708C79.9926 61.7577 81.6315 60.1146 81.6315 58.0878V44.9218C81.6315 42.895 79.9926 41.252 77.9708 41.252Z" fill="white" fill-opacity="0.4"/>
<path d="M86.0689 61.5676L86.1017 61.5782C88.0261 62.1995 90.0886 61.1391 90.7083 59.2099L94.7339 46.6777C95.3536 44.7484 94.296 42.6808 92.3715 42.0595L92.3388 42.049C90.4143 41.4277 88.3518 42.488 87.7321 44.4173L83.7065 56.9494C83.0868 58.8787 84.1445 60.9463 86.0689 61.5676Z" fill="white" fill-opacity="0.4"/>
<path d="M41.5915 95.9427L41.57 95.9125C40.3956 94.2738 38.0985 93.8986 36.4639 95.0716L33.087 97.5038C34.4894 99.4962 36.0767 101.389 37.8318 103.166L40.7527 101.062C42.3873 99.8843 42.7616 97.5814 41.5915 95.9427Z" fill="white" fill-opacity="0.4"/>
<path d="M39.2642 88.1113L39.2513 88.0768C38.6362 86.1577 36.5628 85.0926 34.6485 85.7093L28.0626 87.8353C28.8928 90.164 29.9511 92.4152 31.2158 94.5628L36.9026 92.7257C38.8169 92.109 39.8794 90.0303 39.2642 88.1113Z" fill="white" fill-opacity="0.4"/>
<path d="M33.0054 76.6576H26.0022C26.0925 79.1761 26.4324 81.6385 27.0131 84.032H33.0054C35.0186 84.032 36.6661 82.3803 36.6661 80.362V80.3232C36.6661 78.305 35.0186 76.6533 33.0054 76.6533V76.6576Z" fill="white" fill-opacity="0.4"/>
<path d="M115.185 96.0769L115.206 96.0468C116.381 94.408 118.678 94.0329 120.312 95.2058L123.689 97.6381C122.287 99.6304 120.7 101.524 118.945 103.3L116.024 101.196C114.389 100.019 114.015 97.7157 115.185 96.0769Z" fill="white" fill-opacity="0.4"/>
<path d="M117.512 88.2456L117.525 88.2111C118.14 86.292 120.214 85.2268 122.128 85.8435L128.714 87.9696C127.883 90.2983 126.825 92.5494 125.561 94.697L119.874 92.8599C117.959 92.2432 116.897 90.1647 117.512 88.2456Z" fill="white" fill-opacity="0.4"/>
<path d="M123.771 76.7958H130.774C130.684 79.3143 130.344 81.7767 129.763 84.1701H123.771C121.758 84.1701 120.11 82.5185 120.11 80.5002V80.4614C120.11 78.4432 121.758 76.7915 123.771 76.7915V76.7958Z" fill="white" fill-opacity="0.4"/>
<path d="M93.7688 97.0361C92.0663 99.5031 89.3055 101.995 86.1801 101.995C83.0548 101.995 80.294 99.5031 78.5915 97.0361H77.0938C75.3913 99.5031 72.6304 101.995 69.5051 101.995C66.3798 101.995 63.6189 99.5031 61.9165 97.0361H60.4736C61.567 101.199 65.1966 104.262 69.5051 104.262C72.7553 104.262 75.616 102.516 77.2934 99.8684C77.5481 99.4681 78.1372 99.4681 78.3918 99.8684C80.0693 102.516 82.93 104.262 86.1801 104.262C90.4887 104.262 94.1133 101.204 95.2116 97.0361H93.7688Z" fill="black"/>
<path d="M54.4078 87.1685C59.131 87.1685 62.96 82.4346 62.96 76.595C62.96 70.7554 59.131 66.0215 54.4078 66.0215C49.6845 66.0215 45.8556 70.7554 45.8556 76.595C45.8556 82.4346 49.6845 87.1685 54.4078 87.1685Z" fill="black"/>
<path d="M54.4077 80.8284C55.654 80.8284 56.6644 78.868 56.6644 76.4498C56.6644 74.0316 55.654 72.0713 54.4077 72.0713C53.1614 72.0713 52.1511 74.0316 52.1511 76.4498C52.1511 78.868 53.1614 80.8284 54.4077 80.8284Z" fill="white"/>
<path d="M101.283 87.1685C106.006 87.1685 109.835 82.4346 109.835 76.595C109.835 70.7554 106.006 66.0215 101.283 66.0215C96.5594 66.0215 92.7305 70.7554 92.7305 76.595C92.7305 82.4346 96.5594 87.1685 101.283 87.1685Z" fill="black"/>
<path d="M101.283 80.8284C102.529 80.8284 103.539 78.868 103.539 76.4498C103.539 74.0316 102.529 72.0713 101.283 72.0713C100.036 72.0713 99.026 74.0316 99.026 76.4498C99.026 78.868 100.036 80.8284 101.283 80.8284Z" fill="white"/>
</svg>
