<svg width="158" height="160" viewBox="0 0 158 160" fill="none" xmlns="http://www.w3.org/2000/svg">
<path d="M116.375 45.7191L97.6064 13.6355C96.3304 11.4548 92.3523 11.4548 91.0763 13.6355L78.4338 35.2472L65.7912 13.6355C64.5151 11.4548 60.5371 11.4548 59.261 13.6355L40.4925 45.7191C29.7845 52.2522 23.1 61.5156 23.1 71.7922C23.1 91.5775 47.8719 116.324 78.4338 116.324C108.996 116.324 133.768 91.5775 133.768 71.7922C133.768 61.5156 127.083 52.2522 116.375 45.7191Z" fill="currentColor"/>
<path d="M104.563 135.719L99.0458 125.238C98.133 113.912 89.4776 105.03 78.9285 105.03C69.1696 105.03 61.0274 112.63 59.1382 122.734L52.3038 135.714C51.1731 137.868 52.0041 140.553 54.1566 141.688C56.3091 142.82 58.9929 141.988 60.1282 139.835L61.1863 137.827C63.0164 141.511 65.7728 144.56 69.1106 146.604L69.6464 154.686C69.8054 157.112 71.9261 158.966 74.3511 158.807C76.776 158.648 78.6288 156.531 78.4699 154.1L78.1565 149.384C78.4154 149.393 78.6742 149.407 78.9331 149.407C79.1919 149.407 79.4553 149.398 79.7141 149.384L79.3963 154.164C79.2373 156.59 81.0901 158.707 83.5151 158.87C85.9401 159.029 88.0562 157.176 88.2197 154.75L88.7601 146.604C91.8072 144.737 94.3684 142.029 96.1848 138.767L96.748 139.835C97.8787 141.988 100.567 142.82 102.72 141.688C104.872 140.557 105.703 137.868 104.572 135.714L104.563 135.719Z" fill="currentColor"/>
<path d="M65.6912 13.7703C64.4152 11.5896 60.4371 11.5896 59.1611 13.7703L40.3926 45.8539C29.6846 52.3869 23 61.6504 23 71.9269C23 77.5059 24.9708 83.4801 28.4857 89.1863C31.8507 90.4765 35.3973 91.1671 39.062 91.1671C60.7505 91.1671 78.3338 67.0158 78.3338 37.2265C78.3338 36.595 78.3247 35.9681 78.3065 35.3411L65.6912 13.7748V13.7703Z" fill="white" fill-opacity="0.4"/>
<path d="M116.275 45.8539L97.5065 13.7703C96.2304 11.5896 92.2524 11.5896 90.9763 13.7703L78.361 35.3366C78.3474 35.9635 78.3338 36.5904 78.3338 37.2219C78.3338 67.0113 95.9171 91.1626 117.606 91.1626C121.27 91.1626 124.817 90.472 128.182 89.1818C131.697 83.4801 133.668 77.5059 133.668 71.9224C133.668 61.6458 126.983 52.3824 116.275 45.8493V45.8539Z" fill="white" fill-opacity="0.4"/>
<path d="M95.3734 93.3467C93.5762 95.9456 90.6616 98.5709 87.3623 98.5709C84.0631 98.5709 81.1485 95.9456 79.3513 93.3467H77.7702C75.973 95.9456 73.0584 98.5709 69.7591 98.5709C66.4599 98.5709 63.5453 95.9456 61.7481 93.3467H60.2249C61.3792 97.7327 65.2108 100.959 69.7591 100.959C73.1902 100.959 76.2101 99.1192 77.981 96.3305C78.2498 95.9087 78.8717 95.9087 79.1405 96.3305C80.9114 99.1192 83.9313 100.959 87.3623 100.959C91.9107 100.959 95.737 97.738 96.8965 93.3467H95.3734Z" fill="black"/>
<path d="M53.8216 82.951C58.8078 82.951 62.8499 77.9639 62.8499 71.8119C62.8499 65.66 58.8078 60.6729 53.8216 60.6729C48.8355 60.6729 44.7934 65.66 44.7934 71.8119C44.7934 77.9639 48.8355 82.951 53.8216 82.951Z" fill="black"/>
<path d="M53.8214 76.2718C55.1371 76.2718 56.2036 74.2066 56.2036 71.6591C56.2036 69.1116 55.1371 67.0464 53.8214 67.0464C52.5057 67.0464 51.4392 69.1116 51.4392 71.6591C51.4392 74.2066 52.5057 76.2718 53.8214 76.2718Z" fill="white"/>
<path d="M103.306 82.951C108.292 82.951 112.334 77.9639 112.334 71.8119C112.334 65.66 108.292 60.6729 103.306 60.6729C98.3195 60.6729 94.2775 65.66 94.2775 71.8119C94.2775 77.9639 98.3195 82.951 103.306 82.951Z" fill="black"/>
<path d="M103.306 76.2718C104.621 76.2718 105.688 74.2066 105.688 71.6591C105.688 69.1116 104.621 67.0464 103.306 67.0464C101.99 67.0464 100.923 69.1116 100.923 71.6591C100.923 74.2066 101.99 76.2718 103.306 76.2718Z" fill="white"/>
</svg>
