<svg width="158" height="160" viewBox="0 0 158 160" fill="none" xmlns="http://www.w3.org/2000/svg">
<path d="M116.659 46.0261L97.8165 13.9942C96.5354 11.817 92.5417 11.817 91.2606 13.9942L78.5683 35.5711L65.8759 13.9942C64.5948 11.817 60.6011 11.817 59.32 13.9942L40.4776 46.0261C29.7274 52.5486 23.0165 61.7971 23.0165 72.0571C23.0165 91.8105 47.886 116.517 78.5683 116.517C109.251 116.517 134.12 91.8105 134.12 72.0571C134.12 61.7971 127.409 52.5486 116.659 46.0261Z" fill="currentColor"/>
<path d="M104.801 135.876L99.2616 125.412C98.3452 114.104 89.6557 105.237 79.065 105.237C69.2677 105.237 61.0934 112.825 59.1968 122.913L52.3354 135.872C51.2002 138.022 52.0346 140.702 54.1955 141.836C56.3565 142.966 59.0509 142.136 60.1907 139.986L61.2529 137.981C63.0902 141.659 65.8575 144.703 69.2084 146.744L69.7464 154.813C69.9059 157.235 72.035 159.086 74.4696 158.927C76.9041 158.768 78.7641 156.655 78.6046 154.228L78.29 149.52C78.5499 149.529 78.8097 149.543 79.0696 149.543C79.3295 149.543 79.5939 149.534 79.8538 149.52L79.5346 154.292C79.3751 156.714 81.2351 158.827 83.6697 158.991C86.1042 159.149 88.2287 157.299 88.3928 154.877L88.9353 146.744C91.9944 144.88 94.5657 142.176 96.3893 138.92L96.9547 139.986C98.0899 142.136 100.789 142.966 102.95 141.836C105.111 140.707 105.945 138.022 104.81 135.872L104.801 135.876Z" fill="currentColor"/>
<path d="M63.0198 50.7627L62.9851 50.7738C60.9455 51.4273 59.8246 53.602 60.4814 55.6312L64.7478 68.8124C65.4046 70.8416 67.5905 71.9569 69.63 71.3034L69.6647 71.2923C71.7043 70.6388 72.8253 68.4641 72.1685 66.4349L67.902 53.2537C67.2452 51.2245 65.0594 50.1093 63.0198 50.7627Z" fill="white" fill-opacity="0.4"/>
<path d="M78.2201 49.9541H78.1837C76.0409 49.9541 74.304 51.6823 74.304 53.8141V67.6619C74.304 69.7937 76.0409 71.5219 78.1837 71.5219H78.2201C80.3629 71.5219 82.0999 69.7937 82.0999 67.6619V53.8141C82.0999 51.6823 80.3629 49.9541 78.2201 49.9541Z" fill="white" fill-opacity="0.4"/>
<path d="M86.8078 71.3135L86.8426 71.3246C88.8821 71.9781 91.068 70.8628 91.7248 68.8336L95.9912 55.6524C96.648 53.6232 95.5271 51.4485 93.4875 50.7951L93.4528 50.784C91.4132 50.1305 89.2274 51.2458 88.5706 53.2749L84.3041 66.4562C83.6473 68.4853 84.7683 70.6601 86.8078 71.3135Z" fill="white" fill-opacity="0.4"/>
<path d="M41.8897 93.7113L41.8578 93.6842C40.2347 92.3098 37.7729 92.5003 36.3915 94.115L34.0299 96.8683C35.7623 98.728 37.6543 100.515 39.7013 102.202L42.3182 99.1452C43.7042 97.5305 43.5081 95.0812 41.8851 93.7068L41.8897 93.7113Z" fill="white" fill-opacity="0.4"/>
<path d="M32.0877 94.5276L36.5191 91.8061C38.3336 90.6903 38.8989 88.2999 37.7819 86.4947L37.7637 86.4629C36.6422 84.6577 34.2396 84.0952 32.4251 85.2065L27.6199 88.1593C28.8918 90.3274 30.3918 92.4638 32.0923 94.5276H32.0877Z" fill="white" fill-opacity="0.4"/>
<path d="M33.068 79.2691C32.5574 77.2099 30.4465 75.9399 28.3767 76.4479L23.339 77.6861C23.8906 80.1219 24.7705 82.5893 25.9422 85.0341L30.2414 83.9773C32.3112 83.4693 33.5877 81.3692 33.0771 79.3099L33.068 79.2737V79.2691Z" fill="white" fill-opacity="0.4"/>
<path d="M114.483 93.8154L114.515 93.7882C116.138 92.4138 118.6 92.6043 119.981 94.219L122.343 96.9723C120.61 98.832 118.718 100.619 116.671 102.306L114.054 99.2493C112.668 97.6345 112.864 95.1852 114.487 93.8109L114.483 93.8154Z" fill="white" fill-opacity="0.4"/>
<path d="M124.285 94.6272L119.853 91.9057C118.039 90.7899 117.474 88.3995 118.591 86.5943L118.609 86.5625C119.73 84.7572 122.133 84.1948 123.947 85.3061L128.753 88.2589C127.481 90.427 125.981 92.5634 124.28 94.6272H124.285Z" fill="white" fill-opacity="0.4"/>
<path d="M123.309 79.3687C123.82 77.3095 125.931 76.0395 128 76.5475L133.038 77.7857C132.487 80.2215 131.607 82.689 130.435 85.1338L126.136 84.0769C124.066 83.5689 122.79 81.4689 123.3 79.4096L123.309 79.3733V79.3687Z" fill="white" fill-opacity="0.4"/>
<path d="M95.4238 94.6953C93.6196 97.2901 90.6935 99.9111 87.3812 99.9111C84.069 99.9111 81.143 97.2901 79.3387 94.6953H77.7513C75.947 97.2901 73.021 99.9111 69.7087 99.9111C66.3964 99.9111 63.4704 97.2901 61.6661 94.6953H60.137C61.2957 99.0743 65.1424 102.295 69.7087 102.295C73.1533 102.295 76.1851 100.459 77.963 97.6743C78.2328 97.2532 78.8572 97.2532 79.127 97.6743C80.9049 100.459 83.9367 102.295 87.3812 102.295C91.9475 102.295 95.7889 99.0795 96.953 94.6953H95.4238Z" fill="black"/>
<path d="M53.7082 84.3164C58.714 84.3164 62.772 79.3374 62.772 73.1953C62.772 67.0533 58.714 62.0742 53.7082 62.0742C48.7024 62.0742 44.6444 67.0533 44.6444 73.1953C44.6444 79.3374 48.7024 84.3164 53.7082 84.3164Z" fill="black"/>
<path d="M53.7081 77.6481C55.029 77.6481 56.0998 75.5862 56.0998 73.0428C56.0998 70.4994 55.029 68.4375 53.7081 68.4375C52.3873 68.4375 51.3165 70.4994 51.3165 73.0428C51.3165 75.5862 52.3873 77.6481 53.7081 77.6481Z" fill="white"/>
<path d="M103.387 84.3164C108.393 84.3164 112.451 79.3374 112.451 73.1953C112.451 67.0533 108.393 62.0742 103.387 62.0742C98.3815 62.0742 94.3235 67.0533 94.3235 73.1953C94.3235 79.3374 98.3815 84.3164 103.387 84.3164Z" fill="black"/>
<path d="M103.387 77.6481C104.708 77.6481 105.779 75.5862 105.779 73.0428C105.779 70.4994 104.708 68.4375 103.387 68.4375C102.066 68.4375 100.996 70.4994 100.996 73.0428C100.996 75.5862 102.066 77.6481 103.387 77.6481Z" fill="white"/>
</svg>
