<svg width="158" height="160" viewBox="0 0 158 160" fill="none" xmlns="http://www.w3.org/2000/svg">
<path d="M104.17 136.021L98.7777 125.777C97.8856 114.707 89.4259 106.026 79.1152 106.026C69.5769 106.026 61.6187 113.455 59.7723 123.33L53.0924 136.017C51.9872 138.121 52.7994 140.746 54.9033 141.856C57.0071 142.961 59.6303 142.149 60.7399 140.044L61.7741 138.081C63.5628 141.683 66.2569 144.662 69.5192 146.66L70.043 154.56C70.1983 156.931 72.2711 158.743 74.6412 158.587C77.0114 158.432 78.8223 156.363 78.667 153.987L78.3607 149.378C78.6137 149.387 78.8667 149.4 79.1197 149.4C79.3727 149.4 79.6301 149.391 79.8831 149.378L79.5724 154.049C79.417 156.42 81.228 158.49 83.5981 158.649C85.9683 158.805 88.0366 156.993 88.1964 154.622L88.7246 146.66C91.7028 144.835 94.2061 142.189 95.9815 139.001L96.5319 140.044C97.6371 142.149 100.265 142.961 102.368 141.856C104.472 140.75 105.285 138.121 104.179 136.017L104.17 136.021Z" fill="currentColor"/>
<path d="M134.747 73.5711C140.331 68.9886 136.731 61.3199 129.177 60.7071C126.177 56.3067 122.044 52.3591 117.051 49.051L98.0455 13.7984C96.7539 11.4005 92.7282 11.4005 91.4366 13.7984L78.636 37.5458L65.8353 13.7984C64.5437 11.4005 60.5181 11.4005 59.2265 13.7984L40.2208 49.051C35.2231 52.3591 31.0953 56.3067 28.0949 60.7071C20.5406 61.3155 16.9365 68.9841 22.5246 73.5711C13.8251 75.9467 13.8251 86.0132 22.5246 88.3933C16.6791 93.1889 20.8912 101.368 29.169 101.302L33.7451 101.262C43.9625 110.862 60.2695 117.074 78.6404 117.074C97.0113 117.074 113.318 110.862 123.536 101.262L128.112 101.302C136.39 101.373 140.602 93.1934 134.756 88.3933C143.456 86.0176 143.456 75.9512 134.756 73.5711H134.747Z" fill="currentColor"/>
<path d="M65.56 13.9302C64.2684 11.5324 60.2427 11.5324 58.9511 13.9302L39.9455 49.1828C34.9477 52.4909 30.8199 56.4385 27.8195 60.839C20.2652 61.4473 16.6612 69.1159 22.2492 73.7029C21.0464 74.0315 20.0167 74.5111 19.1467 75.0928C25.2319 80.0172 32.5998 82.8991 40.5403 82.8991C61.4278 82.8991 78.3651 62.9526 78.3651 38.3526C78.3651 38.1217 78.3606 37.8953 78.3562 37.6643L65.56 13.9302Z" fill="white" fill-opacity="0.4"/>
<path d="M134.477 73.7029C140.06 69.1204 136.461 61.4517 128.906 60.839C125.906 56.4385 121.774 52.4909 116.78 49.1828L97.7747 13.9302C96.4831 11.5324 92.4573 11.5324 91.1657 13.9302L78.3696 37.6643C78.3696 37.8953 78.3607 38.1217 78.3607 38.3526C78.3607 62.9571 95.2935 82.8991 116.186 82.8991C124.126 82.8991 131.494 80.0172 137.579 75.0928C136.709 74.5111 135.679 74.0315 134.477 73.7029Z" fill="white" fill-opacity="0.4"/>
<path d="M94.5753 97.0679C92.8187 99.6081 89.9701 102.174 86.7454 102.174C83.5207 102.174 80.672 99.6081 78.9154 97.0679H77.3701C75.6135 99.6081 72.7648 102.174 69.5401 102.174C66.3154 102.174 63.4667 99.6081 61.7101 97.0679H60.2214C61.3495 101.355 65.0945 104.508 69.5401 104.508C72.8936 104.508 75.8453 102.71 77.5761 99.9842C77.8388 99.572 78.4467 99.572 78.7094 99.9842C80.4402 102.71 83.3919 104.508 86.7454 104.508C91.1909 104.508 94.9308 101.36 96.064 97.0679H94.5753Z" fill="black"/>
<path d="M53.9627 86.9074C58.8361 86.9074 62.7869 82.033 62.7869 76.0201C62.7869 70.0072 58.8361 65.1328 53.9627 65.1328C49.0892 65.1328 45.1385 70.0072 45.1385 76.0201C45.1385 82.033 49.0892 86.9074 53.9627 86.9074Z" fill="black"/>
<path d="M53.9625 80.3792C55.2485 80.3792 56.2909 78.3607 56.2909 75.8708C56.2909 73.3808 55.2485 71.3623 53.9625 71.3623C52.6766 71.3623 51.6342 73.3808 51.6342 75.8708C51.6342 78.3607 52.6766 80.3792 53.9625 80.3792Z" fill="white"/>
<path d="M102.328 86.9074C107.202 86.9074 111.152 82.033 111.152 76.0201C111.152 70.0072 107.202 65.1328 102.328 65.1328C97.4547 65.1328 93.504 70.0072 93.504 76.0201C93.504 82.033 97.4547 86.9074 102.328 86.9074Z" fill="black"/>
<path d="M102.328 80.3792C103.614 80.3792 104.656 78.3607 104.656 75.8708C104.656 73.3808 103.614 71.3623 102.328 71.3623C101.042 71.3623 99.9997 73.3808 99.9997 75.8708C99.9997 78.3607 101.042 80.3792 102.328 80.3792Z" fill="white"/>
</svg>
