<svg width="158" height="160" viewBox="0 0 158 160" fill="none" xmlns="http://www.w3.org/2000/svg">
<path d="M104.172 135.235L98.7789 124.974C97.8867 113.885 89.4269 105.188 79.1161 105.188C69.5777 105.188 61.6194 112.63 59.7729 122.523L53.0929 135.231C51.9877 137.339 52.8 139.968 54.9038 141.08C57.0077 142.188 59.6309 141.374 60.7405 139.265L61.7747 137.299C63.5635 140.907 66.2577 143.891 69.52 145.893L70.0437 153.806C70.1991 156.182 72.2719 157.996 74.6421 157.841C77.0123 157.685 78.8232 155.612 78.6678 153.232L78.3616 148.615C78.6146 148.624 78.8676 148.638 79.1206 148.638C79.3736 148.638 79.631 148.629 79.884 148.615L79.5733 153.295C79.418 155.67 81.2289 157.743 83.5991 157.903C85.9693 158.059 88.0376 156.244 88.1974 153.869L88.7256 145.893C91.7039 144.065 94.2072 141.414 95.9826 138.22L96.533 139.265C97.6382 141.374 100.266 142.188 102.37 141.08C104.474 139.973 105.286 137.339 104.181 135.231L104.172 135.235Z" fill="currentColor"/>
<path d="M134.749 72.6774C140.333 68.087 136.733 60.4051 129.179 59.7913C126.178 55.3832 122.046 51.4288 117.052 48.115L98.0466 12.8015C96.755 10.3995 92.7292 10.3995 91.4376 12.8015L78.6368 36.5899L65.836 12.8015C64.5444 10.3995 60.5187 10.3995 59.227 12.8015L40.2212 48.115C35.2234 51.4288 31.0955 55.3832 28.095 59.7913C20.5406 60.4007 16.9365 68.0825 22.5247 72.6774C13.8251 75.0572 13.8251 85.141 22.5247 87.5252C16.6791 92.3292 20.8913 100.523 29.1692 100.456L33.7453 100.416C43.9629 110.033 60.2701 116.256 78.6413 116.256C97.0124 116.256 113.32 110.033 123.537 100.416L128.113 100.456C136.391 100.527 140.603 92.3336 134.758 87.5252C143.457 85.1455 143.457 75.0616 134.758 72.6774H134.749Z" fill="currentColor"/>
<path d="M95.3556 95.8188C93.599 98.3634 90.7503 100.934 87.5255 100.934C84.3008 100.934 81.4521 98.3634 79.6955 95.8188H78.1501C76.3935 98.3634 73.5448 100.934 70.32 100.934C67.0953 100.934 64.2466 98.3634 62.49 95.8188H61.0012C62.1294 100.113 65.8744 103.272 70.32 103.272C73.6736 103.272 76.6253 101.471 78.3561 98.7402C78.6189 98.3273 79.2267 98.3273 79.4894 98.7402C81.2203 101.471 84.172 103.272 87.5255 103.272C91.9712 103.272 95.7111 100.118 96.8444 95.8188H95.3556Z" fill="black"/>
<path d="M54.7423 85.6408C59.6159 85.6408 63.5666 80.758 63.5666 74.7347C63.5666 68.7114 59.6159 63.8286 54.7423 63.8286C49.8688 63.8286 45.9181 68.7114 45.9181 74.7347C45.9181 80.758 49.8688 85.6408 54.7423 85.6408Z" fill="black"/>
<path d="M54.7423 79.1013C56.0283 79.1013 57.0708 77.0793 57.0708 74.5851C57.0708 72.0908 56.0283 70.0688 54.7423 70.0688C53.4564 70.0688 52.4139 72.0908 52.4139 74.5851C52.4139 77.0793 53.4564 79.1013 54.7423 79.1013Z" fill="white"/>
<path d="M103.109 85.6408C107.982 85.6408 111.933 80.758 111.933 74.7347C111.933 68.7114 107.982 63.8286 103.109 63.8286C98.235 63.8286 94.2843 68.7114 94.2843 74.7347C94.2843 80.758 98.235 85.6408 103.109 85.6408Z" fill="black"/>
<path d="M103.108 79.1013C104.394 79.1013 105.437 77.0793 105.437 74.5851C105.437 72.0908 104.394 70.0688 103.108 70.0688C101.822 70.0688 100.78 72.0908 100.78 74.5851C100.78 77.0793 101.822 79.1013 103.108 79.1013Z" fill="white"/>
<path d="M63.8519 51.5871L63.8181 51.598C61.8324 52.2388 60.7411 54.3715 61.3806 56.3614L65.5343 69.2877C66.1737 71.2777 68.3017 72.3714 70.2874 71.7306L70.3212 71.7197C72.3069 71.0788 73.3982 68.9462 72.7588 66.9562L68.6051 54.0299C67.9657 52.04 65.8376 50.9463 63.8519 51.5871Z" fill="white" fill-opacity="0.4"/>
<path d="M78.6503 50.7974H78.6148C76.5287 50.7974 74.8376 52.4921 74.8376 54.5827V68.1627C74.8376 70.2533 76.5287 71.9481 78.6148 71.9481H78.6503C80.7364 71.9481 82.4275 70.2533 82.4275 68.1627V54.5827C82.4275 52.4921 80.7364 50.7974 78.6503 50.7974Z" fill="white" fill-opacity="0.4"/>
<path d="M87.017 71.736L87.0508 71.7469C89.0365 72.3877 91.1646 71.2941 91.804 69.3041L95.9577 56.3778C96.5972 54.3878 95.5058 52.2552 93.5201 51.6144L93.4864 51.6035C91.5007 50.9626 89.3726 52.0563 88.7332 54.0463L84.5795 66.9726C83.94 68.9625 85.0314 71.0952 87.017 71.736Z" fill="white" fill-opacity="0.4"/>
<path d="M40.9273 96.4748L40.9006 96.4481C39.3471 95.0692 36.9503 95.2115 35.5699 96.7683L32.3698 100.385L33.6835 100.376C35.2548 101.857 36.9725 103.254 38.819 104.561L41.2513 101.817C42.6272 100.26 42.4852 97.8581 40.9317 96.4748H40.9273Z" fill="white" fill-opacity="0.4"/>
<path d="M35.5833 94.3798C37.372 93.3211 37.9712 90.9903 36.9148 89.1977L36.8971 89.1666C35.8407 87.374 33.5149 86.7779 31.7262 87.8366L20.1238 94.7089C20.8695 97.102 23.0044 99.1881 26.0448 100.033L35.5877 94.3798H35.5833Z" fill="white" fill-opacity="0.4"/>
<path d="M21.5529 88.4594L29.6266 86.6312C31.6506 86.1731 32.9334 84.1358 32.4762 82.1075L32.4673 82.0719C32.0101 80.0436 29.9773 78.7581 27.9533 79.2162L16.2311 81.8718C16.8969 84.3405 18.9963 86.5734 22.5205 87.5387C22.161 87.8367 21.837 88.1436 21.5529 88.4639V88.4594Z" fill="white" fill-opacity="0.4"/>
<path d="M116.347 96.466L116.374 96.4393C117.927 95.0604 120.324 95.2027 121.704 96.7596L124.905 100.376L123.591 100.367C122.019 101.848 120.302 103.245 118.455 104.553L116.023 101.808C114.647 100.251 114.789 97.8493 116.343 96.466H116.347Z" fill="white" fill-opacity="0.4"/>
<path d="M121.686 94.3709C119.898 93.3123 119.299 90.9815 120.355 89.1889L120.373 89.1578C121.429 87.3652 123.755 86.7691 125.544 87.8278L137.146 94.7001C136.4 97.0932 134.265 99.1793 131.225 100.024L121.682 94.3709H121.686Z" fill="white" fill-opacity="0.4"/>
<path d="M135.721 88.4462L127.647 86.618C125.623 86.1599 124.341 84.1227 124.798 82.0943L124.807 82.0587C125.264 80.0304 127.297 78.7449 129.321 79.203L141.043 81.8586C140.377 84.3273 138.278 86.5602 134.754 87.5254C135.113 87.8235 135.437 88.1304 135.721 88.4506V88.4462Z" fill="white" fill-opacity="0.4"/>
</svg>
